%TF.GenerationSoftware,KiCad,Pcbnew,8.0.5*%
%TF.CreationDate,2025-02-12T03:45:18+07:00*%
%TF.ProjectId,SmartFarmMySensors_ArduinoNano,536d6172-7446-4617-926d-4d7953656e73,rev?*%
%TF.SameCoordinates,Original*%
%TF.FileFunction,Copper,L3,Inr*%
%TF.FilePolarity,Positive*%
%FSLAX46Y46*%
G04 Gerber Fmt 4.6, Leading zero omitted, Abs format (unit mm)*
G04 Created by KiCad (PCBNEW 8.0.5) date 2025-02-12 03:45:18*
%MOMM*%
%LPD*%
G01*
G04 APERTURE LIST*
G04 Aperture macros list*
%AMRoundRect*
0 Rectangle with rounded corners*
0 $1 Rounding radius*
0 $2 $3 $4 $5 $6 $7 $8 $9 X,Y pos of 4 corners*
0 Add a 4 corners polygon primitive as box body*
4,1,4,$2,$3,$4,$5,$6,$7,$8,$9,$2,$3,0*
0 Add four circle primitives for the rounded corners*
1,1,$1+$1,$2,$3*
1,1,$1+$1,$4,$5*
1,1,$1+$1,$6,$7*
1,1,$1+$1,$8,$9*
0 Add four rect primitives between the rounded corners*
20,1,$1+$1,$2,$3,$4,$5,0*
20,1,$1+$1,$4,$5,$6,$7,0*
20,1,$1+$1,$6,$7,$8,$9,0*
20,1,$1+$1,$8,$9,$2,$3,0*%
G04 Aperture macros list end*
%TA.AperFunction,ComponentPad*%
%ADD10R,1.700000X1.700000*%
%TD*%
%TA.AperFunction,ComponentPad*%
%ADD11C,1.700000*%
%TD*%
%TA.AperFunction,ComponentPad*%
%ADD12C,2.400000*%
%TD*%
%TA.AperFunction,ComponentPad*%
%ADD13RoundRect,0.250000X1.000000X-1.000000X1.000000X1.000000X-1.000000X1.000000X-1.000000X-1.000000X0*%
%TD*%
%TA.AperFunction,ComponentPad*%
%ADD14R,2.000000X2.000000*%
%TD*%
%TA.AperFunction,ComponentPad*%
%ADD15C,2.000000*%
%TD*%
%TA.AperFunction,ComponentPad*%
%ADD16RoundRect,0.250000X0.625000X-0.350000X0.625000X0.350000X-0.625000X0.350000X-0.625000X-0.350000X0*%
%TD*%
%TA.AperFunction,ComponentPad*%
%ADD17O,1.750000X1.200000*%
%TD*%
%TA.AperFunction,ComponentPad*%
%ADD18C,0.800000*%
%TD*%
%TA.AperFunction,ComponentPad*%
%ADD19C,6.400000*%
%TD*%
%TA.AperFunction,ComponentPad*%
%ADD20R,1.600000X1.600000*%
%TD*%
%TA.AperFunction,ComponentPad*%
%ADD21O,1.600000X1.600000*%
%TD*%
%TA.AperFunction,ViaPad*%
%ADD22C,0.600000*%
%TD*%
G04 APERTURE END LIST*
D10*
%TO.N,GND*%
%TO.C,U1*%
X143010500Y-50775000D03*
D11*
%TO.N,VCC*%
X145550500Y-50775000D03*
%TO.N,CE*%
X143010500Y-53315000D03*
%TO.N,CSN*%
X145550500Y-53315000D03*
%TO.N,SCK*%
X143010500Y-55855000D03*
%TO.N,MOSI*%
X145550500Y-55855000D03*
%TO.N,MISO*%
X143010500Y-58395000D03*
%TO.N,unconnected-(U1-IRQ-Pad8)*%
X145550500Y-58395000D03*
%TD*%
D12*
%TO.N,CO2*%
%TO.C,K2*%
X151700000Y-89350000D03*
%TO.N,NC2*%
X165900000Y-83350000D03*
%TO.N,NO2*%
X165900000Y-95350000D03*
D13*
%TO.N,Net-(D2-A)*%
X153700000Y-95350000D03*
D12*
%TO.N,+5V*%
X153700000Y-83350000D03*
%TD*%
%TO.N,CO1*%
%TO.C,K1*%
X151700000Y-73350000D03*
%TO.N,NC1*%
X165900000Y-67350000D03*
%TO.N,NO1*%
X165900000Y-79350000D03*
D13*
%TO.N,Net-(D1-A)*%
X153700000Y-79350000D03*
D12*
%TO.N,+5V*%
X153700000Y-67350000D03*
%TD*%
D14*
%TO.N,+5V*%
%TO.C,J7*%
X178600000Y-64625000D03*
D15*
%TO.N,GND*%
X178600000Y-62085000D03*
%TD*%
D14*
%TO.N,NO2*%
%TO.C,J6*%
X178600000Y-87980000D03*
D15*
%TO.N,CO2*%
X178600000Y-85440000D03*
%TO.N,NC2*%
X178600000Y-82900000D03*
%TD*%
D14*
%TO.N,NO1*%
%TO.C,J5*%
X178600000Y-75990000D03*
D15*
%TO.N,CO1*%
X178600000Y-73450000D03*
%TO.N,NC1*%
X178600000Y-70910000D03*
%TD*%
D16*
%TO.N,VCC*%
%TO.C,J4*%
X111800000Y-89540588D03*
D17*
%TO.N,Moisture 4*%
X111800000Y-87540588D03*
%TO.N,GND*%
X111800000Y-85540588D03*
%TD*%
D16*
%TO.N,VCC*%
%TO.C,J3*%
X111800000Y-80481177D03*
D17*
%TO.N,Moisture 3*%
X111800000Y-78481177D03*
%TO.N,GND*%
X111800000Y-76481177D03*
%TD*%
D16*
%TO.N,VCC*%
%TO.C,J2*%
X111800000Y-71421766D03*
D17*
%TO.N,Moisture 2*%
X111800000Y-69421766D03*
%TO.N,GND*%
X111800000Y-67421766D03*
%TD*%
D16*
%TO.N,VCC*%
%TO.C,J1*%
X111800000Y-62362355D03*
D17*
%TO.N,Moisture 1*%
X111800000Y-60362355D03*
%TO.N,GND*%
X111800000Y-58362355D03*
%TD*%
D18*
%TO.N,GND*%
%TO.C,H4*%
X176300000Y-51900000D03*
X177002944Y-50202944D03*
X177002944Y-53597056D03*
X178700000Y-49500000D03*
D19*
X178700000Y-51900000D03*
D18*
X178700000Y-54300000D03*
X180397056Y-50202944D03*
X180397056Y-53597056D03*
X181100000Y-51900000D03*
%TD*%
%TO.N,GND*%
%TO.C,H3*%
X176300000Y-95900000D03*
X177002944Y-94202944D03*
X177002944Y-97597056D03*
X178700000Y-93500000D03*
D19*
X178700000Y-95900000D03*
D18*
X178700000Y-98300000D03*
X180397056Y-94202944D03*
X180397056Y-97597056D03*
X181100000Y-95900000D03*
%TD*%
%TO.N,GND*%
%TO.C,H2*%
X110300000Y-95900000D03*
X111002944Y-94202944D03*
X111002944Y-97597056D03*
X112700000Y-93500000D03*
D19*
X112700000Y-95900000D03*
D18*
X112700000Y-98300000D03*
X114397056Y-94202944D03*
X114397056Y-97597056D03*
X115100000Y-95900000D03*
%TD*%
%TO.N,GND*%
%TO.C,H1*%
X110300000Y-51900000D03*
X111002944Y-50202944D03*
X111002944Y-53597056D03*
X112700000Y-49500000D03*
D19*
X112700000Y-51900000D03*
D18*
X112700000Y-54300000D03*
X114397056Y-50202944D03*
X114397056Y-53597056D03*
X115100000Y-51900000D03*
%TD*%
D20*
%TO.N,unconnected-(A1-D1{slash}TX-Pad1)*%
%TO.C,A1*%
X137338500Y-90790000D03*
D21*
%TO.N,unconnected-(A1-D0{slash}RX-Pad2)*%
X137338500Y-88250000D03*
%TO.N,unconnected-(A1-~{RESET}-Pad3)*%
X137338500Y-85710000D03*
%TO.N,GND*%
X137338500Y-83170000D03*
%TO.N,RY2*%
X137338500Y-80630000D03*
%TO.N,RY1*%
X137338500Y-78090000D03*
%TO.N,unconnected-(A1-D4-Pad7)*%
X137338500Y-75550000D03*
%TO.N,unconnected-(A1-D5-Pad8)*%
X137338500Y-73010000D03*
%TO.N,unconnected-(A1-D6-Pad9)*%
X137338500Y-70470000D03*
%TO.N,unconnected-(A1-D7-Pad10)*%
X137338500Y-67930000D03*
%TO.N,unconnected-(A1-D8-Pad11)*%
X137338500Y-65390000D03*
%TO.N,CE*%
X137338500Y-62850000D03*
%TO.N,CSN*%
X137338500Y-60310000D03*
%TO.N,MOSI*%
X137338500Y-57770000D03*
%TO.N,MISO*%
X137338500Y-55230000D03*
%TO.N,SCK*%
X122098500Y-55230000D03*
%TO.N,VCC*%
X122098500Y-57770000D03*
%TO.N,unconnected-(A1-AREF-Pad18)*%
X122098500Y-60310000D03*
%TO.N,Moisture 1*%
X122098500Y-62850000D03*
%TO.N,Moisture 2*%
X122098500Y-65390000D03*
%TO.N,Moisture 3*%
X122098500Y-67930000D03*
%TO.N,Moisture 4*%
X122098500Y-70470000D03*
%TO.N,unconnected-(A1-A4-Pad23)*%
X122098500Y-73010000D03*
%TO.N,unconnected-(A1-A5-Pad24)*%
X122098500Y-75550000D03*
%TO.N,unconnected-(A1-A6-Pad25)*%
X122098500Y-78090000D03*
%TO.N,unconnected-(A1-A7-Pad26)*%
X122098500Y-80630000D03*
%TO.N,unconnected-(A1-+5V-Pad27)*%
X122098500Y-83170000D03*
%TO.N,unconnected-(A1-~{RESET}-Pad28)*%
X122098500Y-85710000D03*
%TO.N,GND*%
X122098500Y-88250000D03*
%TO.N,unconnected-(A1-VIN-Pad30)*%
X122098500Y-90790000D03*
%TD*%
D22*
%TO.N,GND*%
X140000000Y-54500000D03*
X139700000Y-58150000D03*
X144100000Y-80650000D03*
X144050000Y-96750000D03*
%TD*%
%TA.AperFunction,Conductor*%
%TO.N,VCC*%
G36*
X145084575Y-50967993D02*
G01*
X145150401Y-51082007D01*
X145243493Y-51175099D01*
X145357507Y-51240925D01*
X145421090Y-51257962D01*
X144789125Y-51889925D01*
X144865094Y-51943119D01*
X144908719Y-51997696D01*
X144915913Y-52067194D01*
X144884390Y-52129549D01*
X144865095Y-52146269D01*
X144679094Y-52276508D01*
X144512005Y-52443597D01*
X144382075Y-52629158D01*
X144327498Y-52672783D01*
X144258000Y-52679977D01*
X144195645Y-52648454D01*
X144178925Y-52629158D01*
X144048996Y-52443600D01*
X144048993Y-52443597D01*
X143927067Y-52321671D01*
X143893584Y-52260351D01*
X143898568Y-52190659D01*
X143940439Y-52134725D01*
X143971415Y-52117810D01*
X144102831Y-52068796D01*
X144218046Y-51982546D01*
X144304296Y-51867331D01*
X144354591Y-51732483D01*
X144361000Y-51672873D01*
X144360999Y-51662314D01*
X144380679Y-51595277D01*
X144397318Y-51574628D01*
X145067537Y-50904409D01*
X145084575Y-50967993D01*
G37*
%TD.AperFunction*%
%TA.AperFunction,Conductor*%
G36*
X176967646Y-48420185D02*
G01*
X177013401Y-48472989D01*
X177023345Y-48542147D01*
X176994320Y-48605703D01*
X176956902Y-48634985D01*
X176847206Y-48690877D01*
X176521917Y-48902122D01*
X176220488Y-49146215D01*
X176220480Y-49146222D01*
X175946222Y-49420480D01*
X175946215Y-49420488D01*
X175702122Y-49721917D01*
X175490877Y-50047206D01*
X175314787Y-50392802D01*
X175175788Y-50754905D01*
X175075397Y-51129570D01*
X175075397Y-51129572D01*
X175014722Y-51512660D01*
X174994422Y-51899999D01*
X174994422Y-51900000D01*
X175014722Y-52287339D01*
X175070130Y-52637171D01*
X175075398Y-52670433D01*
X175123870Y-52851335D01*
X175175788Y-53045094D01*
X175314787Y-53407197D01*
X175490877Y-53752793D01*
X175702122Y-54078082D01*
X175789833Y-54186396D01*
X175946219Y-54379516D01*
X176220484Y-54653781D01*
X176260981Y-54686575D01*
X176521917Y-54897877D01*
X176847206Y-55109122D01*
X176847211Y-55109125D01*
X177192806Y-55285214D01*
X177554913Y-55424214D01*
X177929567Y-55524602D01*
X178312662Y-55585278D01*
X178678576Y-55604455D01*
X178699999Y-55605578D01*
X178700000Y-55605578D01*
X178700001Y-55605578D01*
X178720301Y-55604514D01*
X179087338Y-55585278D01*
X179470433Y-55524602D01*
X179845087Y-55424214D01*
X180207194Y-55285214D01*
X180552789Y-55109125D01*
X180878084Y-54897876D01*
X181179516Y-54653781D01*
X181453781Y-54379516D01*
X181697876Y-54078084D01*
X181909125Y-53752789D01*
X181965015Y-53643097D01*
X182012989Y-53592302D01*
X182080810Y-53575507D01*
X182146945Y-53598044D01*
X182190397Y-53652759D01*
X182199500Y-53699393D01*
X182199500Y-94100606D01*
X182179815Y-94167645D01*
X182127011Y-94213400D01*
X182057853Y-94223344D01*
X181994297Y-94194319D01*
X181965015Y-94156901D01*
X181909122Y-94047206D01*
X181697877Y-93721917D01*
X181453784Y-93420488D01*
X181453781Y-93420484D01*
X181179516Y-93146219D01*
X180878084Y-92902124D01*
X180878082Y-92902122D01*
X180552793Y-92690877D01*
X180207197Y-92514787D01*
X179845094Y-92375788D01*
X179845087Y-92375786D01*
X179470433Y-92275398D01*
X179470429Y-92275397D01*
X179470428Y-92275397D01*
X179087339Y-92214722D01*
X178700001Y-92194422D01*
X178699999Y-92194422D01*
X178312660Y-92214722D01*
X177929572Y-92275397D01*
X177929570Y-92275397D01*
X177554905Y-92375788D01*
X177192802Y-92514787D01*
X176847206Y-92690877D01*
X176521917Y-92902122D01*
X176220488Y-93146215D01*
X176220480Y-93146222D01*
X175946222Y-93420480D01*
X175946215Y-93420488D01*
X175702122Y-93721917D01*
X175490877Y-94047206D01*
X175314787Y-94392802D01*
X175175788Y-94754905D01*
X175075397Y-95129570D01*
X175075397Y-95129572D01*
X175014722Y-95512660D01*
X174994422Y-95899999D01*
X174994422Y-95900000D01*
X175014722Y-96287339D01*
X175049969Y-96509878D01*
X175075398Y-96670433D01*
X175146928Y-96937389D01*
X175175788Y-97045094D01*
X175314787Y-97407197D01*
X175490877Y-97752793D01*
X175702122Y-98078082D01*
X175702124Y-98078084D01*
X175946219Y-98379516D01*
X176220484Y-98653781D01*
X176220488Y-98653784D01*
X176521917Y-98897877D01*
X176847206Y-99109122D01*
X176847211Y-99109125D01*
X176956902Y-99165015D01*
X177007698Y-99212989D01*
X177024493Y-99280810D01*
X177001956Y-99346945D01*
X176947241Y-99390397D01*
X176900607Y-99399500D01*
X114499393Y-99399500D01*
X114432354Y-99379815D01*
X114386599Y-99327011D01*
X114376655Y-99257853D01*
X114405680Y-99194297D01*
X114443098Y-99165015D01*
X114552789Y-99109125D01*
X114878084Y-98897876D01*
X115179516Y-98653781D01*
X115453781Y-98379516D01*
X115697876Y-98078084D01*
X115909125Y-97752789D01*
X116085214Y-97407194D01*
X116224214Y-97045087D01*
X116303283Y-96749996D01*
X143244435Y-96749996D01*
X143244435Y-96750003D01*
X143264630Y-96929249D01*
X143264631Y-96929254D01*
X143324211Y-97099523D01*
X143420184Y-97252262D01*
X143547738Y-97379816D01*
X143700478Y-97475789D01*
X143870745Y-97535368D01*
X143870750Y-97535369D01*
X144049996Y-97555565D01*
X144050000Y-97555565D01*
X144050004Y-97555565D01*
X144229249Y-97535369D01*
X144229252Y-97535368D01*
X144229255Y-97535368D01*
X144399522Y-97475789D01*
X144552262Y-97379816D01*
X144679816Y-97252262D01*
X144775789Y-97099522D01*
X144835368Y-96929255D01*
X144835369Y-96929249D01*
X144855565Y-96750003D01*
X144855565Y-96749996D01*
X144835369Y-96570750D01*
X144835368Y-96570745D01*
X144811592Y-96502797D01*
X144775789Y-96400478D01*
X144775494Y-96400009D01*
X144679815Y-96247737D01*
X144552262Y-96120184D01*
X144399523Y-96024211D01*
X144229254Y-95964631D01*
X144229249Y-95964630D01*
X144050004Y-95944435D01*
X144049996Y-95944435D01*
X143870750Y-95964630D01*
X143870745Y-95964631D01*
X143700476Y-96024211D01*
X143547737Y-96120184D01*
X143420184Y-96247737D01*
X143324211Y-96400476D01*
X143264631Y-96570745D01*
X143264630Y-96570750D01*
X143244435Y-96749996D01*
X116303283Y-96749996D01*
X116324602Y-96670433D01*
X116385278Y-96287338D01*
X116405578Y-95900000D01*
X116385278Y-95512662D01*
X116324602Y-95129567D01*
X116224214Y-94754913D01*
X116085214Y-94392806D01*
X116037918Y-94299983D01*
X151949500Y-94299983D01*
X151949500Y-96400001D01*
X151949501Y-96400018D01*
X151960000Y-96502796D01*
X151960001Y-96502799D01*
X151982518Y-96570750D01*
X152015186Y-96669334D01*
X152107288Y-96818656D01*
X152231344Y-96942712D01*
X152380666Y-97034814D01*
X152547203Y-97089999D01*
X152649991Y-97100500D01*
X154750008Y-97100499D01*
X154759563Y-97099523D01*
X154767895Y-97098671D01*
X154852797Y-97089999D01*
X155019334Y-97034814D01*
X155168656Y-96942712D01*
X155292712Y-96818656D01*
X155384814Y-96669334D01*
X155439999Y-96502797D01*
X155450500Y-96400009D01*
X155450499Y-95349995D01*
X164194732Y-95349995D01*
X164194732Y-95350004D01*
X164213777Y-95604154D01*
X164266262Y-95834108D01*
X164270492Y-95852637D01*
X164363607Y-96089888D01*
X164491041Y-96310612D01*
X164649950Y-96509877D01*
X164836783Y-96683232D01*
X165047366Y-96826805D01*
X165047371Y-96826807D01*
X165047372Y-96826808D01*
X165047373Y-96826809D01*
X165147475Y-96875015D01*
X165276992Y-96937387D01*
X165276993Y-96937387D01*
X165276996Y-96937389D01*
X165520542Y-97012513D01*
X165772565Y-97050500D01*
X166027435Y-97050500D01*
X166279458Y-97012513D01*
X166523004Y-96937389D01*
X166752634Y-96826805D01*
X166963217Y-96683232D01*
X167150050Y-96509877D01*
X167308959Y-96310612D01*
X167436393Y-96089888D01*
X167529508Y-95852637D01*
X167586222Y-95604157D01*
X167605268Y-95350000D01*
X167586222Y-95095843D01*
X167529508Y-94847363D01*
X167436393Y-94610112D01*
X167308959Y-94389388D01*
X167150050Y-94190123D01*
X166963217Y-94016768D01*
X166752634Y-93873195D01*
X166752630Y-93873193D01*
X166752627Y-93873191D01*
X166752626Y-93873190D01*
X166523006Y-93762612D01*
X166523008Y-93762612D01*
X166279466Y-93687489D01*
X166279462Y-93687488D01*
X166279458Y-93687487D01*
X166158231Y-93669214D01*
X166027440Y-93649500D01*
X166027435Y-93649500D01*
X165772565Y-93649500D01*
X165772559Y-93649500D01*
X165615609Y-93673157D01*
X165520542Y-93687487D01*
X165520539Y-93687488D01*
X165520533Y-93687489D01*
X165276992Y-93762612D01*
X165047373Y-93873190D01*
X165047372Y-93873191D01*
X164836782Y-94016768D01*
X164649952Y-94190121D01*
X164649950Y-94190123D01*
X164491041Y-94389388D01*
X164363608Y-94610109D01*
X164270492Y-94847362D01*
X164270490Y-94847369D01*
X164213777Y-95095845D01*
X164194732Y-95349995D01*
X155450499Y-95349995D01*
X155450499Y-94299992D01*
X155439999Y-94197203D01*
X155384814Y-94030666D01*
X155292712Y-93881344D01*
X155168656Y-93757288D01*
X155019334Y-93665186D01*
X154852797Y-93610001D01*
X154852795Y-93610000D01*
X154750010Y-93599500D01*
X152649998Y-93599500D01*
X152649981Y-93599501D01*
X152547203Y-93610000D01*
X152547200Y-93610001D01*
X152380668Y-93665185D01*
X152380663Y-93665187D01*
X152231342Y-93757289D01*
X152107289Y-93881342D01*
X152015187Y-94030663D01*
X152015185Y-94030668D01*
X151992010Y-94100606D01*
X151960001Y-94197203D01*
X151960001Y-94197204D01*
X151960000Y-94197204D01*
X151949500Y-94299983D01*
X116037918Y-94299983D01*
X115909125Y-94047211D01*
X115801410Y-93881344D01*
X115697877Y-93721917D01*
X115453784Y-93420488D01*
X115453781Y-93420484D01*
X115179516Y-93146219D01*
X114878084Y-92902124D01*
X114878082Y-92902122D01*
X114552793Y-92690877D01*
X114207197Y-92514787D01*
X113845094Y-92375788D01*
X113845087Y-92375786D01*
X113470433Y-92275398D01*
X113470429Y-92275397D01*
X113470428Y-92275397D01*
X113087339Y-92214722D01*
X112700001Y-92194422D01*
X112699999Y-92194422D01*
X112312660Y-92214722D01*
X111929572Y-92275397D01*
X111929570Y-92275397D01*
X111554905Y-92375788D01*
X111192802Y-92514787D01*
X110847206Y-92690877D01*
X110521917Y-92902122D01*
X110220488Y-93146215D01*
X110220480Y-93146222D01*
X109946222Y-93420480D01*
X109946215Y-93420488D01*
X109702122Y-93721917D01*
X109490877Y-94047206D01*
X109434985Y-94156901D01*
X109387010Y-94207697D01*
X109319189Y-94224492D01*
X109253054Y-94201955D01*
X109209603Y-94147240D01*
X109200500Y-94100606D01*
X109200500Y-85453977D01*
X110424500Y-85453977D01*
X110424500Y-85627198D01*
X110437614Y-85710001D01*
X110451598Y-85798289D01*
X110505127Y-85963033D01*
X110583768Y-86117376D01*
X110685586Y-86257516D01*
X110808072Y-86380002D01*
X110808078Y-86380006D01*
X110891023Y-86440271D01*
X110933689Y-86495601D01*
X110939667Y-86565214D01*
X110907061Y-86627009D01*
X110891023Y-86640905D01*
X110808078Y-86701169D01*
X110808069Y-86701176D01*
X110685588Y-86823657D01*
X110685588Y-86823658D01*
X110685586Y-86823660D01*
X110653649Y-86867618D01*
X110583768Y-86963799D01*
X110505128Y-87118140D01*
X110451597Y-87282890D01*
X110431329Y-87410858D01*
X110424500Y-87453977D01*
X110424500Y-87627199D01*
X110451598Y-87798289D01*
X110505127Y-87963033D01*
X110583768Y-88117376D01*
X110685586Y-88257516D01*
X110685588Y-88257518D01*
X110793491Y-88365421D01*
X110826976Y-88426744D01*
X110821992Y-88496436D01*
X110780120Y-88552369D01*
X110770907Y-88558641D01*
X110706654Y-88598272D01*
X110582684Y-88722242D01*
X110490643Y-88871463D01*
X110490641Y-88871468D01*
X110435494Y-89037890D01*
X110435493Y-89037897D01*
X110425000Y-89140601D01*
X110425000Y-89290588D01*
X111519670Y-89290588D01*
X111499925Y-89310333D01*
X111450556Y-89395843D01*
X111425000Y-89491218D01*
X111425000Y-89589958D01*
X111450556Y-89685333D01*
X111499925Y-89770843D01*
X111519670Y-89790588D01*
X110425001Y-89790588D01*
X110425001Y-89940574D01*
X110435494Y-90043285D01*
X110490641Y-90209707D01*
X110490643Y-90209712D01*
X110582684Y-90358933D01*
X110706654Y-90482903D01*
X110855875Y-90574944D01*
X110855880Y-90574946D01*
X111022302Y-90630093D01*
X111022309Y-90630094D01*
X111125019Y-90640587D01*
X111549999Y-90640587D01*
X111550000Y-90640586D01*
X111550000Y-89820918D01*
X111569745Y-89840663D01*
X111655255Y-89890032D01*
X111750630Y-89915588D01*
X111849370Y-89915588D01*
X111944745Y-89890032D01*
X112030255Y-89840663D01*
X112050000Y-89820918D01*
X112050000Y-90640587D01*
X112474972Y-90640587D01*
X112474986Y-90640586D01*
X112577697Y-90630093D01*
X112744119Y-90574946D01*
X112744124Y-90574944D01*
X112893345Y-90482903D01*
X113017315Y-90358933D01*
X113109356Y-90209712D01*
X113109358Y-90209707D01*
X113164505Y-90043285D01*
X113164506Y-90043278D01*
X113174999Y-89940574D01*
X113175000Y-89940561D01*
X113175000Y-89790588D01*
X112080330Y-89790588D01*
X112100075Y-89770843D01*
X112149444Y-89685333D01*
X112175000Y-89589958D01*
X112175000Y-89491218D01*
X112149444Y-89395843D01*
X112100075Y-89310333D01*
X112080330Y-89290588D01*
X113174999Y-89290588D01*
X113174999Y-89140616D01*
X113174998Y-89140601D01*
X113164505Y-89037890D01*
X113109358Y-88871468D01*
X113109356Y-88871463D01*
X113017315Y-88722242D01*
X112893343Y-88598270D01*
X112829093Y-88558641D01*
X112782368Y-88506693D01*
X112771145Y-88437731D01*
X112798988Y-88373649D01*
X112806486Y-88365443D01*
X112914414Y-88257516D01*
X113016232Y-88117376D01*
X113094873Y-87963033D01*
X113148402Y-87798289D01*
X113175500Y-87627199D01*
X113175500Y-87453977D01*
X113148402Y-87282887D01*
X113094873Y-87118143D01*
X113016232Y-86963800D01*
X112914414Y-86823660D01*
X112791928Y-86701174D01*
X112708975Y-86640905D01*
X112666311Y-86585576D01*
X112660332Y-86515962D01*
X112692938Y-86454167D01*
X112708976Y-86440270D01*
X112791928Y-86380002D01*
X112914414Y-86257516D01*
X113016232Y-86117376D01*
X113094873Y-85963033D01*
X113148402Y-85798289D01*
X113175500Y-85627199D01*
X113175500Y-85453977D01*
X113148402Y-85282887D01*
X113094873Y-85118143D01*
X113016232Y-84963800D01*
X112914414Y-84823660D01*
X112791928Y-84701174D01*
X112651788Y-84599356D01*
X112497445Y-84520715D01*
X112332701Y-84467186D01*
X112332699Y-84467185D01*
X112332698Y-84467185D01*
X112201271Y-84446369D01*
X112161611Y-84440088D01*
X111438389Y-84440088D01*
X111398728Y-84446369D01*
X111267302Y-84467185D01*
X111102552Y-84520716D01*
X110948211Y-84599356D01*
X110868256Y-84657447D01*
X110808072Y-84701174D01*
X110808070Y-84701176D01*
X110808069Y-84701176D01*
X110685588Y-84823657D01*
X110685588Y-84823658D01*
X110685586Y-84823660D01*
X110651295Y-84870858D01*
X110583768Y-84963799D01*
X110505128Y-85118140D01*
X110451597Y-85282890D01*
X110424500Y-85453977D01*
X109200500Y-85453977D01*
X109200500Y-76394566D01*
X110424500Y-76394566D01*
X110424500Y-76567787D01*
X110442362Y-76680568D01*
X110451598Y-76738878D01*
X110505127Y-76903622D01*
X110583768Y-77057965D01*
X110685586Y-77198105D01*
X110808072Y-77320591D01*
X110808078Y-77320595D01*
X110891023Y-77380860D01*
X110933689Y-77436190D01*
X110939667Y-77505803D01*
X110907061Y-77567598D01*
X110891023Y-77581494D01*
X110808078Y-77641758D01*
X110808069Y-77641765D01*
X110685588Y-77764246D01*
X110685588Y-77764247D01*
X110685586Y-77764249D01*
X110641859Y-77824433D01*
X110583768Y-77904388D01*
X110505128Y-78058729D01*
X110451597Y-78223479D01*
X110439481Y-78299981D01*
X110424500Y-78394566D01*
X110424500Y-78567788D01*
X110451598Y-78738878D01*
X110505127Y-78903622D01*
X110583768Y-79057965D01*
X110685586Y-79198105D01*
X110685588Y-79198107D01*
X110793491Y-79306010D01*
X110826976Y-79367333D01*
X110821992Y-79437025D01*
X110780120Y-79492958D01*
X110770907Y-79499230D01*
X110706654Y-79538861D01*
X110582684Y-79662831D01*
X110490643Y-79812052D01*
X110490641Y-79812057D01*
X110435494Y-79978479D01*
X110435493Y-79978486D01*
X110425000Y-80081190D01*
X110425000Y-80231177D01*
X111519670Y-80231177D01*
X111499925Y-80250922D01*
X111450556Y-80336432D01*
X111425000Y-80431807D01*
X111425000Y-80530547D01*
X111450556Y-80625922D01*
X111499925Y-80711432D01*
X111519670Y-80731177D01*
X110425001Y-80731177D01*
X110425001Y-80881163D01*
X110435494Y-80983874D01*
X110490641Y-81150296D01*
X110490643Y-81150301D01*
X110582684Y-81299522D01*
X110706654Y-81423492D01*
X110855875Y-81515533D01*
X110855880Y-81515535D01*
X111022302Y-81570682D01*
X111022309Y-81570683D01*
X111125019Y-81581176D01*
X111549999Y-81581176D01*
X111550000Y-81581175D01*
X111550000Y-80761507D01*
X111569745Y-80781252D01*
X111655255Y-80830621D01*
X111750630Y-80856177D01*
X111849370Y-80856177D01*
X111944745Y-80830621D01*
X112030255Y-80781252D01*
X112050000Y-80761507D01*
X112050000Y-81581176D01*
X112474972Y-81581176D01*
X112474986Y-81581175D01*
X112577697Y-81570682D01*
X112744119Y-81515535D01*
X112744124Y-81515533D01*
X112893345Y-81423492D01*
X113017315Y-81299522D01*
X113109356Y-81150301D01*
X113109358Y-81150296D01*
X113164505Y-80983874D01*
X113164506Y-80983867D01*
X113174999Y-80881163D01*
X113175000Y-80881150D01*
X113175000Y-80731177D01*
X112080330Y-80731177D01*
X112100075Y-80711432D01*
X112149444Y-80625922D01*
X112175000Y-80530547D01*
X112175000Y-80431807D01*
X112149444Y-80336432D01*
X112100075Y-80250922D01*
X112080330Y-80231177D01*
X113174999Y-80231177D01*
X113174999Y-80081205D01*
X113174998Y-80081190D01*
X113164505Y-79978479D01*
X113109358Y-79812057D01*
X113109356Y-79812052D01*
X113017315Y-79662831D01*
X112893343Y-79538859D01*
X112829093Y-79499230D01*
X112782368Y-79447282D01*
X112771145Y-79378320D01*
X112798988Y-79314238D01*
X112806486Y-79306032D01*
X112914414Y-79198105D01*
X113016232Y-79057965D01*
X113094873Y-78903622D01*
X113148402Y-78738878D01*
X113175500Y-78567788D01*
X113175500Y-78394566D01*
X113148402Y-78223476D01*
X113094873Y-78058732D01*
X113016232Y-77904389D01*
X112914414Y-77764249D01*
X112791928Y-77641763D01*
X112708975Y-77581494D01*
X112666311Y-77526165D01*
X112660332Y-77456551D01*
X112692938Y-77394756D01*
X112708976Y-77380859D01*
X112791928Y-77320591D01*
X112914414Y-77198105D01*
X113016232Y-77057965D01*
X113094873Y-76903622D01*
X113148402Y-76738878D01*
X113175500Y-76567788D01*
X113175500Y-76394566D01*
X113148402Y-76223476D01*
X113094873Y-76058732D01*
X113016232Y-75904389D01*
X112914414Y-75764249D01*
X112791928Y-75641763D01*
X112651788Y-75539945D01*
X112497445Y-75461304D01*
X112332701Y-75407775D01*
X112332699Y-75407774D01*
X112332698Y-75407774D01*
X112201271Y-75386958D01*
X112161611Y-75380677D01*
X111438389Y-75380677D01*
X111398728Y-75386958D01*
X111267302Y-75407774D01*
X111102552Y-75461305D01*
X110948211Y-75539945D01*
X110868256Y-75598036D01*
X110808072Y-75641763D01*
X110808070Y-75641765D01*
X110808069Y-75641765D01*
X110685588Y-75764246D01*
X110685588Y-75764247D01*
X110685586Y-75764249D01*
X110676550Y-75776686D01*
X110583768Y-75904388D01*
X110505128Y-76058729D01*
X110451597Y-76223479D01*
X110424500Y-76394566D01*
X109200500Y-76394566D01*
X109200500Y-67335155D01*
X110424500Y-67335155D01*
X110424500Y-67508376D01*
X110439669Y-67604154D01*
X110451598Y-67679467D01*
X110505127Y-67844211D01*
X110583768Y-67998554D01*
X110685586Y-68138694D01*
X110808072Y-68261180D01*
X110808078Y-68261184D01*
X110891023Y-68321449D01*
X110933689Y-68376779D01*
X110939667Y-68446392D01*
X110907061Y-68508187D01*
X110891023Y-68522083D01*
X110808078Y-68582347D01*
X110808069Y-68582354D01*
X110685588Y-68704835D01*
X110685588Y-68704836D01*
X110685586Y-68704838D01*
X110641859Y-68765022D01*
X110583768Y-68844977D01*
X110505128Y-68999318D01*
X110451597Y-69164068D01*
X110424500Y-69335155D01*
X110424500Y-69508376D01*
X110443899Y-69630861D01*
X110451598Y-69679467D01*
X110505127Y-69844211D01*
X110583768Y-69998554D01*
X110685586Y-70138694D01*
X110685588Y-70138696D01*
X110793491Y-70246599D01*
X110826976Y-70307922D01*
X110821992Y-70377614D01*
X110780120Y-70433547D01*
X110770907Y-70439819D01*
X110706654Y-70479450D01*
X110582684Y-70603420D01*
X110490643Y-70752641D01*
X110490641Y-70752646D01*
X110435494Y-70919068D01*
X110435493Y-70919075D01*
X110425000Y-71021779D01*
X110425000Y-71171766D01*
X111519670Y-71171766D01*
X111499925Y-71191511D01*
X111450556Y-71277021D01*
X111425000Y-71372396D01*
X111425000Y-71471136D01*
X111450556Y-71566511D01*
X111499925Y-71652021D01*
X111519670Y-71671766D01*
X110425001Y-71671766D01*
X110425001Y-71821752D01*
X110435494Y-71924463D01*
X110490641Y-72090885D01*
X110490643Y-72090890D01*
X110582684Y-72240111D01*
X110706654Y-72364081D01*
X110855875Y-72456122D01*
X110855880Y-72456124D01*
X111022302Y-72511271D01*
X111022309Y-72511272D01*
X111125019Y-72521765D01*
X111549999Y-72521765D01*
X111550000Y-72521764D01*
X111550000Y-71702096D01*
X111569745Y-71721841D01*
X111655255Y-71771210D01*
X111750630Y-71796766D01*
X111849370Y-71796766D01*
X111944745Y-71771210D01*
X112030255Y-71721841D01*
X112050000Y-71702096D01*
X112050000Y-72521765D01*
X112474972Y-72521765D01*
X112474986Y-72521764D01*
X112577697Y-72511271D01*
X112744119Y-72456124D01*
X112744124Y-72456122D01*
X112893345Y-72364081D01*
X113017315Y-72240111D01*
X113109356Y-72090890D01*
X113109358Y-72090885D01*
X113164505Y-71924463D01*
X113164506Y-71924456D01*
X113174999Y-71821752D01*
X113175000Y-71821739D01*
X113175000Y-71671766D01*
X112080330Y-71671766D01*
X112100075Y-71652021D01*
X112149444Y-71566511D01*
X112175000Y-71471136D01*
X112175000Y-71372396D01*
X112149444Y-71277021D01*
X112100075Y-71191511D01*
X112080330Y-71171766D01*
X113174999Y-71171766D01*
X113174999Y-71021794D01*
X113174998Y-71021779D01*
X113164505Y-70919068D01*
X113109358Y-70752646D01*
X113109356Y-70752641D01*
X113017315Y-70603420D01*
X112893343Y-70479448D01*
X112829093Y-70439819D01*
X112782368Y-70387871D01*
X112771145Y-70318909D01*
X112798988Y-70254827D01*
X112806486Y-70246621D01*
X112914414Y-70138694D01*
X113016232Y-69998554D01*
X113094873Y-69844211D01*
X113148402Y-69679467D01*
X113175500Y-69508377D01*
X113175500Y-69335155D01*
X113148402Y-69164065D01*
X113094873Y-68999321D01*
X113016232Y-68844978D01*
X112914414Y-68704838D01*
X112791928Y-68582352D01*
X112708975Y-68522083D01*
X112666311Y-68466754D01*
X112660332Y-68397140D01*
X112692938Y-68335345D01*
X112708976Y-68321448D01*
X112791928Y-68261180D01*
X112914414Y-68138694D01*
X113016232Y-67998554D01*
X113094873Y-67844211D01*
X113148402Y-67679467D01*
X113175500Y-67508377D01*
X113175500Y-67335155D01*
X113148402Y-67164065D01*
X113094873Y-66999321D01*
X113016232Y-66844978D01*
X112914414Y-66704838D01*
X112791928Y-66582352D01*
X112651788Y-66480534D01*
X112497445Y-66401893D01*
X112332701Y-66348364D01*
X112332699Y-66348363D01*
X112332698Y-66348363D01*
X112201271Y-66327547D01*
X112161611Y-66321266D01*
X111438389Y-66321266D01*
X111398728Y-66327547D01*
X111267302Y-66348363D01*
X111102552Y-66401894D01*
X110948211Y-66480534D01*
X110893111Y-66520567D01*
X110808072Y-66582352D01*
X110808070Y-66582354D01*
X110808069Y-66582354D01*
X110685588Y-66704835D01*
X110685588Y-66704836D01*
X110685586Y-66704838D01*
X110668856Y-66727865D01*
X110583768Y-66844977D01*
X110505128Y-66999318D01*
X110451597Y-67164068D01*
X110424500Y-67335155D01*
X109200500Y-67335155D01*
X109200500Y-58275744D01*
X110424500Y-58275744D01*
X110424500Y-58448966D01*
X110451598Y-58620056D01*
X110505127Y-58784800D01*
X110583768Y-58939143D01*
X110685586Y-59079283D01*
X110808072Y-59201769D01*
X110808078Y-59201773D01*
X110891023Y-59262038D01*
X110933689Y-59317368D01*
X110939667Y-59386981D01*
X110907061Y-59448776D01*
X110891023Y-59462672D01*
X110808078Y-59522936D01*
X110808069Y-59522943D01*
X110685588Y-59645424D01*
X110685588Y-59645425D01*
X110685586Y-59645427D01*
X110641859Y-59705611D01*
X110583768Y-59785566D01*
X110505128Y-59939907D01*
X110451597Y-60104657D01*
X110424500Y-60275744D01*
X110424500Y-60448966D01*
X110451598Y-60620056D01*
X110505127Y-60784800D01*
X110583768Y-60939143D01*
X110685586Y-61079283D01*
X110685588Y-61079285D01*
X110793491Y-61187188D01*
X110826976Y-61248511D01*
X110821992Y-61318203D01*
X110780120Y-61374136D01*
X110770907Y-61380408D01*
X110706654Y-61420039D01*
X110582684Y-61544009D01*
X110490643Y-61693230D01*
X110490641Y-61693235D01*
X110435494Y-61859657D01*
X110435493Y-61859664D01*
X110425000Y-61962368D01*
X110425000Y-62112355D01*
X111519670Y-62112355D01*
X111499925Y-62132100D01*
X111450556Y-62217610D01*
X111425000Y-62312985D01*
X111425000Y-62411725D01*
X111450556Y-62507100D01*
X111499925Y-62592610D01*
X111519670Y-62612355D01*
X110425001Y-62612355D01*
X110425001Y-62762341D01*
X110435494Y-62865052D01*
X110490641Y-63031474D01*
X110490643Y-63031479D01*
X110582684Y-63180700D01*
X110706654Y-63304670D01*
X110855875Y-63396711D01*
X110855880Y-63396713D01*
X111022302Y-63451860D01*
X111022309Y-63451861D01*
X111125019Y-63462354D01*
X111549999Y-63462354D01*
X111550000Y-63462353D01*
X111550000Y-62642685D01*
X111569745Y-62662430D01*
X111655255Y-62711799D01*
X111750630Y-62737355D01*
X111849370Y-62737355D01*
X111944745Y-62711799D01*
X112030255Y-62662430D01*
X112050000Y-62642685D01*
X112050000Y-63462354D01*
X112474972Y-63462354D01*
X112474986Y-63462353D01*
X112577697Y-63451860D01*
X112744119Y-63396713D01*
X112744124Y-63396711D01*
X112893345Y-63304670D01*
X113017315Y-63180700D01*
X113109356Y-63031479D01*
X113109358Y-63031474D01*
X113164505Y-62865052D01*
X113164506Y-62865045D01*
X113174999Y-62762341D01*
X113175000Y-62762328D01*
X113175000Y-62612355D01*
X112080330Y-62612355D01*
X112100075Y-62592610D01*
X112149444Y-62507100D01*
X112175000Y-62411725D01*
X112175000Y-62312985D01*
X112149444Y-62217610D01*
X112100075Y-62132100D01*
X112080330Y-62112355D01*
X113174999Y-62112355D01*
X113174999Y-61962383D01*
X113174998Y-61962368D01*
X113164505Y-61859657D01*
X113109358Y-61693235D01*
X113109356Y-61693230D01*
X113017315Y-61544009D01*
X112893343Y-61420037D01*
X112829093Y-61380408D01*
X112782368Y-61328460D01*
X112771145Y-61259498D01*
X112798988Y-61195416D01*
X112806486Y-61187210D01*
X112914414Y-61079283D01*
X113016232Y-60939143D01*
X113094873Y-60784800D01*
X113148402Y-60620056D01*
X113175500Y-60448966D01*
X113175500Y-60275744D01*
X113148402Y-60104654D01*
X113094873Y-59939910D01*
X113016232Y-59785567D01*
X112914414Y-59645427D01*
X112791928Y-59522941D01*
X112708975Y-59462672D01*
X112666311Y-59407343D01*
X112660332Y-59337729D01*
X112692938Y-59275934D01*
X112708976Y-59262037D01*
X112791928Y-59201769D01*
X112914414Y-59079283D01*
X113016232Y-58939143D01*
X113094873Y-58784800D01*
X113148402Y-58620056D01*
X113175500Y-58448966D01*
X113175500Y-58275744D01*
X113148402Y-58104654D01*
X113094873Y-57939910D01*
X113016232Y-57785567D01*
X112914414Y-57645427D01*
X112791928Y-57522941D01*
X112651788Y-57421123D01*
X112497445Y-57342482D01*
X112332701Y-57288953D01*
X112332699Y-57288952D01*
X112332698Y-57288952D01*
X112201271Y-57268136D01*
X112161611Y-57261855D01*
X111438389Y-57261855D01*
X111398728Y-57268136D01*
X111267302Y-57288952D01*
X111102552Y-57342483D01*
X110948211Y-57421123D01*
X110890583Y-57462993D01*
X110808072Y-57522941D01*
X110808070Y-57522943D01*
X110808069Y-57522943D01*
X110685588Y-57645424D01*
X110685588Y-57645425D01*
X110685586Y-57645427D01*
X110683908Y-57647737D01*
X110583768Y-57785566D01*
X110505128Y-57939907D01*
X110451597Y-58104657D01*
X110433912Y-58216317D01*
X110424500Y-58275744D01*
X109200500Y-58275744D01*
X109200500Y-53699393D01*
X109220185Y-53632354D01*
X109272989Y-53586599D01*
X109342147Y-53576655D01*
X109405703Y-53605680D01*
X109434984Y-53643097D01*
X109471432Y-53714630D01*
X109490877Y-53752793D01*
X109702122Y-54078082D01*
X109789833Y-54186396D01*
X109946219Y-54379516D01*
X110220484Y-54653781D01*
X110260981Y-54686575D01*
X110521917Y-54897877D01*
X110847206Y-55109122D01*
X110847211Y-55109125D01*
X111192806Y-55285214D01*
X111554913Y-55424214D01*
X111929567Y-55524602D01*
X112312662Y-55585278D01*
X112678576Y-55604455D01*
X112699999Y-55605578D01*
X112700000Y-55605578D01*
X112700001Y-55605578D01*
X112720301Y-55604514D01*
X113087338Y-55585278D01*
X113470433Y-55524602D01*
X113845087Y-55424214D01*
X114207194Y-55285214D01*
X114315562Y-55229998D01*
X120793032Y-55229998D01*
X120793032Y-55230001D01*
X120812864Y-55456686D01*
X120812866Y-55456697D01*
X120871758Y-55676488D01*
X120871761Y-55676497D01*
X120967931Y-55882732D01*
X120967932Y-55882734D01*
X121098454Y-56069141D01*
X121259358Y-56230045D01*
X121259361Y-56230047D01*
X121445766Y-56360568D01*
X121504365Y-56387893D01*
X121556805Y-56434065D01*
X121575957Y-56501258D01*
X121555742Y-56568139D01*
X121504367Y-56612657D01*
X121446015Y-56639867D01*
X121259679Y-56770342D01*
X121098842Y-56931179D01*
X120968365Y-57117517D01*
X120872234Y-57323673D01*
X120872230Y-57323682D01*
X120819627Y-57519999D01*
X120819628Y-57520000D01*
X121665488Y-57520000D01*
X121632575Y-57577007D01*
X121598500Y-57704174D01*
X121598500Y-57835826D01*
X121632575Y-57962993D01*
X121665488Y-58020000D01*
X120819628Y-58020000D01*
X120872230Y-58216317D01*
X120872234Y-58216326D01*
X120968365Y-58422482D01*
X121098842Y-58608820D01*
X121259679Y-58769657D01*
X121446018Y-58900134D01*
X121446020Y-58900135D01*
X121504365Y-58927342D01*
X121556805Y-58973514D01*
X121575957Y-59040707D01*
X121555742Y-59107589D01*
X121504367Y-59152105D01*
X121445768Y-59179431D01*
X121445764Y-59179433D01*
X121259358Y-59309954D01*
X121098454Y-59470858D01*
X120967932Y-59657265D01*
X120967931Y-59657267D01*
X120871761Y-59863502D01*
X120871758Y-59863511D01*
X120812866Y-60083302D01*
X120812864Y-60083313D01*
X120793032Y-60309998D01*
X120793032Y-60310001D01*
X120812864Y-60536686D01*
X120812866Y-60536697D01*
X120871758Y-60756488D01*
X120871761Y-60756497D01*
X120967931Y-60962732D01*
X120967932Y-60962734D01*
X121098454Y-61149141D01*
X121259358Y-61310045D01*
X121259361Y-61310047D01*
X121445766Y-61440568D01*
X121503775Y-61467618D01*
X121556214Y-61513791D01*
X121575366Y-61580984D01*
X121555150Y-61647865D01*
X121503775Y-61692381D01*
X121486772Y-61700310D01*
X121445767Y-61719431D01*
X121445765Y-61719432D01*
X121259358Y-61849954D01*
X121098454Y-62010858D01*
X120967932Y-62197265D01*
X120967931Y-62197267D01*
X120871761Y-62403502D01*
X120871758Y-62403511D01*
X120812866Y-62623302D01*
X120812864Y-62623313D01*
X120793032Y-62849998D01*
X120793032Y-62850001D01*
X120812864Y-63076686D01*
X120812866Y-63076697D01*
X120871758Y-63296488D01*
X120871761Y-63296497D01*
X120967931Y-63502732D01*
X120967932Y-63502734D01*
X121098454Y-63689141D01*
X121259358Y-63850045D01*
X121259361Y-63850047D01*
X121445766Y-63980568D01*
X121503775Y-64007618D01*
X121556214Y-64053791D01*
X121575366Y-64120984D01*
X121555150Y-64187865D01*
X121503775Y-64232382D01*
X121445767Y-64259431D01*
X121445765Y-64259432D01*
X121259358Y-64389954D01*
X121098454Y-64550858D01*
X120967932Y-64737265D01*
X120967931Y-64737267D01*
X120871761Y-64943502D01*
X120871758Y-64943511D01*
X120812866Y-65163302D01*
X120812864Y-65163313D01*
X120793032Y-65389998D01*
X120793032Y-65390001D01*
X120812864Y-65616686D01*
X120812866Y-65616697D01*
X120871758Y-65836488D01*
X120871761Y-65836497D01*
X120967931Y-66042732D01*
X120967932Y-66042734D01*
X121098454Y-66229141D01*
X121259358Y-66390045D01*
X121259361Y-66390047D01*
X121445766Y-66520568D01*
X121503775Y-66547618D01*
X121556214Y-66593791D01*
X121575366Y-66660984D01*
X121555150Y-66727865D01*
X121503775Y-66772382D01*
X121445767Y-66799431D01*
X121445765Y-66799432D01*
X121259358Y-66929954D01*
X121098454Y-67090858D01*
X120967932Y-67277265D01*
X120967931Y-67277267D01*
X120871761Y-67483502D01*
X120871758Y-67483511D01*
X120812866Y-67703302D01*
X120812864Y-67703313D01*
X120793032Y-67929998D01*
X120793032Y-67930001D01*
X120812864Y-68156686D01*
X120812866Y-68156697D01*
X120871758Y-68376488D01*
X120871761Y-68376497D01*
X120967931Y-68582732D01*
X120967932Y-68582734D01*
X121098454Y-68769141D01*
X121259358Y-68930045D01*
X121306193Y-68962839D01*
X121445766Y-69060568D01*
X121503775Y-69087618D01*
X121556214Y-69133791D01*
X121575366Y-69200984D01*
X121555150Y-69267865D01*
X121503775Y-69312382D01*
X121445767Y-69339431D01*
X121445765Y-69339432D01*
X121259358Y-69469954D01*
X121098454Y-69630858D01*
X120967932Y-69817265D01*
X120967931Y-69817267D01*
X120871761Y-70023502D01*
X120871758Y-70023511D01*
X120812866Y-70243302D01*
X120812864Y-70243313D01*
X120793032Y-70469998D01*
X120793032Y-70470001D01*
X120812864Y-70696686D01*
X120812866Y-70696697D01*
X120871758Y-70916488D01*
X120871761Y-70916497D01*
X120967931Y-71122732D01*
X120967932Y-71122734D01*
X121098454Y-71309141D01*
X121259358Y-71470045D01*
X121259361Y-71470047D01*
X121445766Y-71600568D01*
X121503775Y-71627618D01*
X121556214Y-71673791D01*
X121575366Y-71740984D01*
X121555150Y-71807865D01*
X121503775Y-71852382D01*
X121445767Y-71879431D01*
X121445765Y-71879432D01*
X121259358Y-72009954D01*
X121098454Y-72170858D01*
X120967932Y-72357265D01*
X120967931Y-72357267D01*
X120871761Y-72563502D01*
X120871758Y-72563511D01*
X120812866Y-72783302D01*
X120812864Y-72783313D01*
X120793032Y-73009998D01*
X120793032Y-73010001D01*
X120812864Y-73236686D01*
X120812866Y-73236697D01*
X120871758Y-73456488D01*
X120871761Y-73456497D01*
X120967931Y-73662732D01*
X120967932Y-73662734D01*
X121098454Y-73849141D01*
X121259358Y-74010045D01*
X121259361Y-74010047D01*
X121445766Y-74140568D01*
X121501609Y-74166608D01*
X121503775Y-74167618D01*
X121556214Y-74213791D01*
X121575366Y-74280984D01*
X121555150Y-74347865D01*
X121503775Y-74392382D01*
X121445767Y-74419431D01*
X121445765Y-74419432D01*
X121259358Y-74549954D01*
X121098454Y-74710858D01*
X120967932Y-74897265D01*
X120967931Y-74897267D01*
X120871761Y-75103502D01*
X120871758Y-75103511D01*
X120812866Y-75323302D01*
X120812864Y-75323313D01*
X120793032Y-75549998D01*
X120793032Y-75550001D01*
X120812864Y-75776686D01*
X120812866Y-75776697D01*
X120871758Y-75996488D01*
X120871761Y-75996497D01*
X120967931Y-76202732D01*
X120967932Y-76202734D01*
X121098454Y-76389141D01*
X121259358Y-76550045D01*
X121259361Y-76550047D01*
X121445766Y-76680568D01*
X121503775Y-76707618D01*
X121556214Y-76753791D01*
X121575366Y-76820984D01*
X121555150Y-76887865D01*
X121503775Y-76932382D01*
X121445767Y-76959431D01*
X121445765Y-76959432D01*
X121259358Y-77089954D01*
X121098454Y-77250858D01*
X120967932Y-77437265D01*
X120967931Y-77437267D01*
X120871761Y-77643502D01*
X120871758Y-77643511D01*
X120812866Y-77863302D01*
X120812864Y-77863313D01*
X120793032Y-78089998D01*
X120793032Y-78090001D01*
X120812864Y-78316686D01*
X120812866Y-78316697D01*
X120871758Y-78536488D01*
X120871761Y-78536497D01*
X120967931Y-78742732D01*
X120967932Y-78742734D01*
X121098454Y-78929141D01*
X121259358Y-79090045D01*
X121259361Y-79090047D01*
X121445766Y-79220568D01*
X121503775Y-79247618D01*
X121556214Y-79293791D01*
X121575366Y-79360984D01*
X121555150Y-79427865D01*
X121503775Y-79472382D01*
X121445767Y-79499431D01*
X121445765Y-79499432D01*
X121259358Y-79629954D01*
X121098454Y-79790858D01*
X120967932Y-79977265D01*
X120967931Y-79977267D01*
X120871761Y-80183502D01*
X120871758Y-80183511D01*
X120812866Y-80403302D01*
X120812864Y-80403313D01*
X120793032Y-80629998D01*
X120793032Y-80630001D01*
X120812864Y-80856686D01*
X120812866Y-80856697D01*
X120871758Y-81076488D01*
X120871761Y-81076497D01*
X120967931Y-81282732D01*
X120967932Y-81282734D01*
X121098454Y-81469141D01*
X121259358Y-81630045D01*
X121287143Y-81649500D01*
X121445766Y-81760568D01*
X121503775Y-81787618D01*
X121556214Y-81833791D01*
X121575366Y-81900984D01*
X121555150Y-81967865D01*
X121503775Y-82012382D01*
X121445767Y-82039431D01*
X121445765Y-82039432D01*
X121259358Y-82169954D01*
X121098454Y-82330858D01*
X120967932Y-82517265D01*
X120967931Y-82517267D01*
X120871761Y-82723502D01*
X120871758Y-82723511D01*
X120812866Y-82943302D01*
X120812864Y-82943313D01*
X120793032Y-83169998D01*
X120793032Y-83170001D01*
X120812864Y-83396686D01*
X120812866Y-83396697D01*
X120871758Y-83616488D01*
X120871761Y-83616497D01*
X120967931Y-83822732D01*
X120967932Y-83822734D01*
X121098454Y-84009141D01*
X121259358Y-84170045D01*
X121300182Y-84198630D01*
X121445766Y-84300568D01*
X121503775Y-84327618D01*
X121556214Y-84373791D01*
X121575366Y-84440984D01*
X121555150Y-84507865D01*
X121503775Y-84552382D01*
X121445767Y-84579431D01*
X121445765Y-84579432D01*
X121259358Y-84709954D01*
X121098454Y-84870858D01*
X120967932Y-85057265D01*
X120967931Y-85057267D01*
X120871761Y-85263502D01*
X120871758Y-85263511D01*
X120812866Y-85483302D01*
X120812864Y-85483313D01*
X120793032Y-85709998D01*
X120793032Y-85710001D01*
X120812864Y-85936686D01*
X120812866Y-85936697D01*
X120871758Y-86156488D01*
X120871761Y-86156497D01*
X120967931Y-86362732D01*
X120967932Y-86362734D01*
X121098454Y-86549141D01*
X121259358Y-86710045D01*
X121306193Y-86742839D01*
X121445766Y-86840568D01*
X121503775Y-86867618D01*
X121556214Y-86913791D01*
X121575366Y-86980984D01*
X121555150Y-87047865D01*
X121503775Y-87092382D01*
X121445767Y-87119431D01*
X121445765Y-87119432D01*
X121259358Y-87249954D01*
X121098454Y-87410858D01*
X120967932Y-87597265D01*
X120967931Y-87597267D01*
X120871761Y-87803502D01*
X120871758Y-87803511D01*
X120812866Y-88023302D01*
X120812864Y-88023313D01*
X120793032Y-88249998D01*
X120793032Y-88250001D01*
X120812864Y-88476686D01*
X120812866Y-88476697D01*
X120871758Y-88696488D01*
X120871761Y-88696497D01*
X120967931Y-88902732D01*
X120967932Y-88902734D01*
X121098454Y-89089141D01*
X121259358Y-89250045D01*
X121299414Y-89278092D01*
X121445766Y-89380568D01*
X121503775Y-89407618D01*
X121556214Y-89453791D01*
X121575366Y-89520984D01*
X121555150Y-89587865D01*
X121503775Y-89632381D01*
X121503618Y-89632455D01*
X121445767Y-89659431D01*
X121445765Y-89659432D01*
X121259358Y-89789954D01*
X121098454Y-89950858D01*
X120967932Y-90137265D01*
X120967931Y-90137267D01*
X120871761Y-90343502D01*
X120871758Y-90343511D01*
X120812866Y-90563302D01*
X120812864Y-90563313D01*
X120793032Y-90789998D01*
X120793032Y-90790001D01*
X120812864Y-91016686D01*
X120812866Y-91016697D01*
X120871758Y-91236488D01*
X120871761Y-91236497D01*
X120967931Y-91442732D01*
X120967932Y-91442734D01*
X121098454Y-91629141D01*
X121259358Y-91790045D01*
X121259361Y-91790047D01*
X121445766Y-91920568D01*
X121652004Y-92016739D01*
X121871808Y-92075635D01*
X122033730Y-92089801D01*
X122098498Y-92095468D01*
X122098500Y-92095468D01*
X122098502Y-92095468D01*
X122155307Y-92090498D01*
X122325192Y-92075635D01*
X122544996Y-92016739D01*
X122751234Y-91920568D01*
X122937639Y-91790047D01*
X123098547Y-91629139D01*
X123229068Y-91442734D01*
X123325239Y-91236496D01*
X123384135Y-91016692D01*
X123403968Y-90790000D01*
X123384135Y-90563308D01*
X123325239Y-90343504D01*
X123229068Y-90137266D01*
X123098547Y-89950861D01*
X123098545Y-89950858D01*
X122937641Y-89789954D01*
X122751234Y-89659432D01*
X122751228Y-89659429D01*
X122693382Y-89632455D01*
X122693224Y-89632381D01*
X122640785Y-89586210D01*
X122621633Y-89519017D01*
X122641848Y-89452135D01*
X122693225Y-89407618D01*
X122751234Y-89380568D01*
X122937639Y-89250047D01*
X123098547Y-89089139D01*
X123229068Y-88902734D01*
X123325239Y-88696496D01*
X123384135Y-88476692D01*
X123403310Y-88257517D01*
X123403968Y-88250001D01*
X123403968Y-88249998D01*
X123384135Y-88023313D01*
X123384135Y-88023308D01*
X123325239Y-87803504D01*
X123229068Y-87597266D01*
X123098547Y-87410861D01*
X123098545Y-87410858D01*
X122937641Y-87249954D01*
X122751234Y-87119432D01*
X122751228Y-87119429D01*
X122693225Y-87092382D01*
X122640785Y-87046210D01*
X122621633Y-86979017D01*
X122641848Y-86912135D01*
X122693225Y-86867618D01*
X122751234Y-86840568D01*
X122937639Y-86710047D01*
X123098547Y-86549139D01*
X123229068Y-86362734D01*
X123325239Y-86156496D01*
X123384135Y-85936692D01*
X123403968Y-85710000D01*
X123384135Y-85483308D01*
X123339416Y-85316415D01*
X123325241Y-85263511D01*
X123325238Y-85263502D01*
X123291979Y-85192179D01*
X123229068Y-85057266D01*
X123098547Y-84870861D01*
X123098545Y-84870858D01*
X122937641Y-84709954D01*
X122751234Y-84579432D01*
X122751228Y-84579429D01*
X122693225Y-84552382D01*
X122640785Y-84506210D01*
X122621633Y-84439017D01*
X122641848Y-84372135D01*
X122693225Y-84327618D01*
X122751234Y-84300568D01*
X122937639Y-84170047D01*
X123098547Y-84009139D01*
X123229068Y-83822734D01*
X123325239Y-83616496D01*
X123384135Y-83396692D01*
X123403968Y-83170000D01*
X123384135Y-82943308D01*
X123325239Y-82723504D01*
X123229068Y-82517266D01*
X123098547Y-82330861D01*
X123098545Y-82330858D01*
X122937641Y-82169954D01*
X122751234Y-82039432D01*
X122751228Y-82039429D01*
X122693225Y-82012382D01*
X122640785Y-81966210D01*
X122621633Y-81899017D01*
X122641848Y-81832135D01*
X122693225Y-81787618D01*
X122751234Y-81760568D01*
X122937639Y-81630047D01*
X123098547Y-81469139D01*
X123229068Y-81282734D01*
X123325239Y-81076496D01*
X123384135Y-80856692D01*
X123403968Y-80630000D01*
X123384135Y-80403308D01*
X123325239Y-80183504D01*
X123229068Y-79977266D01*
X123131339Y-79837693D01*
X123098545Y-79790858D01*
X122937641Y-79629954D01*
X122751234Y-79499432D01*
X122751228Y-79499429D01*
X122693225Y-79472382D01*
X122640785Y-79426210D01*
X122621633Y-79359017D01*
X122641848Y-79292135D01*
X122693225Y-79247618D01*
X122751234Y-79220568D01*
X122937639Y-79090047D01*
X123098547Y-78929139D01*
X123229068Y-78742734D01*
X123325239Y-78536496D01*
X123384135Y-78316692D01*
X123403968Y-78090000D01*
X123384135Y-77863308D01*
X123325239Y-77643504D01*
X123229068Y-77437266D01*
X123098547Y-77250861D01*
X123098545Y-77250858D01*
X122937641Y-77089954D01*
X122751234Y-76959432D01*
X122751228Y-76959429D01*
X122693225Y-76932382D01*
X122640785Y-76886210D01*
X122621633Y-76819017D01*
X122641848Y-76752135D01*
X122693225Y-76707618D01*
X122751234Y-76680568D01*
X122937639Y-76550047D01*
X123098547Y-76389139D01*
X123229068Y-76202734D01*
X123325239Y-75996496D01*
X123384135Y-75776692D01*
X123403968Y-75550000D01*
X123384135Y-75323308D01*
X123325239Y-75103504D01*
X123229068Y-74897266D01*
X123099553Y-74712298D01*
X123098545Y-74710858D01*
X122937641Y-74549954D01*
X122751234Y-74419432D01*
X122751228Y-74419429D01*
X122693225Y-74392382D01*
X122640785Y-74346210D01*
X122621633Y-74279017D01*
X122641848Y-74212135D01*
X122693225Y-74167618D01*
X122695391Y-74166608D01*
X122751234Y-74140568D01*
X122937639Y-74010047D01*
X123098547Y-73849139D01*
X123229068Y-73662734D01*
X123325239Y-73456496D01*
X123384135Y-73236692D01*
X123403968Y-73010000D01*
X123399691Y-72961119D01*
X123384135Y-72783313D01*
X123384135Y-72783308D01*
X123325239Y-72563504D01*
X123229068Y-72357266D01*
X123098547Y-72170861D01*
X123098545Y-72170858D01*
X122937641Y-72009954D01*
X122751234Y-71879432D01*
X122751228Y-71879429D01*
X122693225Y-71852382D01*
X122640785Y-71806210D01*
X122621633Y-71739017D01*
X122641848Y-71672135D01*
X122693225Y-71627618D01*
X122751234Y-71600568D01*
X122937639Y-71470047D01*
X123098547Y-71309139D01*
X123229068Y-71122734D01*
X123325239Y-70916496D01*
X123384135Y-70696692D01*
X123403968Y-70470000D01*
X123399691Y-70421119D01*
X123395885Y-70377614D01*
X123384135Y-70243308D01*
X123325239Y-70023504D01*
X123229068Y-69817266D01*
X123098547Y-69630861D01*
X123098545Y-69630858D01*
X122937641Y-69469954D01*
X122751234Y-69339432D01*
X122751228Y-69339429D01*
X122693225Y-69312382D01*
X122640785Y-69266210D01*
X122621633Y-69199017D01*
X122641848Y-69132135D01*
X122693225Y-69087618D01*
X122751234Y-69060568D01*
X122937639Y-68930047D01*
X123098547Y-68769139D01*
X123229068Y-68582734D01*
X123325239Y-68376496D01*
X123384135Y-68156692D01*
X123403968Y-67930000D01*
X123384135Y-67703308D01*
X123325239Y-67483504D01*
X123229068Y-67277266D01*
X123098547Y-67090861D01*
X123098545Y-67090858D01*
X122937641Y-66929954D01*
X122751234Y-66799432D01*
X122751228Y-66799429D01*
X122693225Y-66772382D01*
X122640785Y-66726210D01*
X122621633Y-66659017D01*
X122641848Y-66592135D01*
X122693225Y-66547618D01*
X122751234Y-66520568D01*
X122937639Y-66390047D01*
X123098547Y-66229139D01*
X123229068Y-66042734D01*
X123325239Y-65836496D01*
X123384135Y-65616692D01*
X123403968Y-65390000D01*
X123384135Y-65163308D01*
X123325239Y-64943504D01*
X123229068Y-64737266D01*
X123098547Y-64550861D01*
X123098545Y-64550858D01*
X122937641Y-64389954D01*
X122751234Y-64259432D01*
X122751228Y-64259429D01*
X122693225Y-64232382D01*
X122640785Y-64186210D01*
X122621633Y-64119017D01*
X122641848Y-64052135D01*
X122693225Y-64007618D01*
X122751234Y-63980568D01*
X122937639Y-63850047D01*
X123098547Y-63689139D01*
X123229068Y-63502734D01*
X123325239Y-63296496D01*
X123384135Y-63076692D01*
X123403968Y-62850000D01*
X123384135Y-62623308D01*
X123325239Y-62403504D01*
X123229068Y-62197266D01*
X123131339Y-62057693D01*
X123098545Y-62010858D01*
X122937641Y-61849954D01*
X122751234Y-61719432D01*
X122751228Y-61719429D01*
X122723538Y-61706517D01*
X122693224Y-61692381D01*
X122640785Y-61646210D01*
X122621633Y-61579017D01*
X122641848Y-61512135D01*
X122693225Y-61467618D01*
X122751234Y-61440568D01*
X122937639Y-61310047D01*
X123098547Y-61149139D01*
X123229068Y-60962734D01*
X123325239Y-60756496D01*
X123384135Y-60536692D01*
X123403968Y-60310000D01*
X123384135Y-60083308D01*
X123325239Y-59863504D01*
X123229068Y-59657266D01*
X123098547Y-59470861D01*
X123098545Y-59470858D01*
X122937641Y-59309954D01*
X122751234Y-59179432D01*
X122751232Y-59179431D01*
X122693225Y-59152382D01*
X122692632Y-59152105D01*
X122640194Y-59105934D01*
X122621042Y-59038740D01*
X122641258Y-58971859D01*
X122692634Y-58927341D01*
X122750984Y-58900132D01*
X122937320Y-58769657D01*
X123098157Y-58608820D01*
X123228634Y-58422482D01*
X123324765Y-58216326D01*
X123324769Y-58216317D01*
X123377372Y-58020000D01*
X122531512Y-58020000D01*
X122564425Y-57962993D01*
X122598500Y-57835826D01*
X122598500Y-57704174D01*
X122564425Y-57577007D01*
X122531512Y-57520000D01*
X123377372Y-57520000D01*
X123377372Y-57519999D01*
X123324769Y-57323682D01*
X123324765Y-57323673D01*
X123228634Y-57117517D01*
X123098157Y-56931179D01*
X122937320Y-56770342D01*
X122750982Y-56639865D01*
X122692633Y-56612657D01*
X122640194Y-56566484D01*
X122621042Y-56499291D01*
X122641258Y-56432410D01*
X122692629Y-56387895D01*
X122751234Y-56360568D01*
X122937639Y-56230047D01*
X123098547Y-56069139D01*
X123229068Y-55882734D01*
X123325239Y-55676496D01*
X123384135Y-55456692D01*
X123403968Y-55230000D01*
X123403968Y-55229998D01*
X136033032Y-55229998D01*
X136033032Y-55230001D01*
X136052864Y-55456686D01*
X136052866Y-55456697D01*
X136111758Y-55676488D01*
X136111761Y-55676497D01*
X136207931Y-55882732D01*
X136207932Y-55882734D01*
X136338454Y-56069141D01*
X136499358Y-56230045D01*
X136499361Y-56230047D01*
X136685766Y-56360568D01*
X136743775Y-56387618D01*
X136796214Y-56433791D01*
X136815366Y-56500984D01*
X136795150Y-56567865D01*
X136743775Y-56612382D01*
X136685767Y-56639431D01*
X136685765Y-56639432D01*
X136499358Y-56769954D01*
X136338454Y-56930858D01*
X136207932Y-57117265D01*
X136207931Y-57117267D01*
X136111761Y-57323502D01*
X136111758Y-57323511D01*
X136052866Y-57543302D01*
X136052864Y-57543313D01*
X136033032Y-57769998D01*
X136033032Y-57770001D01*
X136052864Y-57996686D01*
X136052866Y-57996697D01*
X136111758Y-58216488D01*
X136111761Y-58216497D01*
X136207931Y-58422732D01*
X136207932Y-58422734D01*
X136338454Y-58609141D01*
X136499358Y-58770045D01*
X136546193Y-58802839D01*
X136685766Y-58900568D01*
X136743181Y-58927341D01*
X136743775Y-58927618D01*
X136796214Y-58973791D01*
X136815366Y-59040984D01*
X136795150Y-59107865D01*
X136743775Y-59152382D01*
X136685767Y-59179431D01*
X136685765Y-59179432D01*
X136499358Y-59309954D01*
X136338454Y-59470858D01*
X136207932Y-59657265D01*
X136207931Y-59657267D01*
X136111761Y-59863502D01*
X136111758Y-59863511D01*
X136052866Y-60083302D01*
X136052864Y-60083313D01*
X136033032Y-60309998D01*
X136033032Y-60310001D01*
X136052864Y-60536686D01*
X136052866Y-60536697D01*
X136111758Y-60756488D01*
X136111761Y-60756497D01*
X136207931Y-60962732D01*
X136207932Y-60962734D01*
X136338454Y-61149141D01*
X136499358Y-61310045D01*
X136499361Y-61310047D01*
X136685766Y-61440568D01*
X136743775Y-61467618D01*
X136796214Y-61513791D01*
X136815366Y-61580984D01*
X136795150Y-61647865D01*
X136743775Y-61692381D01*
X136726772Y-61700310D01*
X136685767Y-61719431D01*
X136685765Y-61719432D01*
X136499358Y-61849954D01*
X136338454Y-62010858D01*
X136207932Y-62197265D01*
X136207931Y-62197267D01*
X136111761Y-62403502D01*
X136111758Y-62403511D01*
X136052866Y-62623302D01*
X136052864Y-62623313D01*
X136033032Y-62849998D01*
X136033032Y-62850001D01*
X136052864Y-63076686D01*
X136052866Y-63076697D01*
X136111758Y-63296488D01*
X136111761Y-63296497D01*
X136207931Y-63502732D01*
X136207932Y-63502734D01*
X136338454Y-63689141D01*
X136499358Y-63850045D01*
X136499361Y-63850047D01*
X136685766Y-63980568D01*
X136743775Y-64007618D01*
X136796214Y-64053791D01*
X136815366Y-64120984D01*
X136795150Y-64187865D01*
X136743775Y-64232382D01*
X136685767Y-64259431D01*
X136685765Y-64259432D01*
X136499358Y-64389954D01*
X136338454Y-64550858D01*
X136207932Y-64737265D01*
X136207931Y-64737267D01*
X136111761Y-64943502D01*
X136111758Y-64943511D01*
X136052866Y-65163302D01*
X136052864Y-65163313D01*
X136033032Y-65389998D01*
X136033032Y-65390001D01*
X136052864Y-65616686D01*
X136052866Y-65616697D01*
X136111758Y-65836488D01*
X136111761Y-65836497D01*
X136207931Y-66042732D01*
X136207932Y-66042734D01*
X136338454Y-66229141D01*
X136499358Y-66390045D01*
X136499361Y-66390047D01*
X136685766Y-66520568D01*
X136743775Y-66547618D01*
X136796214Y-66593791D01*
X136815366Y-66660984D01*
X136795150Y-66727865D01*
X136743775Y-66772382D01*
X136685767Y-66799431D01*
X136685765Y-66799432D01*
X136499358Y-66929954D01*
X136338454Y-67090858D01*
X136207932Y-67277265D01*
X136207931Y-67277267D01*
X136111761Y-67483502D01*
X136111758Y-67483511D01*
X136052866Y-67703302D01*
X136052864Y-67703313D01*
X136033032Y-67929998D01*
X136033032Y-67930001D01*
X136052864Y-68156686D01*
X136052866Y-68156697D01*
X136111758Y-68376488D01*
X136111761Y-68376497D01*
X136207931Y-68582732D01*
X136207932Y-68582734D01*
X136338454Y-68769141D01*
X136499358Y-68930045D01*
X136546193Y-68962839D01*
X136685766Y-69060568D01*
X136743775Y-69087618D01*
X136796214Y-69133791D01*
X136815366Y-69200984D01*
X136795150Y-69267865D01*
X136743775Y-69312382D01*
X136685767Y-69339431D01*
X136685765Y-69339432D01*
X136499358Y-69469954D01*
X136338454Y-69630858D01*
X136207932Y-69817265D01*
X136207931Y-69817267D01*
X136111761Y-70023502D01*
X136111758Y-70023511D01*
X136052866Y-70243302D01*
X136052864Y-70243313D01*
X136033032Y-70469998D01*
X136033032Y-70470001D01*
X136052864Y-70696686D01*
X136052866Y-70696697D01*
X136111758Y-70916488D01*
X136111761Y-70916497D01*
X136207931Y-71122732D01*
X136207932Y-71122734D01*
X136338454Y-71309141D01*
X136499358Y-71470045D01*
X136499361Y-71470047D01*
X136685766Y-71600568D01*
X136743775Y-71627618D01*
X136796214Y-71673791D01*
X136815366Y-71740984D01*
X136795150Y-71807865D01*
X136743775Y-71852382D01*
X136685767Y-71879431D01*
X136685765Y-71879432D01*
X136499358Y-72009954D01*
X136338454Y-72170858D01*
X136207932Y-72357265D01*
X136207931Y-72357267D01*
X136111761Y-72563502D01*
X136111758Y-72563511D01*
X136052866Y-72783302D01*
X136052864Y-72783313D01*
X136033032Y-73009998D01*
X136033032Y-73010001D01*
X136052864Y-73236686D01*
X136052866Y-73236697D01*
X136111758Y-73456488D01*
X136111761Y-73456497D01*
X136207931Y-73662732D01*
X136207932Y-73662734D01*
X136338454Y-73849141D01*
X136499358Y-74010045D01*
X136499361Y-74010047D01*
X136685766Y-74140568D01*
X136741609Y-74166608D01*
X136743775Y-74167618D01*
X136796214Y-74213791D01*
X136815366Y-74280984D01*
X136795150Y-74347865D01*
X136743775Y-74392382D01*
X136685767Y-74419431D01*
X136685765Y-74419432D01*
X136499358Y-74549954D01*
X136338454Y-74710858D01*
X136207932Y-74897265D01*
X136207931Y-74897267D01*
X136111761Y-75103502D01*
X136111758Y-75103511D01*
X136052866Y-75323302D01*
X136052864Y-75323313D01*
X136033032Y-75549998D01*
X136033032Y-75550001D01*
X136052864Y-75776686D01*
X136052866Y-75776697D01*
X136111758Y-75996488D01*
X136111761Y-75996497D01*
X136207931Y-76202732D01*
X136207932Y-76202734D01*
X136338454Y-76389141D01*
X136499358Y-76550045D01*
X136499361Y-76550047D01*
X136685766Y-76680568D01*
X136743775Y-76707618D01*
X136796214Y-76753791D01*
X136815366Y-76820984D01*
X136795150Y-76887865D01*
X136743775Y-76932382D01*
X136685767Y-76959431D01*
X136685765Y-76959432D01*
X136499358Y-77089954D01*
X136338454Y-77250858D01*
X136207932Y-77437265D01*
X136207931Y-77437267D01*
X136111761Y-77643502D01*
X136111758Y-77643511D01*
X136052866Y-77863302D01*
X136052864Y-77863313D01*
X136033032Y-78089998D01*
X136033032Y-78090001D01*
X136052864Y-78316686D01*
X136052866Y-78316697D01*
X136111758Y-78536488D01*
X136111761Y-78536497D01*
X136207931Y-78742732D01*
X136207932Y-78742734D01*
X136338454Y-78929141D01*
X136499358Y-79090045D01*
X136499361Y-79090047D01*
X136685766Y-79220568D01*
X136743775Y-79247618D01*
X136796214Y-79293791D01*
X136815366Y-79360984D01*
X136795150Y-79427865D01*
X136743775Y-79472382D01*
X136685767Y-79499431D01*
X136685765Y-79499432D01*
X136499358Y-79629954D01*
X136338454Y-79790858D01*
X136207932Y-79977265D01*
X136207931Y-79977267D01*
X136111761Y-80183502D01*
X136111758Y-80183511D01*
X136052866Y-80403302D01*
X136052864Y-80403313D01*
X136033032Y-80629998D01*
X136033032Y-80630001D01*
X136052864Y-80856686D01*
X136052866Y-80856697D01*
X136111758Y-81076488D01*
X136111761Y-81076497D01*
X136207931Y-81282732D01*
X136207932Y-81282734D01*
X136338454Y-81469141D01*
X136499358Y-81630045D01*
X136527143Y-81649500D01*
X136685766Y-81760568D01*
X136743775Y-81787618D01*
X136796214Y-81833791D01*
X136815366Y-81900984D01*
X136795150Y-81967865D01*
X136743775Y-82012382D01*
X136685767Y-82039431D01*
X136685765Y-82039432D01*
X136499358Y-82169954D01*
X136338454Y-82330858D01*
X136207932Y-82517265D01*
X136207931Y-82517267D01*
X136111761Y-82723502D01*
X136111758Y-82723511D01*
X136052866Y-82943302D01*
X136052864Y-82943313D01*
X136033032Y-83169998D01*
X136033032Y-83170001D01*
X136052864Y-83396686D01*
X136052866Y-83396697D01*
X136111758Y-83616488D01*
X136111761Y-83616497D01*
X136207931Y-83822732D01*
X136207932Y-83822734D01*
X136338454Y-84009141D01*
X136499358Y-84170045D01*
X136540182Y-84198630D01*
X136685766Y-84300568D01*
X136743775Y-84327618D01*
X136796214Y-84373791D01*
X136815366Y-84440984D01*
X136795150Y-84507865D01*
X136743775Y-84552382D01*
X136685767Y-84579431D01*
X136685765Y-84579432D01*
X136499358Y-84709954D01*
X136338454Y-84870858D01*
X136207932Y-85057265D01*
X136207931Y-85057267D01*
X136111761Y-85263502D01*
X136111758Y-85263511D01*
X136052866Y-85483302D01*
X136052864Y-85483313D01*
X136033032Y-85709998D01*
X136033032Y-85710001D01*
X136052864Y-85936686D01*
X136052866Y-85936697D01*
X136111758Y-86156488D01*
X136111761Y-86156497D01*
X136207931Y-86362732D01*
X136207932Y-86362734D01*
X136338454Y-86549141D01*
X136499358Y-86710045D01*
X136546193Y-86742839D01*
X136685766Y-86840568D01*
X136743775Y-86867618D01*
X136796214Y-86913791D01*
X136815366Y-86980984D01*
X136795150Y-87047865D01*
X136743775Y-87092382D01*
X136685767Y-87119431D01*
X136685765Y-87119432D01*
X136499358Y-87249954D01*
X136338454Y-87410858D01*
X136207932Y-87597265D01*
X136207931Y-87597267D01*
X136111761Y-87803502D01*
X136111758Y-87803511D01*
X136052866Y-88023302D01*
X136052864Y-88023313D01*
X136033032Y-88249998D01*
X136033032Y-88250001D01*
X136052864Y-88476686D01*
X136052866Y-88476697D01*
X136111758Y-88696488D01*
X136111761Y-88696497D01*
X136207931Y-88902732D01*
X136207932Y-88902734D01*
X136338454Y-89089141D01*
X136499358Y-89250045D01*
X136523962Y-89267273D01*
X136567587Y-89321849D01*
X136574781Y-89391348D01*
X136543258Y-89453703D01*
X136483029Y-89489117D01*
X136466093Y-89492138D01*
X136431016Y-89495908D01*
X136296171Y-89546202D01*
X136296164Y-89546206D01*
X136180955Y-89632452D01*
X136180952Y-89632455D01*
X136094706Y-89747664D01*
X136094702Y-89747671D01*
X136044408Y-89882517D01*
X136040853Y-89915588D01*
X136038001Y-89942123D01*
X136038000Y-89942135D01*
X136038000Y-91637870D01*
X136038001Y-91637876D01*
X136044408Y-91697483D01*
X136094702Y-91832328D01*
X136094706Y-91832335D01*
X136180952Y-91947544D01*
X136180955Y-91947547D01*
X136296164Y-92033793D01*
X136296171Y-92033797D01*
X136431017Y-92084091D01*
X136431016Y-92084091D01*
X136437944Y-92084835D01*
X136490627Y-92090500D01*
X138186372Y-92090499D01*
X138245983Y-92084091D01*
X138380831Y-92033796D01*
X138496046Y-91947546D01*
X138582296Y-91832331D01*
X138632591Y-91697483D01*
X138639000Y-91637873D01*
X138638999Y-89942128D01*
X138632591Y-89882517D01*
X138616980Y-89840663D01*
X138582297Y-89747671D01*
X138582293Y-89747664D01*
X138496047Y-89632455D01*
X138496044Y-89632452D01*
X138380835Y-89546206D01*
X138380828Y-89546202D01*
X138245982Y-89495908D01*
X138245983Y-89495908D01*
X138210904Y-89492137D01*
X138146353Y-89465399D01*
X138106505Y-89408006D01*
X138104434Y-89349993D01*
X150294700Y-89349993D01*
X150294700Y-89350006D01*
X150313864Y-89581297D01*
X150313866Y-89581308D01*
X150370842Y-89806300D01*
X150464075Y-90018848D01*
X150591016Y-90213147D01*
X150591019Y-90213151D01*
X150591021Y-90213153D01*
X150748216Y-90383913D01*
X150748219Y-90383915D01*
X150748222Y-90383918D01*
X150931365Y-90526464D01*
X150931371Y-90526468D01*
X150931374Y-90526470D01*
X151135497Y-90636936D01*
X151249487Y-90676068D01*
X151355015Y-90712297D01*
X151355017Y-90712297D01*
X151355019Y-90712298D01*
X151583951Y-90750500D01*
X151583952Y-90750500D01*
X151816048Y-90750500D01*
X151816049Y-90750500D01*
X152044981Y-90712298D01*
X152264503Y-90636936D01*
X152468626Y-90526470D01*
X152651784Y-90383913D01*
X152808979Y-90213153D01*
X152935924Y-90018849D01*
X153029157Y-89806300D01*
X153086134Y-89581305D01*
X153087629Y-89563261D01*
X153105300Y-89350006D01*
X153105300Y-89349993D01*
X153086135Y-89118702D01*
X153086133Y-89118691D01*
X153029157Y-88893699D01*
X152935924Y-88681151D01*
X152808983Y-88486852D01*
X152808980Y-88486849D01*
X152808979Y-88486847D01*
X152651784Y-88316087D01*
X152651779Y-88316083D01*
X152651777Y-88316081D01*
X152468634Y-88173535D01*
X152468628Y-88173531D01*
X152264504Y-88063064D01*
X152264495Y-88063061D01*
X152044984Y-87987702D01*
X151873282Y-87959050D01*
X151816049Y-87949500D01*
X151583951Y-87949500D01*
X151538164Y-87957140D01*
X151355015Y-87987702D01*
X151135504Y-88063061D01*
X151135495Y-88063064D01*
X150931371Y-88173531D01*
X150931365Y-88173535D01*
X150748222Y-88316081D01*
X150748219Y-88316084D01*
X150591016Y-88486852D01*
X150464075Y-88681151D01*
X150370842Y-88893699D01*
X150313866Y-89118691D01*
X150313864Y-89118702D01*
X150294700Y-89349993D01*
X138104434Y-89349993D01*
X138104012Y-89338181D01*
X138139665Y-89278092D01*
X138153039Y-89267272D01*
X138177640Y-89250046D01*
X138338545Y-89089141D01*
X138338547Y-89089139D01*
X138469068Y-88902734D01*
X138565239Y-88696496D01*
X138624135Y-88476692D01*
X138643310Y-88257517D01*
X138643968Y-88250001D01*
X138643968Y-88249998D01*
X138624135Y-88023313D01*
X138624135Y-88023308D01*
X138565239Y-87803504D01*
X138469068Y-87597266D01*
X138338547Y-87410861D01*
X138338545Y-87410858D01*
X138177641Y-87249954D01*
X137991234Y-87119432D01*
X137991228Y-87119429D01*
X137933225Y-87092382D01*
X137880785Y-87046210D01*
X137861633Y-86979017D01*
X137881848Y-86912135D01*
X137933225Y-86867618D01*
X137991234Y-86840568D01*
X138177639Y-86710047D01*
X138338547Y-86549139D01*
X138469068Y-86362734D01*
X138565239Y-86156496D01*
X138624135Y-85936692D01*
X138643968Y-85710000D01*
X138624135Y-85483308D01*
X138579416Y-85316415D01*
X138565241Y-85263511D01*
X138565238Y-85263502D01*
X138531979Y-85192179D01*
X138469068Y-85057266D01*
X138338547Y-84870861D01*
X138338545Y-84870858D01*
X138177641Y-84709954D01*
X137991234Y-84579432D01*
X137991228Y-84579429D01*
X137933225Y-84552382D01*
X137880785Y-84506210D01*
X137861633Y-84439017D01*
X137881848Y-84372135D01*
X137933225Y-84327618D01*
X137991234Y-84300568D01*
X138177639Y-84170047D01*
X138338547Y-84009139D01*
X138469068Y-83822734D01*
X138565239Y-83616496D01*
X138624135Y-83396692D01*
X138628220Y-83349995D01*
X151994732Y-83349995D01*
X151994732Y-83350004D01*
X152013777Y-83604154D01*
X152063666Y-83822734D01*
X152070492Y-83852637D01*
X152163607Y-84089888D01*
X152291041Y-84310612D01*
X152449950Y-84509877D01*
X152636783Y-84683232D01*
X152847366Y-84826805D01*
X152847371Y-84826807D01*
X152847372Y-84826808D01*
X152847373Y-84826809D01*
X152938843Y-84870858D01*
X153076992Y-84937387D01*
X153076993Y-84937387D01*
X153076996Y-84937389D01*
X153320542Y-85012513D01*
X153572565Y-85050500D01*
X153827435Y-85050500D01*
X154079458Y-85012513D01*
X154323004Y-84937389D01*
X154552634Y-84826805D01*
X154763217Y-84683232D01*
X154950050Y-84509877D01*
X155108959Y-84310612D01*
X155236393Y-84089888D01*
X155329508Y-83852637D01*
X155386222Y-83604157D01*
X155401769Y-83396692D01*
X155405268Y-83350004D01*
X155405268Y-83349995D01*
X164194732Y-83349995D01*
X164194732Y-83350004D01*
X164213777Y-83604154D01*
X164263666Y-83822734D01*
X164270492Y-83852637D01*
X164363607Y-84089888D01*
X164491041Y-84310612D01*
X164649950Y-84509877D01*
X164836783Y-84683232D01*
X165047366Y-84826805D01*
X165047371Y-84826807D01*
X165047372Y-84826808D01*
X165047373Y-84826809D01*
X165138843Y-84870858D01*
X165276992Y-84937387D01*
X165276993Y-84937387D01*
X165276996Y-84937389D01*
X165520542Y-85012513D01*
X165772565Y-85050500D01*
X166027435Y-85050500D01*
X166279458Y-85012513D01*
X166523004Y-84937389D01*
X166752634Y-84826805D01*
X166963217Y-84683232D01*
X167150050Y-84509877D01*
X167308959Y-84310612D01*
X167436393Y-84089888D01*
X167529508Y-83852637D01*
X167586222Y-83604157D01*
X167601769Y-83396692D01*
X167605268Y-83350004D01*
X167605268Y-83349995D01*
X167586222Y-83095845D01*
X167551406Y-82943308D01*
X167541520Y-82899994D01*
X177094357Y-82899994D01*
X177094357Y-82900005D01*
X177114890Y-83147812D01*
X177114892Y-83147824D01*
X177175936Y-83388881D01*
X177275826Y-83616606D01*
X177411833Y-83824782D01*
X177411836Y-83824785D01*
X177580256Y-84007738D01*
X177663008Y-84072147D01*
X177703821Y-84128857D01*
X177707496Y-84198630D01*
X177672864Y-84259313D01*
X177663014Y-84267848D01*
X177620974Y-84300570D01*
X177580257Y-84332261D01*
X177411833Y-84515217D01*
X177275826Y-84723393D01*
X177175936Y-84951118D01*
X177114892Y-85192175D01*
X177114890Y-85192187D01*
X177094357Y-85439994D01*
X177094357Y-85440005D01*
X177114890Y-85687812D01*
X177114892Y-85687824D01*
X177175936Y-85928881D01*
X177275775Y-86156488D01*
X177275827Y-86156607D01*
X177406742Y-86356988D01*
X177426929Y-86423877D01*
X177407749Y-86491063D01*
X177362367Y-86533637D01*
X177357670Y-86536201D01*
X177242455Y-86622452D01*
X177242452Y-86622455D01*
X177156206Y-86737664D01*
X177156202Y-86737671D01*
X177105908Y-86872517D01*
X177101649Y-86912135D01*
X177099501Y-86932123D01*
X177099500Y-86932135D01*
X177099500Y-89027870D01*
X177099501Y-89027876D01*
X177105908Y-89087483D01*
X177156202Y-89222328D01*
X177156206Y-89222335D01*
X177242452Y-89337544D01*
X177242455Y-89337547D01*
X177357664Y-89423793D01*
X177357671Y-89423797D01*
X177492517Y-89474091D01*
X177492516Y-89474091D01*
X177499444Y-89474835D01*
X177552127Y-89480500D01*
X179647872Y-89480499D01*
X179707483Y-89474091D01*
X179842331Y-89423796D01*
X179957546Y-89337546D01*
X180043796Y-89222331D01*
X180094091Y-89087483D01*
X180100500Y-89027873D01*
X180100499Y-86932128D01*
X180094091Y-86872517D01*
X180082174Y-86840567D01*
X180043797Y-86737671D01*
X180043793Y-86737664D01*
X179957547Y-86622455D01*
X179957544Y-86622452D01*
X179842332Y-86536204D01*
X179837635Y-86533639D01*
X179788232Y-86484232D01*
X179773382Y-86415958D01*
X179793257Y-86356989D01*
X179924173Y-86156607D01*
X180024063Y-85928881D01*
X180085108Y-85687821D01*
X180085109Y-85687812D01*
X180105643Y-85440005D01*
X180105643Y-85439994D01*
X180085109Y-85192187D01*
X180085107Y-85192175D01*
X180024063Y-84951118D01*
X179924173Y-84723393D01*
X179788166Y-84515217D01*
X179743949Y-84467185D01*
X179619744Y-84332262D01*
X179536991Y-84267852D01*
X179496179Y-84211143D01*
X179492504Y-84141370D01*
X179527136Y-84080687D01*
X179536985Y-84072151D01*
X179619744Y-84007738D01*
X179788164Y-83824785D01*
X179924173Y-83616607D01*
X180024063Y-83388881D01*
X180085108Y-83147821D01*
X180102054Y-82943313D01*
X180105643Y-82900005D01*
X180105643Y-82899994D01*
X180085109Y-82652187D01*
X180085107Y-82652175D01*
X180024063Y-82411118D01*
X179924173Y-82183393D01*
X179788166Y-81975217D01*
X179758748Y-81943261D01*
X179619744Y-81792262D01*
X179423509Y-81639526D01*
X179423507Y-81639525D01*
X179423506Y-81639524D01*
X179204811Y-81521172D01*
X179204802Y-81521169D01*
X178969616Y-81440429D01*
X178724335Y-81399500D01*
X178475665Y-81399500D01*
X178230383Y-81440429D01*
X177995197Y-81521169D01*
X177995188Y-81521172D01*
X177776493Y-81639524D01*
X177580257Y-81792261D01*
X177411833Y-81975217D01*
X177275826Y-82183393D01*
X177175936Y-82411118D01*
X177114892Y-82652175D01*
X177114890Y-82652187D01*
X177094357Y-82899994D01*
X167541520Y-82899994D01*
X167529508Y-82847363D01*
X167436393Y-82610112D01*
X167308959Y-82389388D01*
X167150050Y-82190123D01*
X166963217Y-82016768D01*
X166752634Y-81873195D01*
X166752630Y-81873193D01*
X166752627Y-81873191D01*
X166752626Y-81873190D01*
X166523006Y-81762612D01*
X166523008Y-81762612D01*
X166279466Y-81687489D01*
X166279462Y-81687488D01*
X166279458Y-81687487D01*
X166158231Y-81669214D01*
X166027440Y-81649500D01*
X166027435Y-81649500D01*
X165772565Y-81649500D01*
X165772559Y-81649500D01*
X165615609Y-81673157D01*
X165520542Y-81687487D01*
X165520539Y-81687488D01*
X165520533Y-81687489D01*
X165276992Y-81762612D01*
X165047373Y-81873190D01*
X165047372Y-81873191D01*
X164836782Y-82016768D01*
X164649952Y-82190121D01*
X164649950Y-82190123D01*
X164491041Y-82389388D01*
X164363608Y-82610109D01*
X164270492Y-82847362D01*
X164270490Y-82847369D01*
X164213777Y-83095845D01*
X164194732Y-83349995D01*
X155405268Y-83349995D01*
X155386222Y-83095845D01*
X155351406Y-82943308D01*
X155329508Y-82847363D01*
X155236393Y-82610112D01*
X155108959Y-82389388D01*
X154950050Y-82190123D01*
X154763217Y-82016768D01*
X154552634Y-81873195D01*
X154552630Y-81873193D01*
X154552627Y-81873191D01*
X154552626Y-81873190D01*
X154323006Y-81762612D01*
X154323008Y-81762612D01*
X154079466Y-81687489D01*
X154079462Y-81687488D01*
X154079458Y-81687487D01*
X153958231Y-81669214D01*
X153827440Y-81649500D01*
X153827435Y-81649500D01*
X153572565Y-81649500D01*
X153572559Y-81649500D01*
X153415609Y-81673157D01*
X153320542Y-81687487D01*
X153320539Y-81687488D01*
X153320533Y-81687489D01*
X153076992Y-81762612D01*
X152847373Y-81873190D01*
X152847372Y-81873191D01*
X152636782Y-82016768D01*
X152449952Y-82190121D01*
X152449950Y-82190123D01*
X152291041Y-82389388D01*
X152163608Y-82610109D01*
X152070492Y-82847362D01*
X152070490Y-82847369D01*
X152013777Y-83095845D01*
X151994732Y-83349995D01*
X138628220Y-83349995D01*
X138643968Y-83170000D01*
X138624135Y-82943308D01*
X138565239Y-82723504D01*
X138469068Y-82517266D01*
X138338547Y-82330861D01*
X138338545Y-82330858D01*
X138177641Y-82169954D01*
X137991234Y-82039432D01*
X137991228Y-82039429D01*
X137933225Y-82012382D01*
X137880785Y-81966210D01*
X137861633Y-81899017D01*
X137881848Y-81832135D01*
X137933225Y-81787618D01*
X137991234Y-81760568D01*
X138177639Y-81630047D01*
X138338547Y-81469139D01*
X138469068Y-81282734D01*
X138565239Y-81076496D01*
X138624135Y-80856692D01*
X138642219Y-80649996D01*
X143294435Y-80649996D01*
X143294435Y-80650003D01*
X143314630Y-80829249D01*
X143314631Y-80829254D01*
X143374211Y-80999523D01*
X143437658Y-81100498D01*
X143470184Y-81152262D01*
X143597738Y-81279816D01*
X143750478Y-81375789D01*
X143920745Y-81435368D01*
X143920750Y-81435369D01*
X144099996Y-81455565D01*
X144100000Y-81455565D01*
X144100004Y-81455565D01*
X144279249Y-81435369D01*
X144279252Y-81435368D01*
X144279255Y-81435368D01*
X144449522Y-81375789D01*
X144602262Y-81279816D01*
X144729816Y-81152262D01*
X144825789Y-80999522D01*
X144885368Y-80829255D01*
X144886562Y-80818657D01*
X144905565Y-80650003D01*
X144905565Y-80649996D01*
X144885369Y-80470750D01*
X144885368Y-80470745D01*
X144871743Y-80431807D01*
X144825789Y-80300478D01*
X144729816Y-80147738D01*
X144602262Y-80020184D01*
X144449523Y-79924211D01*
X144279254Y-79864631D01*
X144279249Y-79864630D01*
X144100004Y-79844435D01*
X144099996Y-79844435D01*
X143920750Y-79864630D01*
X143920745Y-79864631D01*
X143750476Y-79924211D01*
X143597737Y-80020184D01*
X143470184Y-80147737D01*
X143374211Y-80300476D01*
X143314631Y-80470745D01*
X143314630Y-80470750D01*
X143294435Y-80649996D01*
X138642219Y-80649996D01*
X138643968Y-80630000D01*
X138624135Y-80403308D01*
X138565239Y-80183504D01*
X138469068Y-79977266D01*
X138371339Y-79837693D01*
X138338545Y-79790858D01*
X138177641Y-79629954D01*
X137991234Y-79499432D01*
X137991228Y-79499429D01*
X137933225Y-79472382D01*
X137880785Y-79426210D01*
X137861633Y-79359017D01*
X137881848Y-79292135D01*
X137933225Y-79247618D01*
X137991234Y-79220568D01*
X138177639Y-79090047D01*
X138338547Y-78929139D01*
X138469068Y-78742734D01*
X138565239Y-78536496D01*
X138624135Y-78316692D01*
X138625597Y-78299983D01*
X151949500Y-78299983D01*
X151949500Y-80400001D01*
X151949501Y-80400018D01*
X151960000Y-80502796D01*
X151960001Y-80502799D01*
X152002151Y-80629998D01*
X152015186Y-80669334D01*
X152107288Y-80818656D01*
X152231344Y-80942712D01*
X152380666Y-81034814D01*
X152547203Y-81089999D01*
X152649991Y-81100500D01*
X154750008Y-81100499D01*
X154852797Y-81089999D01*
X155019334Y-81034814D01*
X155168656Y-80942712D01*
X155292712Y-80818656D01*
X155384814Y-80669334D01*
X155439999Y-80502797D01*
X155450500Y-80400009D01*
X155450499Y-79349995D01*
X164194732Y-79349995D01*
X164194732Y-79350004D01*
X164213777Y-79604154D01*
X164261229Y-79812057D01*
X164270492Y-79852637D01*
X164363607Y-80089888D01*
X164491041Y-80310612D01*
X164649950Y-80509877D01*
X164836783Y-80683232D01*
X165047366Y-80826805D01*
X165047371Y-80826807D01*
X165047372Y-80826808D01*
X165047373Y-80826809D01*
X165169328Y-80885538D01*
X165276992Y-80937387D01*
X165276993Y-80937387D01*
X165276996Y-80937389D01*
X165520542Y-81012513D01*
X165772565Y-81050500D01*
X166027435Y-81050500D01*
X166279458Y-81012513D01*
X166523004Y-80937389D01*
X166752634Y-80826805D01*
X166963217Y-80683232D01*
X167150050Y-80509877D01*
X167308959Y-80310612D01*
X167436393Y-80089888D01*
X167529508Y-79852637D01*
X167586222Y-79604157D01*
X167604519Y-79360000D01*
X167605268Y-79350004D01*
X167605268Y-79349995D01*
X167586222Y-79095845D01*
X167584898Y-79090045D01*
X167529508Y-78847363D01*
X167436393Y-78610112D01*
X167308959Y-78389388D01*
X167150050Y-78190123D01*
X166963217Y-78016768D01*
X166752634Y-77873195D01*
X166752630Y-77873193D01*
X166752627Y-77873191D01*
X166752626Y-77873190D01*
X166523006Y-77762612D01*
X166523008Y-77762612D01*
X166279466Y-77687489D01*
X166279462Y-77687488D01*
X166279458Y-77687487D01*
X166158231Y-77669214D01*
X166027440Y-77649500D01*
X166027435Y-77649500D01*
X165772565Y-77649500D01*
X165772559Y-77649500D01*
X165615609Y-77673157D01*
X165520542Y-77687487D01*
X165520539Y-77687488D01*
X165520533Y-77687489D01*
X165276992Y-77762612D01*
X165047373Y-77873190D01*
X165047372Y-77873191D01*
X164836782Y-78016768D01*
X164649952Y-78190121D01*
X164649950Y-78190123D01*
X164491041Y-78389388D01*
X164363608Y-78610109D01*
X164270492Y-78847362D01*
X164270490Y-78847369D01*
X164213777Y-79095845D01*
X164194732Y-79349995D01*
X155450499Y-79349995D01*
X155450499Y-78299992D01*
X155439999Y-78197203D01*
X155384814Y-78030666D01*
X155292712Y-77881344D01*
X155168656Y-77757288D01*
X155019334Y-77665186D01*
X154852797Y-77610001D01*
X154852795Y-77610000D01*
X154750010Y-77599500D01*
X152649998Y-77599500D01*
X152649981Y-77599501D01*
X152547203Y-77610000D01*
X152547200Y-77610001D01*
X152380668Y-77665185D01*
X152380663Y-77665187D01*
X152231342Y-77757289D01*
X152107289Y-77881342D01*
X152015187Y-78030663D01*
X152015186Y-78030666D01*
X151960001Y-78197203D01*
X151960001Y-78197204D01*
X151960000Y-78197204D01*
X151949500Y-78299983D01*
X138625597Y-78299983D01*
X138643968Y-78090000D01*
X138624135Y-77863308D01*
X138565239Y-77643504D01*
X138469068Y-77437266D01*
X138338547Y-77250861D01*
X138338545Y-77250858D01*
X138177641Y-77089954D01*
X137991234Y-76959432D01*
X137991228Y-76959429D01*
X137933225Y-76932382D01*
X137880785Y-76886210D01*
X137861633Y-76819017D01*
X137881848Y-76752135D01*
X137933225Y-76707618D01*
X137991234Y-76680568D01*
X138177639Y-76550047D01*
X138338547Y-76389139D01*
X138469068Y-76202734D01*
X138565239Y-75996496D01*
X138624135Y-75776692D01*
X138643968Y-75550000D01*
X138624135Y-75323308D01*
X138565239Y-75103504D01*
X138469068Y-74897266D01*
X138339553Y-74712298D01*
X138338545Y-74710858D01*
X138177641Y-74549954D01*
X137991234Y-74419432D01*
X137991228Y-74419429D01*
X137933225Y-74392382D01*
X137880785Y-74346210D01*
X137861633Y-74279017D01*
X137881848Y-74212135D01*
X137933225Y-74167618D01*
X137935391Y-74166608D01*
X137991234Y-74140568D01*
X138177639Y-74010047D01*
X138338547Y-73849139D01*
X138469068Y-73662734D01*
X138565239Y-73456496D01*
X138593776Y-73349993D01*
X150294700Y-73349993D01*
X150294700Y-73350006D01*
X150313864Y-73581297D01*
X150313866Y-73581308D01*
X150370842Y-73806300D01*
X150464075Y-74018848D01*
X150591016Y-74213147D01*
X150591019Y-74213151D01*
X150591021Y-74213153D01*
X150748216Y-74383913D01*
X150748219Y-74383915D01*
X150748222Y-74383918D01*
X150931365Y-74526464D01*
X150931371Y-74526468D01*
X150931374Y-74526470D01*
X151135497Y-74636936D01*
X151249487Y-74676068D01*
X151355015Y-74712297D01*
X151355017Y-74712297D01*
X151355019Y-74712298D01*
X151583951Y-74750500D01*
X151583952Y-74750500D01*
X151816048Y-74750500D01*
X151816049Y-74750500D01*
X152044981Y-74712298D01*
X152264503Y-74636936D01*
X152468626Y-74526470D01*
X152651784Y-74383913D01*
X152808979Y-74213153D01*
X152935924Y-74018849D01*
X153029157Y-73806300D01*
X153086134Y-73581305D01*
X153096476Y-73456496D01*
X153105300Y-73350006D01*
X153105300Y-73349993D01*
X153086135Y-73118702D01*
X153086133Y-73118691D01*
X153029157Y-72893699D01*
X152935924Y-72681151D01*
X152808983Y-72486852D01*
X152808980Y-72486849D01*
X152808979Y-72486847D01*
X152651784Y-72316087D01*
X152651779Y-72316083D01*
X152651777Y-72316081D01*
X152468634Y-72173535D01*
X152468628Y-72173531D01*
X152264504Y-72063064D01*
X152264495Y-72063061D01*
X152044984Y-71987702D01*
X151873282Y-71959050D01*
X151816049Y-71949500D01*
X151583951Y-71949500D01*
X151538164Y-71957140D01*
X151355015Y-71987702D01*
X151135504Y-72063061D01*
X151135495Y-72063064D01*
X150931371Y-72173531D01*
X150931365Y-72173535D01*
X150748222Y-72316081D01*
X150748219Y-72316084D01*
X150591016Y-72486852D01*
X150464075Y-72681151D01*
X150370842Y-72893699D01*
X150313866Y-73118691D01*
X150313864Y-73118702D01*
X150294700Y-73349993D01*
X138593776Y-73349993D01*
X138624135Y-73236692D01*
X138643968Y-73010000D01*
X138639691Y-72961119D01*
X138624135Y-72783313D01*
X138624135Y-72783308D01*
X138565239Y-72563504D01*
X138469068Y-72357266D01*
X138338547Y-72170861D01*
X138338545Y-72170858D01*
X138177641Y-72009954D01*
X137991234Y-71879432D01*
X137991228Y-71879429D01*
X137933225Y-71852382D01*
X137880785Y-71806210D01*
X137861633Y-71739017D01*
X137881848Y-71672135D01*
X137933225Y-71627618D01*
X137991234Y-71600568D01*
X138177639Y-71470047D01*
X138338547Y-71309139D01*
X138469068Y-71122734D01*
X138565239Y-70916496D01*
X138566981Y-70909994D01*
X177094357Y-70909994D01*
X177094357Y-70910005D01*
X177114890Y-71157812D01*
X177114892Y-71157824D01*
X177175936Y-71398881D01*
X177275826Y-71626606D01*
X177411833Y-71834782D01*
X177411836Y-71834785D01*
X177580256Y-72017738D01*
X177663008Y-72082147D01*
X177703821Y-72138857D01*
X177707496Y-72208630D01*
X177672864Y-72269313D01*
X177663014Y-72277848D01*
X177613886Y-72316087D01*
X177580257Y-72342261D01*
X177411833Y-72525217D01*
X177275826Y-72733393D01*
X177175936Y-72961118D01*
X177114892Y-73202175D01*
X177114890Y-73202187D01*
X177094357Y-73449994D01*
X177094357Y-73450005D01*
X177114890Y-73697812D01*
X177114892Y-73697824D01*
X177175936Y-73938881D01*
X177264405Y-74140568D01*
X177275827Y-74166607D01*
X177406742Y-74366988D01*
X177426929Y-74433877D01*
X177407749Y-74501063D01*
X177362367Y-74543637D01*
X177357670Y-74546201D01*
X177242455Y-74632452D01*
X177242452Y-74632455D01*
X177156206Y-74747664D01*
X177156202Y-74747671D01*
X177105908Y-74882517D01*
X177099501Y-74942116D01*
X177099501Y-74942123D01*
X177099500Y-74942135D01*
X177099500Y-77037870D01*
X177099501Y-77037876D01*
X177105908Y-77097483D01*
X177156202Y-77232328D01*
X177156206Y-77232335D01*
X177242452Y-77347544D01*
X177242455Y-77347547D01*
X177357664Y-77433793D01*
X177357671Y-77433797D01*
X177492517Y-77484091D01*
X177492516Y-77484091D01*
X177499444Y-77484835D01*
X177552127Y-77490500D01*
X179647872Y-77490499D01*
X179707483Y-77484091D01*
X179842331Y-77433796D01*
X179957546Y-77347546D01*
X180043796Y-77232331D01*
X180094091Y-77097483D01*
X180100500Y-77037873D01*
X180100499Y-74942128D01*
X180094091Y-74882517D01*
X180043796Y-74747669D01*
X180043795Y-74747668D01*
X180043793Y-74747664D01*
X179957547Y-74632455D01*
X179957544Y-74632452D01*
X179842332Y-74546204D01*
X179837635Y-74543639D01*
X179788232Y-74494232D01*
X179773382Y-74425958D01*
X179793257Y-74366989D01*
X179924173Y-74166607D01*
X180024063Y-73938881D01*
X180085108Y-73697821D01*
X180085109Y-73697812D01*
X180105643Y-73450005D01*
X180105643Y-73449994D01*
X180085109Y-73202187D01*
X180085107Y-73202175D01*
X180024063Y-72961118D01*
X179924173Y-72733393D01*
X179788166Y-72525217D01*
X179724559Y-72456122D01*
X179619744Y-72342262D01*
X179536991Y-72277852D01*
X179496179Y-72221143D01*
X179492504Y-72151370D01*
X179527136Y-72090687D01*
X179536985Y-72082151D01*
X179619744Y-72017738D01*
X179788164Y-71834785D01*
X179924173Y-71626607D01*
X180024063Y-71398881D01*
X180085108Y-71157821D01*
X180085109Y-71157812D01*
X180105643Y-70910005D01*
X180105643Y-70909994D01*
X180085109Y-70662187D01*
X180085107Y-70662175D01*
X180024063Y-70421118D01*
X179924173Y-70193393D01*
X179788166Y-69985217D01*
X179766557Y-69961744D01*
X179619744Y-69802262D01*
X179423509Y-69649526D01*
X179423507Y-69649525D01*
X179423506Y-69649524D01*
X179204811Y-69531172D01*
X179204802Y-69531169D01*
X178969616Y-69450429D01*
X178724335Y-69409500D01*
X178475665Y-69409500D01*
X178230383Y-69450429D01*
X177995197Y-69531169D01*
X177995188Y-69531172D01*
X177776493Y-69649524D01*
X177580257Y-69802261D01*
X177411833Y-69985217D01*
X177275826Y-70193393D01*
X177175936Y-70421118D01*
X177114892Y-70662175D01*
X177114890Y-70662187D01*
X177094357Y-70909994D01*
X138566981Y-70909994D01*
X138624135Y-70696692D01*
X138643968Y-70470000D01*
X138639691Y-70421119D01*
X138635885Y-70377614D01*
X138624135Y-70243308D01*
X138565239Y-70023504D01*
X138469068Y-69817266D01*
X138338547Y-69630861D01*
X138338545Y-69630858D01*
X138177641Y-69469954D01*
X137991234Y-69339432D01*
X137991228Y-69339429D01*
X137933225Y-69312382D01*
X137880785Y-69266210D01*
X137861633Y-69199017D01*
X137881848Y-69132135D01*
X137933225Y-69087618D01*
X137991234Y-69060568D01*
X138177639Y-68930047D01*
X138338547Y-68769139D01*
X138469068Y-68582734D01*
X138565239Y-68376496D01*
X138624135Y-68156692D01*
X138643968Y-67930000D01*
X138624135Y-67703308D01*
X138565239Y-67483504D01*
X138502982Y-67349995D01*
X151994732Y-67349995D01*
X151994732Y-67350004D01*
X152013777Y-67604154D01*
X152068568Y-67844211D01*
X152070492Y-67852637D01*
X152163607Y-68089888D01*
X152291041Y-68310612D01*
X152449950Y-68509877D01*
X152636783Y-68683232D01*
X152847366Y-68826805D01*
X152847371Y-68826807D01*
X152847372Y-68826808D01*
X152847373Y-68826809D01*
X152969328Y-68885538D01*
X153076992Y-68937387D01*
X153076993Y-68937387D01*
X153076996Y-68937389D01*
X153320542Y-69012513D01*
X153572565Y-69050500D01*
X153827435Y-69050500D01*
X154079458Y-69012513D01*
X154323004Y-68937389D01*
X154514897Y-68844978D01*
X154552626Y-68826809D01*
X154552626Y-68826808D01*
X154552634Y-68826805D01*
X154763217Y-68683232D01*
X154950050Y-68509877D01*
X155108959Y-68310612D01*
X155236393Y-68089888D01*
X155329508Y-67852637D01*
X155386222Y-67604157D01*
X155395263Y-67483511D01*
X155405268Y-67350004D01*
X155405268Y-67349995D01*
X164194732Y-67349995D01*
X164194732Y-67350004D01*
X164213777Y-67604154D01*
X164268568Y-67844211D01*
X164270492Y-67852637D01*
X164363607Y-68089888D01*
X164491041Y-68310612D01*
X164649950Y-68509877D01*
X164836783Y-68683232D01*
X165047366Y-68826805D01*
X165047371Y-68826807D01*
X165047372Y-68826808D01*
X165047373Y-68826809D01*
X165169328Y-68885538D01*
X165276992Y-68937387D01*
X165276993Y-68937387D01*
X165276996Y-68937389D01*
X165520542Y-69012513D01*
X165772565Y-69050500D01*
X166027435Y-69050500D01*
X166279458Y-69012513D01*
X166523004Y-68937389D01*
X166714897Y-68844978D01*
X166752626Y-68826809D01*
X166752626Y-68826808D01*
X166752634Y-68826805D01*
X166963217Y-68683232D01*
X167150050Y-68509877D01*
X167308959Y-68310612D01*
X167436393Y-68089888D01*
X167529508Y-67852637D01*
X167586222Y-67604157D01*
X167595263Y-67483511D01*
X167605268Y-67350004D01*
X167605268Y-67349995D01*
X167586222Y-67095845D01*
X167585084Y-67090861D01*
X167529508Y-66847363D01*
X167436393Y-66610112D01*
X167308959Y-66389388D01*
X167150050Y-66190123D01*
X166963217Y-66016768D01*
X166752634Y-65873195D01*
X166752630Y-65873193D01*
X166752627Y-65873191D01*
X166752626Y-65873190D01*
X166523006Y-65762612D01*
X166523008Y-65762612D01*
X166279466Y-65687489D01*
X166279462Y-65687488D01*
X166279458Y-65687487D01*
X166158231Y-65669214D01*
X166027440Y-65649500D01*
X166027435Y-65649500D01*
X165772565Y-65649500D01*
X165772559Y-65649500D01*
X165615609Y-65673157D01*
X165520542Y-65687487D01*
X165520539Y-65687488D01*
X165520533Y-65687489D01*
X165276992Y-65762612D01*
X165047373Y-65873190D01*
X165047372Y-65873191D01*
X164836782Y-66016768D01*
X164649952Y-66190121D01*
X164649950Y-66190123D01*
X164491041Y-66389388D01*
X164363608Y-66610109D01*
X164270492Y-66847362D01*
X164270490Y-66847369D01*
X164213777Y-67095845D01*
X164194732Y-67349995D01*
X155405268Y-67349995D01*
X155386222Y-67095845D01*
X155385084Y-67090861D01*
X155329508Y-66847363D01*
X155236393Y-66610112D01*
X155108959Y-66389388D01*
X154950050Y-66190123D01*
X154763217Y-66016768D01*
X154552634Y-65873195D01*
X154552630Y-65873193D01*
X154552627Y-65873191D01*
X154552626Y-65873190D01*
X154323006Y-65762612D01*
X154323008Y-65762612D01*
X154079466Y-65687489D01*
X154079462Y-65687488D01*
X154079458Y-65687487D01*
X153958231Y-65669214D01*
X153827440Y-65649500D01*
X153827435Y-65649500D01*
X153572565Y-65649500D01*
X153572559Y-65649500D01*
X153415609Y-65673157D01*
X153320542Y-65687487D01*
X153320539Y-65687488D01*
X153320533Y-65687489D01*
X153076992Y-65762612D01*
X152847373Y-65873190D01*
X152847372Y-65873191D01*
X152636782Y-66016768D01*
X152449952Y-66190121D01*
X152449950Y-66190123D01*
X152291041Y-66389388D01*
X152163608Y-66610109D01*
X152070492Y-66847362D01*
X152070490Y-66847369D01*
X152013777Y-67095845D01*
X151994732Y-67349995D01*
X138502982Y-67349995D01*
X138469068Y-67277266D01*
X138338547Y-67090861D01*
X138338545Y-67090858D01*
X138177641Y-66929954D01*
X137991234Y-66799432D01*
X137991228Y-66799429D01*
X137933225Y-66772382D01*
X137880785Y-66726210D01*
X137861633Y-66659017D01*
X137881848Y-66592135D01*
X137933225Y-66547618D01*
X137991234Y-66520568D01*
X138177639Y-66390047D01*
X138338547Y-66229139D01*
X138469068Y-66042734D01*
X138565239Y-65836496D01*
X138624135Y-65616692D01*
X138643968Y-65390000D01*
X138624135Y-65163308D01*
X138565239Y-64943504D01*
X138469068Y-64737266D01*
X138338547Y-64550861D01*
X138338545Y-64550858D01*
X138177641Y-64389954D01*
X137991234Y-64259432D01*
X137991228Y-64259429D01*
X137933225Y-64232382D01*
X137880785Y-64186210D01*
X137861633Y-64119017D01*
X137881848Y-64052135D01*
X137933225Y-64007618D01*
X137991234Y-63980568D01*
X138177639Y-63850047D01*
X138338547Y-63689139D01*
X138469068Y-63502734D01*
X138565239Y-63296496D01*
X138624135Y-63076692D01*
X138643968Y-62850000D01*
X138624135Y-62623308D01*
X138565239Y-62403504D01*
X138469068Y-62197266D01*
X138390455Y-62084994D01*
X177094357Y-62084994D01*
X177094357Y-62085005D01*
X177114890Y-62332812D01*
X177114892Y-62332824D01*
X177175936Y-62573881D01*
X177258603Y-62762341D01*
X177275827Y-62801607D01*
X177406742Y-63001988D01*
X177426929Y-63068877D01*
X177407749Y-63136063D01*
X177362367Y-63178637D01*
X177357670Y-63181201D01*
X177242455Y-63267452D01*
X177242452Y-63267455D01*
X177156206Y-63382664D01*
X177156202Y-63382671D01*
X177105908Y-63517517D01*
X177099501Y-63577116D01*
X177099501Y-63577123D01*
X177099500Y-63577135D01*
X177099500Y-65672870D01*
X177099501Y-65672876D01*
X177105908Y-65732483D01*
X177156202Y-65867328D01*
X177156206Y-65867335D01*
X177242452Y-65982544D01*
X177242455Y-65982547D01*
X177357664Y-66068793D01*
X177357671Y-66068797D01*
X177492517Y-66119091D01*
X177492516Y-66119091D01*
X177499444Y-66119835D01*
X177552127Y-66125500D01*
X179647872Y-66125499D01*
X179707483Y-66119091D01*
X179842331Y-66068796D01*
X179957546Y-65982546D01*
X180043796Y-65867331D01*
X180094091Y-65732483D01*
X180100500Y-65672873D01*
X180100499Y-63577128D01*
X180094091Y-63517517D01*
X180088577Y-63502734D01*
X180043797Y-63382671D01*
X180043793Y-63382664D01*
X179957547Y-63267455D01*
X179957544Y-63267452D01*
X179842332Y-63181204D01*
X179837635Y-63178639D01*
X179788232Y-63129232D01*
X179773382Y-63060958D01*
X179793257Y-63001989D01*
X179924173Y-62801607D01*
X180024063Y-62573881D01*
X180085108Y-62332821D01*
X180094655Y-62217610D01*
X180105643Y-62085005D01*
X180105643Y-62084994D01*
X180085109Y-61837187D01*
X180085107Y-61837175D01*
X180024063Y-61596118D01*
X179924173Y-61368393D01*
X179788166Y-61160217D01*
X179766557Y-61136744D01*
X179619744Y-60977262D01*
X179423509Y-60824526D01*
X179423507Y-60824525D01*
X179423506Y-60824524D01*
X179204811Y-60706172D01*
X179204802Y-60706169D01*
X178969616Y-60625429D01*
X178724335Y-60584500D01*
X178475665Y-60584500D01*
X178230383Y-60625429D01*
X177995197Y-60706169D01*
X177995188Y-60706172D01*
X177776493Y-60824524D01*
X177580257Y-60977261D01*
X177411833Y-61160217D01*
X177275826Y-61368393D01*
X177175936Y-61596118D01*
X177114892Y-61837175D01*
X177114890Y-61837187D01*
X177094357Y-62084994D01*
X138390455Y-62084994D01*
X138371339Y-62057693D01*
X138338545Y-62010858D01*
X138177641Y-61849954D01*
X137991234Y-61719432D01*
X137991228Y-61719429D01*
X137963538Y-61706517D01*
X137933224Y-61692381D01*
X137880785Y-61646210D01*
X137861633Y-61579017D01*
X137881848Y-61512135D01*
X137933225Y-61467618D01*
X137991234Y-61440568D01*
X138177639Y-61310047D01*
X138338547Y-61149139D01*
X138469068Y-60962734D01*
X138565239Y-60756496D01*
X138624135Y-60536692D01*
X138643968Y-60310000D01*
X138624135Y-60083308D01*
X138565239Y-59863504D01*
X138469068Y-59657266D01*
X138338547Y-59470861D01*
X138338545Y-59470858D01*
X138177641Y-59309954D01*
X137991234Y-59179432D01*
X137991228Y-59179429D01*
X137933225Y-59152382D01*
X137880785Y-59106210D01*
X137861633Y-59039017D01*
X137881848Y-58972135D01*
X137933225Y-58927618D01*
X137933819Y-58927341D01*
X137991234Y-58900568D01*
X138177639Y-58770047D01*
X138338547Y-58609139D01*
X138469068Y-58422734D01*
X138565239Y-58216496D01*
X138583058Y-58149996D01*
X138894435Y-58149996D01*
X138894435Y-58150003D01*
X138914630Y-58329249D01*
X138914631Y-58329254D01*
X138974211Y-58499523D01*
X139056449Y-58630403D01*
X139070184Y-58652262D01*
X139197738Y-58779816D01*
X139350478Y-58875789D01*
X139497805Y-58927341D01*
X139520745Y-58935368D01*
X139520750Y-58935369D01*
X139699996Y-58955565D01*
X139700000Y-58955565D01*
X139700004Y-58955565D01*
X139879249Y-58935369D01*
X139879252Y-58935368D01*
X139879255Y-58935368D01*
X140049522Y-58875789D01*
X140202262Y-58779816D01*
X140329816Y-58652262D01*
X140425789Y-58499522D01*
X140485368Y-58329255D01*
X140485369Y-58329249D01*
X140505565Y-58150003D01*
X140505565Y-58149996D01*
X140485369Y-57970750D01*
X140485368Y-57970745D01*
X140471581Y-57931344D01*
X140425789Y-57800478D01*
X140406638Y-57770000D01*
X140329815Y-57647737D01*
X140202262Y-57520184D01*
X140049523Y-57424211D01*
X139879254Y-57364631D01*
X139879249Y-57364630D01*
X139700004Y-57344435D01*
X139699996Y-57344435D01*
X139520750Y-57364630D01*
X139520745Y-57364631D01*
X139350476Y-57424211D01*
X139197737Y-57520184D01*
X139070184Y-57647737D01*
X138974211Y-57800476D01*
X138914631Y-57970745D01*
X138914630Y-57970750D01*
X138894435Y-58149996D01*
X138583058Y-58149996D01*
X138624135Y-57996692D01*
X138643968Y-57770000D01*
X138624135Y-57543308D01*
X138574082Y-57356505D01*
X138565241Y-57323511D01*
X138565238Y-57323502D01*
X138549127Y-57288952D01*
X138469068Y-57117266D01*
X138338547Y-56930861D01*
X138338545Y-56930858D01*
X138177641Y-56769954D01*
X137991234Y-56639432D01*
X137991228Y-56639429D01*
X137933225Y-56612382D01*
X137880785Y-56566210D01*
X137861633Y-56499017D01*
X137881848Y-56432135D01*
X137933225Y-56387618D01*
X137991234Y-56360568D01*
X138177639Y-56230047D01*
X138338547Y-56069139D01*
X138469068Y-55882734D01*
X138565239Y-55676496D01*
X138624135Y-55456692D01*
X138643968Y-55230000D01*
X138643599Y-55225788D01*
X138633393Y-55109125D01*
X138624135Y-55003308D01*
X138574082Y-54816505D01*
X138565241Y-54783511D01*
X138565238Y-54783502D01*
X138517424Y-54680965D01*
X138469068Y-54577266D01*
X138414963Y-54499996D01*
X139194435Y-54499996D01*
X139194435Y-54500003D01*
X139214630Y-54679249D01*
X139214631Y-54679254D01*
X139274211Y-54849523D01*
X139304594Y-54897877D01*
X139370184Y-55002262D01*
X139497738Y-55129816D01*
X139650478Y-55225789D01*
X139820299Y-55285212D01*
X139820745Y-55285368D01*
X139820750Y-55285369D01*
X139999996Y-55305565D01*
X140000000Y-55305565D01*
X140000004Y-55305565D01*
X140179249Y-55285369D01*
X140179252Y-55285368D01*
X140179255Y-55285368D01*
X140349522Y-55225789D01*
X140502262Y-55129816D01*
X140629816Y-55002262D01*
X140725789Y-54849522D01*
X140785368Y-54679255D01*
X140788238Y-54653784D01*
X140805565Y-54500003D01*
X140805565Y-54499996D01*
X140785369Y-54320750D01*
X140785368Y-54320745D01*
X140753599Y-54229954D01*
X140725789Y-54150478D01*
X140629816Y-53997738D01*
X140502262Y-53870184D01*
X140349523Y-53774211D01*
X140179254Y-53714631D01*
X140179249Y-53714630D01*
X140000004Y-53694435D01*
X139999996Y-53694435D01*
X139820750Y-53714630D01*
X139820745Y-53714631D01*
X139650476Y-53774211D01*
X139497737Y-53870184D01*
X139423558Y-53944364D01*
X139370184Y-53997738D01*
X139368234Y-54000842D01*
X139274211Y-54150476D01*
X139214631Y-54320745D01*
X139214630Y-54320750D01*
X139194435Y-54499996D01*
X138414963Y-54499996D01*
X138338547Y-54390861D01*
X138338545Y-54390858D01*
X138177641Y-54229954D01*
X137991234Y-54099432D01*
X137991232Y-54099431D01*
X137784997Y-54003261D01*
X137784988Y-54003258D01*
X137565197Y-53944366D01*
X137565193Y-53944365D01*
X137565192Y-53944365D01*
X137565191Y-53944364D01*
X137565186Y-53944364D01*
X137338502Y-53924532D01*
X137338498Y-53924532D01*
X137111813Y-53944364D01*
X137111802Y-53944366D01*
X136892011Y-54003258D01*
X136892002Y-54003261D01*
X136685767Y-54099431D01*
X136685765Y-54099432D01*
X136499358Y-54229954D01*
X136338454Y-54390858D01*
X136207932Y-54577265D01*
X136207931Y-54577267D01*
X136111761Y-54783502D01*
X136111758Y-54783511D01*
X136052866Y-55003302D01*
X136052864Y-55003313D01*
X136033032Y-55229998D01*
X123403968Y-55229998D01*
X123403599Y-55225788D01*
X123393393Y-55109125D01*
X123384135Y-55003308D01*
X123334082Y-54816505D01*
X123325241Y-54783511D01*
X123325238Y-54783502D01*
X123277424Y-54680965D01*
X123229068Y-54577266D01*
X123098547Y-54390861D01*
X123098545Y-54390858D01*
X122937641Y-54229954D01*
X122751234Y-54099432D01*
X122751232Y-54099431D01*
X122544997Y-54003261D01*
X122544988Y-54003258D01*
X122325197Y-53944366D01*
X122325193Y-53944365D01*
X122325192Y-53944365D01*
X122325191Y-53944364D01*
X122325186Y-53944364D01*
X122098502Y-53924532D01*
X122098498Y-53924532D01*
X121871813Y-53944364D01*
X121871802Y-53944366D01*
X121652011Y-54003258D01*
X121652002Y-54003261D01*
X121445767Y-54099431D01*
X121445765Y-54099432D01*
X121259358Y-54229954D01*
X121098454Y-54390858D01*
X120967932Y-54577265D01*
X120967931Y-54577267D01*
X120871761Y-54783502D01*
X120871758Y-54783511D01*
X120812866Y-55003302D01*
X120812864Y-55003313D01*
X120793032Y-55229998D01*
X114315562Y-55229998D01*
X114552789Y-55109125D01*
X114878084Y-54897876D01*
X115179516Y-54653781D01*
X115453781Y-54379516D01*
X115697876Y-54078084D01*
X115909125Y-53752789D01*
X116085214Y-53407194D01*
X116120604Y-53314999D01*
X141654841Y-53314999D01*
X141654841Y-53315000D01*
X141675436Y-53550403D01*
X141675438Y-53550413D01*
X141736594Y-53778655D01*
X141736596Y-53778659D01*
X141736597Y-53778663D01*
X141740500Y-53787032D01*
X141836465Y-53992830D01*
X141836467Y-53992834D01*
X141944781Y-54147521D01*
X141972001Y-54186396D01*
X141972006Y-54186402D01*
X142139097Y-54353493D01*
X142139103Y-54353498D01*
X142324658Y-54483425D01*
X142368283Y-54538002D01*
X142375477Y-54607500D01*
X142343954Y-54669855D01*
X142324658Y-54686575D01*
X142139097Y-54816505D01*
X141972005Y-54983597D01*
X141836465Y-55177169D01*
X141836464Y-55177171D01*
X141736598Y-55391335D01*
X141736594Y-55391344D01*
X141675438Y-55619586D01*
X141675436Y-55619596D01*
X141654841Y-55854999D01*
X141654841Y-55855000D01*
X141675436Y-56090403D01*
X141675438Y-56090413D01*
X141736594Y-56318655D01*
X141736596Y-56318659D01*
X141736597Y-56318663D01*
X141821156Y-56500000D01*
X141836465Y-56532830D01*
X141836467Y-56532834D01*
X141911412Y-56639865D01*
X141972001Y-56726396D01*
X141972006Y-56726402D01*
X142139097Y-56893493D01*
X142139103Y-56893498D01*
X142324658Y-57023425D01*
X142368283Y-57078002D01*
X142375477Y-57147500D01*
X142343954Y-57209855D01*
X142324658Y-57226575D01*
X142139097Y-57356505D01*
X141972005Y-57523597D01*
X141836465Y-57717169D01*
X141836464Y-57717171D01*
X141736598Y-57931335D01*
X141736594Y-57931344D01*
X141675438Y-58159586D01*
X141675436Y-58159596D01*
X141654841Y-58394999D01*
X141654841Y-58395000D01*
X141675436Y-58630403D01*
X141675438Y-58630413D01*
X141736594Y-58858655D01*
X141736596Y-58858659D01*
X141736597Y-58858663D01*
X141789510Y-58972135D01*
X141836465Y-59072830D01*
X141836467Y-59072834D01*
X141911109Y-59179433D01*
X141972005Y-59266401D01*
X142139099Y-59433495D01*
X142192459Y-59470858D01*
X142332665Y-59569032D01*
X142332667Y-59569033D01*
X142332670Y-59569035D01*
X142546837Y-59668903D01*
X142775092Y-59730063D01*
X142963418Y-59746539D01*
X143010499Y-59750659D01*
X143010500Y-59750659D01*
X143010501Y-59750659D01*
X143049734Y-59747226D01*
X143245908Y-59730063D01*
X143474163Y-59668903D01*
X143688330Y-59569035D01*
X143881901Y-59433495D01*
X144048995Y-59266401D01*
X144178925Y-59080842D01*
X144233502Y-59037217D01*
X144303000Y-59030023D01*
X144365355Y-59061546D01*
X144382075Y-59080842D01*
X144512000Y-59266395D01*
X144512005Y-59266401D01*
X144679099Y-59433495D01*
X144732459Y-59470858D01*
X144872665Y-59569032D01*
X144872667Y-59569033D01*
X144872670Y-59569035D01*
X145086837Y-59668903D01*
X145315092Y-59730063D01*
X145503418Y-59746539D01*
X145550499Y-59750659D01*
X145550500Y-59750659D01*
X145550501Y-59750659D01*
X145589734Y-59747226D01*
X145785908Y-59730063D01*
X146014163Y-59668903D01*
X146228330Y-59569035D01*
X146421901Y-59433495D01*
X146588995Y-59266401D01*
X146724535Y-59072830D01*
X146824403Y-58858663D01*
X146885563Y-58630408D01*
X146906159Y-58395000D01*
X146885563Y-58159592D01*
X146824403Y-57931337D01*
X146724535Y-57717171D01*
X146718925Y-57709158D01*
X146588994Y-57523597D01*
X146421902Y-57356506D01*
X146421896Y-57356501D01*
X146236342Y-57226575D01*
X146192717Y-57171998D01*
X146185523Y-57102500D01*
X146217046Y-57040145D01*
X146236342Y-57023425D01*
X146258526Y-57007891D01*
X146421901Y-56893495D01*
X146588995Y-56726401D01*
X146724535Y-56532830D01*
X146824403Y-56318663D01*
X146885563Y-56090408D01*
X146906159Y-55855000D01*
X146885563Y-55619592D01*
X146833212Y-55424214D01*
X146824405Y-55391344D01*
X146824404Y-55391343D01*
X146824403Y-55391337D01*
X146724535Y-55177171D01*
X146718925Y-55169158D01*
X146588994Y-54983597D01*
X146421902Y-54816506D01*
X146421896Y-54816501D01*
X146236342Y-54686575D01*
X146192717Y-54631998D01*
X146185523Y-54562500D01*
X146217046Y-54500145D01*
X146236342Y-54483425D01*
X146258526Y-54467891D01*
X146421901Y-54353495D01*
X146588995Y-54186401D01*
X146724535Y-53992830D01*
X146824403Y-53778663D01*
X146885563Y-53550408D01*
X146906159Y-53315000D01*
X146885563Y-53079592D01*
X146824403Y-52851337D01*
X146724535Y-52637171D01*
X146718925Y-52629158D01*
X146588994Y-52443597D01*
X146421902Y-52276506D01*
X146421901Y-52276505D01*
X146235905Y-52146269D01*
X146192281Y-52091692D01*
X146185088Y-52022193D01*
X146216610Y-51959839D01*
X146235905Y-51943119D01*
X146311873Y-51889925D01*
X145679909Y-51257962D01*
X145743493Y-51240925D01*
X145857507Y-51175099D01*
X145950599Y-51082007D01*
X146016425Y-50967993D01*
X146033462Y-50904409D01*
X146665425Y-51536373D01*
X146665426Y-51536373D01*
X146724098Y-51452582D01*
X146724100Y-51452578D01*
X146823929Y-51238492D01*
X146823933Y-51238483D01*
X146885067Y-51010326D01*
X146885069Y-51010315D01*
X146905657Y-50775001D01*
X146905657Y-50774998D01*
X146885069Y-50539684D01*
X146885067Y-50539673D01*
X146823933Y-50311516D01*
X146823929Y-50311507D01*
X146724100Y-50097423D01*
X146724099Y-50097421D01*
X146665425Y-50013626D01*
X146665425Y-50013625D01*
X146033462Y-50645589D01*
X146016425Y-50582007D01*
X145950599Y-50467993D01*
X145857507Y-50374901D01*
X145743493Y-50309075D01*
X145679910Y-50292037D01*
X146311873Y-49660073D01*
X146311873Y-49660072D01*
X146228083Y-49601402D01*
X146228079Y-49601400D01*
X146013992Y-49501570D01*
X146013983Y-49501566D01*
X145785826Y-49440432D01*
X145785815Y-49440430D01*
X145550502Y-49419843D01*
X145550498Y-49419843D01*
X145315184Y-49440430D01*
X145315173Y-49440432D01*
X145087016Y-49501566D01*
X145087007Y-49501570D01*
X144872919Y-49601401D01*
X144789125Y-49660072D01*
X145421090Y-50292037D01*
X145357507Y-50309075D01*
X145243493Y-50374901D01*
X145150401Y-50467993D01*
X145084575Y-50582007D01*
X145067537Y-50645589D01*
X144397318Y-49975370D01*
X144363833Y-49914047D01*
X144360999Y-49887689D01*
X144360999Y-49877129D01*
X144360998Y-49877123D01*
X144360997Y-49877116D01*
X144354591Y-49817517D01*
X144304296Y-49682669D01*
X144304295Y-49682668D01*
X144304293Y-49682664D01*
X144218047Y-49567455D01*
X144218044Y-49567452D01*
X144102835Y-49481206D01*
X144102828Y-49481202D01*
X143967982Y-49430908D01*
X143967983Y-49430908D01*
X143908383Y-49424501D01*
X143908381Y-49424500D01*
X143908373Y-49424500D01*
X143908364Y-49424500D01*
X142112629Y-49424500D01*
X142112623Y-49424501D01*
X142053016Y-49430908D01*
X141918171Y-49481202D01*
X141918164Y-49481206D01*
X141802955Y-49567452D01*
X141802952Y-49567455D01*
X141716706Y-49682664D01*
X141716702Y-49682671D01*
X141666408Y-49817517D01*
X141660001Y-49877116D01*
X141660001Y-49877123D01*
X141660000Y-49877135D01*
X141660000Y-51672870D01*
X141660001Y-51672876D01*
X141666408Y-51732483D01*
X141716702Y-51867328D01*
X141716706Y-51867335D01*
X141802952Y-51982544D01*
X141802955Y-51982547D01*
X141918164Y-52068793D01*
X141918171Y-52068797D01*
X142049581Y-52117810D01*
X142105515Y-52159681D01*
X142129932Y-52225145D01*
X142115080Y-52293418D01*
X142093930Y-52321673D01*
X141972003Y-52443600D01*
X141836465Y-52637169D01*
X141836464Y-52637171D01*
X141736598Y-52851335D01*
X141736594Y-52851344D01*
X141675438Y-53079586D01*
X141675436Y-53079596D01*
X141654841Y-53314999D01*
X116120604Y-53314999D01*
X116224214Y-53045087D01*
X116324602Y-52670433D01*
X116385278Y-52287338D01*
X116405578Y-51900000D01*
X116385278Y-51512662D01*
X116324602Y-51129567D01*
X116224214Y-50754913D01*
X116085214Y-50392806D01*
X115909125Y-50047211D01*
X115862471Y-49975370D01*
X115697877Y-49721917D01*
X115502951Y-49481204D01*
X115453781Y-49420484D01*
X115179516Y-49146219D01*
X114878084Y-48902124D01*
X114878082Y-48902122D01*
X114552793Y-48690877D01*
X114443098Y-48634985D01*
X114392302Y-48587011D01*
X114375507Y-48519190D01*
X114398044Y-48453055D01*
X114452759Y-48409603D01*
X114499393Y-48400500D01*
X176900607Y-48400500D01*
X176967646Y-48420185D01*
G37*
%TD.AperFunction*%
%TD*%
M02*
