M48
; DRILL file {KiCad 8.0.5} date 2025-02-12T03:45:18+0700
; FORMAT={-:-/ absolute / inch / decimal}
; #@! TF.CreationDate,2025-02-12T03:45:18+07:00
; #@! TF.GenerationSoftware,Kicad,Pcbnew,8.0.5
; #@! TF.FileFunction,Plated,1,4,PTH
FMAT,2
INCH
; #@! TA.AperFunction,Plated,PTH,ViaDrill
T1C0.0118
; #@! TA.AperFunction,Plated,PTH,ComponentDrill
T2C0.0197
; #@! TA.AperFunction,Plated,PTH,ComponentDrill
T3C0.0295
; #@! TA.AperFunction,Plated,PTH,ComponentDrill
T4C0.0394
; #@! TA.AperFunction,Plated,PTH,ComponentDrill
T5C0.0472
; #@! TA.AperFunction,Plated,PTH,ComponentDrill
T6C0.0512
; #@! TA.AperFunction,Plated,PTH,ComponentDrill
T7C0.1260
%
G90
G05
T1
X5.5Y-2.2894
X5.5118Y-2.1457
X5.6713Y-3.8091
X5.6732Y-3.1752
T2
X4.3425Y-2.0433
X4.3425Y-3.7756
X4.3702Y-1.9765
X4.3702Y-2.1101
X4.3702Y-3.7088
X4.3702Y-3.8424
X4.437Y-1.9488
X4.437Y-2.1378
X4.437Y-3.6811
X4.437Y-3.8701
X4.5038Y-1.9765
X4.5038Y-2.1101
X4.5038Y-3.7088
X4.5038Y-3.8424
X4.5315Y-2.0433
X4.5315Y-3.7756
X6.9409Y-2.0433
X6.9409Y-3.7756
X6.9686Y-1.9765
X6.9686Y-2.1101
X6.9686Y-3.7088
X6.9686Y-3.8424
X7.0354Y-1.9488
X7.0354Y-2.1378
X7.0354Y-3.6811
X7.0354Y-3.8701
X7.1022Y-1.9765
X7.1022Y-2.1101
X7.1022Y-3.7088
X7.1022Y-3.8424
X7.1299Y-2.0433
X7.1299Y-3.7756
T3
X4.4016Y-2.2977
X4.4016Y-2.3765
X4.4016Y-2.4552
X4.4016Y-2.6544
X4.4016Y-2.7331
X4.4016Y-2.8119
X4.4016Y-3.0111
X4.4016Y-3.0898
X4.4016Y-3.1686
X4.4016Y-3.3677
X4.4016Y-3.4465
X4.4016Y-3.5252
T4
X4.807Y-2.1744
X4.807Y-2.2744
X4.807Y-2.3744
X4.807Y-2.4744
X4.807Y-2.5744
X4.807Y-2.6744
X4.807Y-2.7744
X4.807Y-2.8744
X4.807Y-2.9744
X4.807Y-3.0744
X4.807Y-3.1744
X4.807Y-3.2744
X4.807Y-3.3744
X4.807Y-3.4744
X4.807Y-3.5744
X5.407Y-2.1744
X5.407Y-2.2744
X5.407Y-2.3744
X5.407Y-2.4744
X5.407Y-2.5744
X5.407Y-2.6744
X5.407Y-2.7744
X5.407Y-2.8744
X5.407Y-2.9744
X5.407Y-3.0744
X5.407Y-3.1744
X5.407Y-3.2744
X5.407Y-3.3744
X5.407Y-3.4744
X5.407Y-3.5744
X5.6303Y-1.999
X5.6303Y-2.099
X5.6303Y-2.199
X5.6303Y-2.299
X5.7303Y-1.999
X5.7303Y-2.099
X5.7303Y-2.199
X5.7303Y-2.299
T5
X7.0315Y-2.4443
X7.0315Y-2.5443
X7.0315Y-2.7917
X7.0315Y-2.8917
X7.0315Y-2.9917
X7.0315Y-3.2638
X7.0315Y-3.3638
X7.0315Y-3.4638
T6
X5.9724Y-2.8878
X5.9724Y-3.5177
X6.0512Y-2.6516
X6.0512Y-3.124
X6.0512Y-3.2815
X6.0512Y-3.7539
X6.5315Y-2.6516
X6.5315Y-3.124
X6.5315Y-3.2815
X6.5315Y-3.7539
T7
X4.437Y-2.0433
X4.437Y-3.7756
X7.0354Y-2.0433
X7.0354Y-3.7756
M30
