%TF.GenerationSoftware,KiCad,Pcbnew,8.0.5*%
%TF.CreationDate,2025-02-12T03:45:18+07:00*%
%TF.ProjectId,SmartFarmMySensors_ArduinoNano,536d6172-7446-4617-926d-4d7953656e73,rev?*%
%TF.SameCoordinates,Original*%
%TF.FileFunction,Legend,Top*%
%TF.FilePolarity,Positive*%
%FSLAX46Y46*%
G04 Gerber Fmt 4.6, Leading zero omitted, Abs format (unit mm)*
G04 Created by KiCad (PCBNEW 8.0.5) date 2025-02-12 03:45:18*
%MOMM*%
%LPD*%
G01*
G04 APERTURE LIST*
G04 Aperture macros list*
%AMRoundRect*
0 Rectangle with rounded corners*
0 $1 Rounding radius*
0 $2 $3 $4 $5 $6 $7 $8 $9 X,Y pos of 4 corners*
0 Add a 4 corners polygon primitive as box body*
4,1,4,$2,$3,$4,$5,$6,$7,$8,$9,$2,$3,0*
0 Add four circle primitives for the rounded corners*
1,1,$1+$1,$2,$3*
1,1,$1+$1,$4,$5*
1,1,$1+$1,$6,$7*
1,1,$1+$1,$8,$9*
0 Add four rect primitives between the rounded corners*
20,1,$1+$1,$2,$3,$4,$5,0*
20,1,$1+$1,$4,$5,$6,$7,0*
20,1,$1+$1,$6,$7,$8,$9,0*
20,1,$1+$1,$8,$9,$2,$3,0*%
G04 Aperture macros list end*
%ADD10C,0.400000*%
%ADD11C,0.300000*%
%ADD12C,0.200000*%
%ADD13C,0.150000*%
%ADD14C,0.156250*%
%ADD15C,0.120000*%
%ADD16R,1.700000X1.700000*%
%ADD17C,1.700000*%
%ADD18RoundRect,0.150000X-0.587500X-0.150000X0.587500X-0.150000X0.587500X0.150000X-0.587500X0.150000X0*%
%ADD19C,2.400000*%
%ADD20RoundRect,0.250000X1.000000X-1.000000X1.000000X1.000000X-1.000000X1.000000X-1.000000X-1.000000X0*%
%ADD21R,2.000000X2.000000*%
%ADD22C,2.000000*%
%ADD23RoundRect,0.250000X0.625000X-0.350000X0.625000X0.350000X-0.625000X0.350000X-0.625000X-0.350000X0*%
%ADD24O,1.750000X1.200000*%
%ADD25C,0.800000*%
%ADD26C,6.400000*%
%ADD27RoundRect,0.250000X-0.650000X1.000000X-0.650000X-1.000000X0.650000X-1.000000X0.650000X1.000000X0*%
%ADD28R,1.600000X1.600000*%
%ADD29O,1.600000X1.600000*%
G04 APERTURE END LIST*
D10*
X142489200Y-85305890D02*
X142584438Y-85020176D01*
X142584438Y-85020176D02*
X142584438Y-84543985D01*
X142584438Y-84543985D02*
X142489200Y-84353509D01*
X142489200Y-84353509D02*
X142393961Y-84258271D01*
X142393961Y-84258271D02*
X142203485Y-84163033D01*
X142203485Y-84163033D02*
X142013009Y-84163033D01*
X142013009Y-84163033D02*
X141822533Y-84258271D01*
X141822533Y-84258271D02*
X141727295Y-84353509D01*
X141727295Y-84353509D02*
X141632057Y-84543985D01*
X141632057Y-84543985D02*
X141536819Y-84924938D01*
X141536819Y-84924938D02*
X141441580Y-85115414D01*
X141441580Y-85115414D02*
X141346342Y-85210652D01*
X141346342Y-85210652D02*
X141155866Y-85305890D01*
X141155866Y-85305890D02*
X140965390Y-85305890D01*
X140965390Y-85305890D02*
X140774914Y-85210652D01*
X140774914Y-85210652D02*
X140679676Y-85115414D01*
X140679676Y-85115414D02*
X140584438Y-84924938D01*
X140584438Y-84924938D02*
X140584438Y-84448747D01*
X140584438Y-84448747D02*
X140679676Y-84163033D01*
X142584438Y-83305890D02*
X140584438Y-83305890D01*
X141536819Y-82353509D02*
X141536819Y-81686842D01*
X142584438Y-81401128D02*
X142584438Y-82353509D01*
X142584438Y-82353509D02*
X140584438Y-82353509D01*
X140584438Y-82353509D02*
X140584438Y-81401128D01*
X140584438Y-80829699D02*
X140584438Y-79686842D01*
X142584438Y-80258271D02*
X140584438Y-80258271D01*
X142393961Y-79020175D02*
X142489200Y-78924937D01*
X142489200Y-78924937D02*
X142584438Y-79020175D01*
X142584438Y-79020175D02*
X142489200Y-79115413D01*
X142489200Y-79115413D02*
X142393961Y-79020175D01*
X142393961Y-79020175D02*
X142584438Y-79020175D01*
X142489200Y-77972556D02*
X142584438Y-77972556D01*
X142584438Y-77972556D02*
X142774914Y-78067794D01*
X142774914Y-78067794D02*
X142870152Y-78163032D01*
X142584438Y-75591603D02*
X140584438Y-75591603D01*
X142584438Y-74448746D02*
X141441580Y-75305889D01*
X140584438Y-74448746D02*
X141727295Y-75591603D01*
X142584438Y-73591603D02*
X140584438Y-73591603D01*
X140584438Y-73591603D02*
X142013009Y-72924936D01*
X142013009Y-72924936D02*
X140584438Y-72258270D01*
X140584438Y-72258270D02*
X142584438Y-72258270D01*
X142584438Y-71305889D02*
X140584438Y-71305889D01*
X140584438Y-70639222D02*
X140584438Y-69496365D01*
X142584438Y-70067794D02*
X140584438Y-70067794D01*
X142584438Y-67877317D02*
X142584438Y-68829698D01*
X142584438Y-68829698D02*
X140584438Y-68829698D01*
X142393961Y-67210650D02*
X142489200Y-67115412D01*
X142489200Y-67115412D02*
X142584438Y-67210650D01*
X142584438Y-67210650D02*
X142489200Y-67305888D01*
X142489200Y-67305888D02*
X142393961Y-67210650D01*
X142393961Y-67210650D02*
X142584438Y-67210650D01*
D11*
X118090225Y-96450828D02*
X118590225Y-97950828D01*
X118590225Y-97950828D02*
X119090225Y-96450828D01*
X120447367Y-97807971D02*
X120375939Y-97879400D01*
X120375939Y-97879400D02*
X120161653Y-97950828D01*
X120161653Y-97950828D02*
X120018796Y-97950828D01*
X120018796Y-97950828D02*
X119804510Y-97879400D01*
X119804510Y-97879400D02*
X119661653Y-97736542D01*
X119661653Y-97736542D02*
X119590224Y-97593685D01*
X119590224Y-97593685D02*
X119518796Y-97307971D01*
X119518796Y-97307971D02*
X119518796Y-97093685D01*
X119518796Y-97093685D02*
X119590224Y-96807971D01*
X119590224Y-96807971D02*
X119661653Y-96665114D01*
X119661653Y-96665114D02*
X119804510Y-96522257D01*
X119804510Y-96522257D02*
X120018796Y-96450828D01*
X120018796Y-96450828D02*
X120161653Y-96450828D01*
X120161653Y-96450828D02*
X120375939Y-96522257D01*
X120375939Y-96522257D02*
X120447367Y-96593685D01*
X121947367Y-97807971D02*
X121875939Y-97879400D01*
X121875939Y-97879400D02*
X121661653Y-97950828D01*
X121661653Y-97950828D02*
X121518796Y-97950828D01*
X121518796Y-97950828D02*
X121304510Y-97879400D01*
X121304510Y-97879400D02*
X121161653Y-97736542D01*
X121161653Y-97736542D02*
X121090224Y-97593685D01*
X121090224Y-97593685D02*
X121018796Y-97307971D01*
X121018796Y-97307971D02*
X121018796Y-97093685D01*
X121018796Y-97093685D02*
X121090224Y-96807971D01*
X121090224Y-96807971D02*
X121161653Y-96665114D01*
X121161653Y-96665114D02*
X121304510Y-96522257D01*
X121304510Y-96522257D02*
X121518796Y-96450828D01*
X121518796Y-96450828D02*
X121661653Y-96450828D01*
X121661653Y-96450828D02*
X121875939Y-96522257D01*
X121875939Y-96522257D02*
X121947367Y-96593685D01*
X123733081Y-97165114D02*
X124875939Y-97165114D01*
X124875939Y-97593685D02*
X123733081Y-97593685D01*
X126733081Y-97379400D02*
X127875939Y-97379400D01*
X127304510Y-97950828D02*
X127304510Y-96807971D01*
X128447367Y-96450828D02*
X129375939Y-96450828D01*
X129375939Y-96450828D02*
X128875939Y-97022257D01*
X128875939Y-97022257D02*
X129090224Y-97022257D01*
X129090224Y-97022257D02*
X129233082Y-97093685D01*
X129233082Y-97093685D02*
X129304510Y-97165114D01*
X129304510Y-97165114D02*
X129375939Y-97307971D01*
X129375939Y-97307971D02*
X129375939Y-97665114D01*
X129375939Y-97665114D02*
X129304510Y-97807971D01*
X129304510Y-97807971D02*
X129233082Y-97879400D01*
X129233082Y-97879400D02*
X129090224Y-97950828D01*
X129090224Y-97950828D02*
X128661653Y-97950828D01*
X128661653Y-97950828D02*
X128518796Y-97879400D01*
X128518796Y-97879400D02*
X128447367Y-97807971D01*
X130018795Y-97807971D02*
X130090224Y-97879400D01*
X130090224Y-97879400D02*
X130018795Y-97950828D01*
X130018795Y-97950828D02*
X129947367Y-97879400D01*
X129947367Y-97879400D02*
X130018795Y-97807971D01*
X130018795Y-97807971D02*
X130018795Y-97950828D01*
X130590224Y-96450828D02*
X131518796Y-96450828D01*
X131518796Y-96450828D02*
X131018796Y-97022257D01*
X131018796Y-97022257D02*
X131233081Y-97022257D01*
X131233081Y-97022257D02*
X131375939Y-97093685D01*
X131375939Y-97093685D02*
X131447367Y-97165114D01*
X131447367Y-97165114D02*
X131518796Y-97307971D01*
X131518796Y-97307971D02*
X131518796Y-97665114D01*
X131518796Y-97665114D02*
X131447367Y-97807971D01*
X131447367Y-97807971D02*
X131375939Y-97879400D01*
X131375939Y-97879400D02*
X131233081Y-97950828D01*
X131233081Y-97950828D02*
X130804510Y-97950828D01*
X130804510Y-97950828D02*
X130661653Y-97879400D01*
X130661653Y-97879400D02*
X130590224Y-97807971D01*
X131947367Y-96450828D02*
X132447367Y-97950828D01*
X132447367Y-97950828D02*
X132947367Y-96450828D01*
D12*
X150495864Y-57077528D02*
X150495864Y-55577528D01*
X150495864Y-55577528D02*
X151353007Y-57077528D01*
X151353007Y-57077528D02*
X151353007Y-55577528D01*
X152924436Y-57077528D02*
X152424436Y-56363242D01*
X152067293Y-57077528D02*
X152067293Y-55577528D01*
X152067293Y-55577528D02*
X152638722Y-55577528D01*
X152638722Y-55577528D02*
X152781579Y-55648957D01*
X152781579Y-55648957D02*
X152853008Y-55720385D01*
X152853008Y-55720385D02*
X152924436Y-55863242D01*
X152924436Y-55863242D02*
X152924436Y-56077528D01*
X152924436Y-56077528D02*
X152853008Y-56220385D01*
X152853008Y-56220385D02*
X152781579Y-56291814D01*
X152781579Y-56291814D02*
X152638722Y-56363242D01*
X152638722Y-56363242D02*
X152067293Y-56363242D01*
X154067293Y-56291814D02*
X153567293Y-56291814D01*
X153567293Y-57077528D02*
X153567293Y-55577528D01*
X153567293Y-55577528D02*
X154281579Y-55577528D01*
X154781579Y-55720385D02*
X154853007Y-55648957D01*
X154853007Y-55648957D02*
X154995865Y-55577528D01*
X154995865Y-55577528D02*
X155353007Y-55577528D01*
X155353007Y-55577528D02*
X155495865Y-55648957D01*
X155495865Y-55648957D02*
X155567293Y-55720385D01*
X155567293Y-55720385D02*
X155638722Y-55863242D01*
X155638722Y-55863242D02*
X155638722Y-56006100D01*
X155638722Y-56006100D02*
X155567293Y-56220385D01*
X155567293Y-56220385D02*
X154710150Y-57077528D01*
X154710150Y-57077528D02*
X155638722Y-57077528D01*
X156924436Y-56077528D02*
X156924436Y-57077528D01*
X156567293Y-55506100D02*
X156210150Y-56577528D01*
X156210150Y-56577528D02*
X157138721Y-56577528D01*
X158424435Y-57077528D02*
X157710149Y-57077528D01*
X157710149Y-57077528D02*
X157710149Y-55577528D01*
X159210150Y-55577528D02*
X159353007Y-55577528D01*
X159353007Y-55577528D02*
X159495864Y-55648957D01*
X159495864Y-55648957D02*
X159567293Y-55720385D01*
X159567293Y-55720385D02*
X159638721Y-55863242D01*
X159638721Y-55863242D02*
X159710150Y-56148957D01*
X159710150Y-56148957D02*
X159710150Y-56506100D01*
X159710150Y-56506100D02*
X159638721Y-56791814D01*
X159638721Y-56791814D02*
X159567293Y-56934671D01*
X159567293Y-56934671D02*
X159495864Y-57006100D01*
X159495864Y-57006100D02*
X159353007Y-57077528D01*
X159353007Y-57077528D02*
X159210150Y-57077528D01*
X159210150Y-57077528D02*
X159067293Y-57006100D01*
X159067293Y-57006100D02*
X158995864Y-56934671D01*
X158995864Y-56934671D02*
X158924435Y-56791814D01*
X158924435Y-56791814D02*
X158853007Y-56506100D01*
X158853007Y-56506100D02*
X158853007Y-56148957D01*
X158853007Y-56148957D02*
X158924435Y-55863242D01*
X158924435Y-55863242D02*
X158995864Y-55720385D01*
X158995864Y-55720385D02*
X159067293Y-55648957D01*
X159067293Y-55648957D02*
X159210150Y-55577528D01*
X161138721Y-57077528D02*
X160281578Y-57077528D01*
X160710149Y-57077528D02*
X160710149Y-55577528D01*
X160710149Y-55577528D02*
X160567292Y-55791814D01*
X160567292Y-55791814D02*
X160424435Y-55934671D01*
X160424435Y-55934671D02*
X160281578Y-56006100D01*
X129977457Y-79901280D02*
X129977457Y-79186995D01*
X130406028Y-80044137D02*
X128906028Y-79544137D01*
X128906028Y-79544137D02*
X130406028Y-79044137D01*
X130406028Y-77686995D02*
X129691742Y-78186995D01*
X130406028Y-78544138D02*
X128906028Y-78544138D01*
X128906028Y-78544138D02*
X128906028Y-77972709D01*
X128906028Y-77972709D02*
X128977457Y-77829852D01*
X128977457Y-77829852D02*
X129048885Y-77758423D01*
X129048885Y-77758423D02*
X129191742Y-77686995D01*
X129191742Y-77686995D02*
X129406028Y-77686995D01*
X129406028Y-77686995D02*
X129548885Y-77758423D01*
X129548885Y-77758423D02*
X129620314Y-77829852D01*
X129620314Y-77829852D02*
X129691742Y-77972709D01*
X129691742Y-77972709D02*
X129691742Y-78544138D01*
X130406028Y-77044138D02*
X128906028Y-77044138D01*
X128906028Y-77044138D02*
X128906028Y-76686995D01*
X128906028Y-76686995D02*
X128977457Y-76472709D01*
X128977457Y-76472709D02*
X129120314Y-76329852D01*
X129120314Y-76329852D02*
X129263171Y-76258423D01*
X129263171Y-76258423D02*
X129548885Y-76186995D01*
X129548885Y-76186995D02*
X129763171Y-76186995D01*
X129763171Y-76186995D02*
X130048885Y-76258423D01*
X130048885Y-76258423D02*
X130191742Y-76329852D01*
X130191742Y-76329852D02*
X130334600Y-76472709D01*
X130334600Y-76472709D02*
X130406028Y-76686995D01*
X130406028Y-76686995D02*
X130406028Y-77044138D01*
X128906028Y-75544138D02*
X130120314Y-75544138D01*
X130120314Y-75544138D02*
X130263171Y-75472709D01*
X130263171Y-75472709D02*
X130334600Y-75401281D01*
X130334600Y-75401281D02*
X130406028Y-75258423D01*
X130406028Y-75258423D02*
X130406028Y-74972709D01*
X130406028Y-74972709D02*
X130334600Y-74829852D01*
X130334600Y-74829852D02*
X130263171Y-74758423D01*
X130263171Y-74758423D02*
X130120314Y-74686995D01*
X130120314Y-74686995D02*
X128906028Y-74686995D01*
X130406028Y-73972709D02*
X128906028Y-73972709D01*
X130406028Y-73258423D02*
X128906028Y-73258423D01*
X128906028Y-73258423D02*
X130406028Y-72401280D01*
X130406028Y-72401280D02*
X128906028Y-72401280D01*
X128906028Y-71401279D02*
X128906028Y-71115565D01*
X128906028Y-71115565D02*
X128977457Y-70972708D01*
X128977457Y-70972708D02*
X129120314Y-70829851D01*
X129120314Y-70829851D02*
X129406028Y-70758422D01*
X129406028Y-70758422D02*
X129906028Y-70758422D01*
X129906028Y-70758422D02*
X130191742Y-70829851D01*
X130191742Y-70829851D02*
X130334600Y-70972708D01*
X130334600Y-70972708D02*
X130406028Y-71115565D01*
X130406028Y-71115565D02*
X130406028Y-71401279D01*
X130406028Y-71401279D02*
X130334600Y-71544137D01*
X130334600Y-71544137D02*
X130191742Y-71686994D01*
X130191742Y-71686994D02*
X129906028Y-71758422D01*
X129906028Y-71758422D02*
X129406028Y-71758422D01*
X129406028Y-71758422D02*
X129120314Y-71686994D01*
X129120314Y-71686994D02*
X128977457Y-71544137D01*
X128977457Y-71544137D02*
X128906028Y-71401279D01*
X130406028Y-68972708D02*
X128906028Y-68972708D01*
X128906028Y-68972708D02*
X130406028Y-68115565D01*
X130406028Y-68115565D02*
X128906028Y-68115565D01*
X129977457Y-67472707D02*
X129977457Y-66758422D01*
X130406028Y-67615564D02*
X128906028Y-67115564D01*
X128906028Y-67115564D02*
X130406028Y-66615564D01*
X130406028Y-66115565D02*
X128906028Y-66115565D01*
X128906028Y-66115565D02*
X130406028Y-65258422D01*
X130406028Y-65258422D02*
X128906028Y-65258422D01*
X128906028Y-64258421D02*
X128906028Y-63972707D01*
X128906028Y-63972707D02*
X128977457Y-63829850D01*
X128977457Y-63829850D02*
X129120314Y-63686993D01*
X129120314Y-63686993D02*
X129406028Y-63615564D01*
X129406028Y-63615564D02*
X129906028Y-63615564D01*
X129906028Y-63615564D02*
X130191742Y-63686993D01*
X130191742Y-63686993D02*
X130334600Y-63829850D01*
X130334600Y-63829850D02*
X130406028Y-63972707D01*
X130406028Y-63972707D02*
X130406028Y-64258421D01*
X130406028Y-64258421D02*
X130334600Y-64401279D01*
X130334600Y-64401279D02*
X130191742Y-64544136D01*
X130191742Y-64544136D02*
X129906028Y-64615564D01*
X129906028Y-64615564D02*
X129406028Y-64615564D01*
X129406028Y-64615564D02*
X129120314Y-64544136D01*
X129120314Y-64544136D02*
X128977457Y-64401279D01*
X128977457Y-64401279D02*
X128906028Y-64258421D01*
D13*
X115393922Y-89012157D02*
X115727255Y-90012157D01*
X115727255Y-90012157D02*
X116060588Y-89012157D01*
X116965350Y-89916918D02*
X116917731Y-89964538D01*
X116917731Y-89964538D02*
X116774874Y-90012157D01*
X116774874Y-90012157D02*
X116679636Y-90012157D01*
X116679636Y-90012157D02*
X116536779Y-89964538D01*
X116536779Y-89964538D02*
X116441541Y-89869299D01*
X116441541Y-89869299D02*
X116393922Y-89774061D01*
X116393922Y-89774061D02*
X116346303Y-89583585D01*
X116346303Y-89583585D02*
X116346303Y-89440728D01*
X116346303Y-89440728D02*
X116393922Y-89250252D01*
X116393922Y-89250252D02*
X116441541Y-89155014D01*
X116441541Y-89155014D02*
X116536779Y-89059776D01*
X116536779Y-89059776D02*
X116679636Y-89012157D01*
X116679636Y-89012157D02*
X116774874Y-89012157D01*
X116774874Y-89012157D02*
X116917731Y-89059776D01*
X116917731Y-89059776D02*
X116965350Y-89107395D01*
X117965350Y-89916918D02*
X117917731Y-89964538D01*
X117917731Y-89964538D02*
X117774874Y-90012157D01*
X117774874Y-90012157D02*
X117679636Y-90012157D01*
X117679636Y-90012157D02*
X117536779Y-89964538D01*
X117536779Y-89964538D02*
X117441541Y-89869299D01*
X117441541Y-89869299D02*
X117393922Y-89774061D01*
X117393922Y-89774061D02*
X117346303Y-89583585D01*
X117346303Y-89583585D02*
X117346303Y-89440728D01*
X117346303Y-89440728D02*
X117393922Y-89250252D01*
X117393922Y-89250252D02*
X117441541Y-89155014D01*
X117441541Y-89155014D02*
X117536779Y-89059776D01*
X117536779Y-89059776D02*
X117679636Y-89012157D01*
X117679636Y-89012157D02*
X117774874Y-89012157D01*
X117774874Y-89012157D02*
X117917731Y-89059776D01*
X117917731Y-89059776D02*
X117965350Y-89107395D01*
X116060588Y-85059776D02*
X115965350Y-85012157D01*
X115965350Y-85012157D02*
X115822493Y-85012157D01*
X115822493Y-85012157D02*
X115679636Y-85059776D01*
X115679636Y-85059776D02*
X115584398Y-85155014D01*
X115584398Y-85155014D02*
X115536779Y-85250252D01*
X115536779Y-85250252D02*
X115489160Y-85440728D01*
X115489160Y-85440728D02*
X115489160Y-85583585D01*
X115489160Y-85583585D02*
X115536779Y-85774061D01*
X115536779Y-85774061D02*
X115584398Y-85869299D01*
X115584398Y-85869299D02*
X115679636Y-85964538D01*
X115679636Y-85964538D02*
X115822493Y-86012157D01*
X115822493Y-86012157D02*
X115917731Y-86012157D01*
X115917731Y-86012157D02*
X116060588Y-85964538D01*
X116060588Y-85964538D02*
X116108207Y-85916918D01*
X116108207Y-85916918D02*
X116108207Y-85583585D01*
X116108207Y-85583585D02*
X115917731Y-85583585D01*
X116536779Y-86012157D02*
X116536779Y-85012157D01*
X116536779Y-85012157D02*
X117108207Y-86012157D01*
X117108207Y-86012157D02*
X117108207Y-85012157D01*
X117584398Y-86012157D02*
X117584398Y-85012157D01*
X117584398Y-85012157D02*
X117822493Y-85012157D01*
X117822493Y-85012157D02*
X117965350Y-85059776D01*
X117965350Y-85059776D02*
X118060588Y-85155014D01*
X118060588Y-85155014D02*
X118108207Y-85250252D01*
X118108207Y-85250252D02*
X118155826Y-85440728D01*
X118155826Y-85440728D02*
X118155826Y-85583585D01*
X118155826Y-85583585D02*
X118108207Y-85774061D01*
X118108207Y-85774061D02*
X118060588Y-85869299D01*
X118060588Y-85869299D02*
X117965350Y-85964538D01*
X117965350Y-85964538D02*
X117822493Y-86012157D01*
X117822493Y-86012157D02*
X117584398Y-86012157D01*
X115489160Y-87726442D02*
X115965350Y-87726442D01*
X115393922Y-88012157D02*
X115727255Y-87012157D01*
X115727255Y-87012157D02*
X116060588Y-88012157D01*
X116298684Y-87012157D02*
X116917731Y-87012157D01*
X116917731Y-87012157D02*
X116584398Y-87393109D01*
X116584398Y-87393109D02*
X116727255Y-87393109D01*
X116727255Y-87393109D02*
X116822493Y-87440728D01*
X116822493Y-87440728D02*
X116870112Y-87488347D01*
X116870112Y-87488347D02*
X116917731Y-87583585D01*
X116917731Y-87583585D02*
X116917731Y-87821680D01*
X116917731Y-87821680D02*
X116870112Y-87916918D01*
X116870112Y-87916918D02*
X116822493Y-87964538D01*
X116822493Y-87964538D02*
X116727255Y-88012157D01*
X116727255Y-88012157D02*
X116441541Y-88012157D01*
X116441541Y-88012157D02*
X116346303Y-87964538D01*
X116346303Y-87964538D02*
X116298684Y-87916918D01*
X116060588Y-76000365D02*
X115965350Y-75952746D01*
X115965350Y-75952746D02*
X115822493Y-75952746D01*
X115822493Y-75952746D02*
X115679636Y-76000365D01*
X115679636Y-76000365D02*
X115584398Y-76095603D01*
X115584398Y-76095603D02*
X115536779Y-76190841D01*
X115536779Y-76190841D02*
X115489160Y-76381317D01*
X115489160Y-76381317D02*
X115489160Y-76524174D01*
X115489160Y-76524174D02*
X115536779Y-76714650D01*
X115536779Y-76714650D02*
X115584398Y-76809888D01*
X115584398Y-76809888D02*
X115679636Y-76905127D01*
X115679636Y-76905127D02*
X115822493Y-76952746D01*
X115822493Y-76952746D02*
X115917731Y-76952746D01*
X115917731Y-76952746D02*
X116060588Y-76905127D01*
X116060588Y-76905127D02*
X116108207Y-76857507D01*
X116108207Y-76857507D02*
X116108207Y-76524174D01*
X116108207Y-76524174D02*
X115917731Y-76524174D01*
X116536779Y-76952746D02*
X116536779Y-75952746D01*
X116536779Y-75952746D02*
X117108207Y-76952746D01*
X117108207Y-76952746D02*
X117108207Y-75952746D01*
X117584398Y-76952746D02*
X117584398Y-75952746D01*
X117584398Y-75952746D02*
X117822493Y-75952746D01*
X117822493Y-75952746D02*
X117965350Y-76000365D01*
X117965350Y-76000365D02*
X118060588Y-76095603D01*
X118060588Y-76095603D02*
X118108207Y-76190841D01*
X118108207Y-76190841D02*
X118155826Y-76381317D01*
X118155826Y-76381317D02*
X118155826Y-76524174D01*
X118155826Y-76524174D02*
X118108207Y-76714650D01*
X118108207Y-76714650D02*
X118060588Y-76809888D01*
X118060588Y-76809888D02*
X117965350Y-76905127D01*
X117965350Y-76905127D02*
X117822493Y-76952746D01*
X117822493Y-76952746D02*
X117584398Y-76952746D01*
X115489160Y-78667031D02*
X115965350Y-78667031D01*
X115393922Y-78952746D02*
X115727255Y-77952746D01*
X115727255Y-77952746D02*
X116060588Y-78952746D01*
X116346303Y-78047984D02*
X116393922Y-78000365D01*
X116393922Y-78000365D02*
X116489160Y-77952746D01*
X116489160Y-77952746D02*
X116727255Y-77952746D01*
X116727255Y-77952746D02*
X116822493Y-78000365D01*
X116822493Y-78000365D02*
X116870112Y-78047984D01*
X116870112Y-78047984D02*
X116917731Y-78143222D01*
X116917731Y-78143222D02*
X116917731Y-78238460D01*
X116917731Y-78238460D02*
X116870112Y-78381317D01*
X116870112Y-78381317D02*
X116298684Y-78952746D01*
X116298684Y-78952746D02*
X116917731Y-78952746D01*
X115393922Y-79952746D02*
X115727255Y-80952746D01*
X115727255Y-80952746D02*
X116060588Y-79952746D01*
X116965350Y-80857507D02*
X116917731Y-80905127D01*
X116917731Y-80905127D02*
X116774874Y-80952746D01*
X116774874Y-80952746D02*
X116679636Y-80952746D01*
X116679636Y-80952746D02*
X116536779Y-80905127D01*
X116536779Y-80905127D02*
X116441541Y-80809888D01*
X116441541Y-80809888D02*
X116393922Y-80714650D01*
X116393922Y-80714650D02*
X116346303Y-80524174D01*
X116346303Y-80524174D02*
X116346303Y-80381317D01*
X116346303Y-80381317D02*
X116393922Y-80190841D01*
X116393922Y-80190841D02*
X116441541Y-80095603D01*
X116441541Y-80095603D02*
X116536779Y-80000365D01*
X116536779Y-80000365D02*
X116679636Y-79952746D01*
X116679636Y-79952746D02*
X116774874Y-79952746D01*
X116774874Y-79952746D02*
X116917731Y-80000365D01*
X116917731Y-80000365D02*
X116965350Y-80047984D01*
X117965350Y-80857507D02*
X117917731Y-80905127D01*
X117917731Y-80905127D02*
X117774874Y-80952746D01*
X117774874Y-80952746D02*
X117679636Y-80952746D01*
X117679636Y-80952746D02*
X117536779Y-80905127D01*
X117536779Y-80905127D02*
X117441541Y-80809888D01*
X117441541Y-80809888D02*
X117393922Y-80714650D01*
X117393922Y-80714650D02*
X117346303Y-80524174D01*
X117346303Y-80524174D02*
X117346303Y-80381317D01*
X117346303Y-80381317D02*
X117393922Y-80190841D01*
X117393922Y-80190841D02*
X117441541Y-80095603D01*
X117441541Y-80095603D02*
X117536779Y-80000365D01*
X117536779Y-80000365D02*
X117679636Y-79952746D01*
X117679636Y-79952746D02*
X117774874Y-79952746D01*
X117774874Y-79952746D02*
X117917731Y-80000365D01*
X117917731Y-80000365D02*
X117965350Y-80047984D01*
X115393922Y-70893335D02*
X115727255Y-71893335D01*
X115727255Y-71893335D02*
X116060588Y-70893335D01*
X116965350Y-71798096D02*
X116917731Y-71845716D01*
X116917731Y-71845716D02*
X116774874Y-71893335D01*
X116774874Y-71893335D02*
X116679636Y-71893335D01*
X116679636Y-71893335D02*
X116536779Y-71845716D01*
X116536779Y-71845716D02*
X116441541Y-71750477D01*
X116441541Y-71750477D02*
X116393922Y-71655239D01*
X116393922Y-71655239D02*
X116346303Y-71464763D01*
X116346303Y-71464763D02*
X116346303Y-71321906D01*
X116346303Y-71321906D02*
X116393922Y-71131430D01*
X116393922Y-71131430D02*
X116441541Y-71036192D01*
X116441541Y-71036192D02*
X116536779Y-70940954D01*
X116536779Y-70940954D02*
X116679636Y-70893335D01*
X116679636Y-70893335D02*
X116774874Y-70893335D01*
X116774874Y-70893335D02*
X116917731Y-70940954D01*
X116917731Y-70940954D02*
X116965350Y-70988573D01*
X117965350Y-71798096D02*
X117917731Y-71845716D01*
X117917731Y-71845716D02*
X117774874Y-71893335D01*
X117774874Y-71893335D02*
X117679636Y-71893335D01*
X117679636Y-71893335D02*
X117536779Y-71845716D01*
X117536779Y-71845716D02*
X117441541Y-71750477D01*
X117441541Y-71750477D02*
X117393922Y-71655239D01*
X117393922Y-71655239D02*
X117346303Y-71464763D01*
X117346303Y-71464763D02*
X117346303Y-71321906D01*
X117346303Y-71321906D02*
X117393922Y-71131430D01*
X117393922Y-71131430D02*
X117441541Y-71036192D01*
X117441541Y-71036192D02*
X117536779Y-70940954D01*
X117536779Y-70940954D02*
X117679636Y-70893335D01*
X117679636Y-70893335D02*
X117774874Y-70893335D01*
X117774874Y-70893335D02*
X117917731Y-70940954D01*
X117917731Y-70940954D02*
X117965350Y-70988573D01*
X115489160Y-69607620D02*
X115965350Y-69607620D01*
X115393922Y-69893335D02*
X115727255Y-68893335D01*
X115727255Y-68893335D02*
X116060588Y-69893335D01*
X116917731Y-69893335D02*
X116346303Y-69893335D01*
X116632017Y-69893335D02*
X116632017Y-68893335D01*
X116632017Y-68893335D02*
X116536779Y-69036192D01*
X116536779Y-69036192D02*
X116441541Y-69131430D01*
X116441541Y-69131430D02*
X116346303Y-69179049D01*
X116060588Y-66940954D02*
X115965350Y-66893335D01*
X115965350Y-66893335D02*
X115822493Y-66893335D01*
X115822493Y-66893335D02*
X115679636Y-66940954D01*
X115679636Y-66940954D02*
X115584398Y-67036192D01*
X115584398Y-67036192D02*
X115536779Y-67131430D01*
X115536779Y-67131430D02*
X115489160Y-67321906D01*
X115489160Y-67321906D02*
X115489160Y-67464763D01*
X115489160Y-67464763D02*
X115536779Y-67655239D01*
X115536779Y-67655239D02*
X115584398Y-67750477D01*
X115584398Y-67750477D02*
X115679636Y-67845716D01*
X115679636Y-67845716D02*
X115822493Y-67893335D01*
X115822493Y-67893335D02*
X115917731Y-67893335D01*
X115917731Y-67893335D02*
X116060588Y-67845716D01*
X116060588Y-67845716D02*
X116108207Y-67798096D01*
X116108207Y-67798096D02*
X116108207Y-67464763D01*
X116108207Y-67464763D02*
X115917731Y-67464763D01*
X116536779Y-67893335D02*
X116536779Y-66893335D01*
X116536779Y-66893335D02*
X117108207Y-67893335D01*
X117108207Y-67893335D02*
X117108207Y-66893335D01*
X117584398Y-67893335D02*
X117584398Y-66893335D01*
X117584398Y-66893335D02*
X117822493Y-66893335D01*
X117822493Y-66893335D02*
X117965350Y-66940954D01*
X117965350Y-66940954D02*
X118060588Y-67036192D01*
X118060588Y-67036192D02*
X118108207Y-67131430D01*
X118108207Y-67131430D02*
X118155826Y-67321906D01*
X118155826Y-67321906D02*
X118155826Y-67464763D01*
X118155826Y-67464763D02*
X118108207Y-67655239D01*
X118108207Y-67655239D02*
X118060588Y-67750477D01*
X118060588Y-67750477D02*
X117965350Y-67845716D01*
X117965350Y-67845716D02*
X117822493Y-67893335D01*
X117822493Y-67893335D02*
X117584398Y-67893335D01*
X115489160Y-60548209D02*
X115965350Y-60548209D01*
X115393922Y-60833924D02*
X115727255Y-59833924D01*
X115727255Y-59833924D02*
X116060588Y-60833924D01*
X116584398Y-59833924D02*
X116679636Y-59833924D01*
X116679636Y-59833924D02*
X116774874Y-59881543D01*
X116774874Y-59881543D02*
X116822493Y-59929162D01*
X116822493Y-59929162D02*
X116870112Y-60024400D01*
X116870112Y-60024400D02*
X116917731Y-60214876D01*
X116917731Y-60214876D02*
X116917731Y-60452971D01*
X116917731Y-60452971D02*
X116870112Y-60643447D01*
X116870112Y-60643447D02*
X116822493Y-60738685D01*
X116822493Y-60738685D02*
X116774874Y-60786305D01*
X116774874Y-60786305D02*
X116679636Y-60833924D01*
X116679636Y-60833924D02*
X116584398Y-60833924D01*
X116584398Y-60833924D02*
X116489160Y-60786305D01*
X116489160Y-60786305D02*
X116441541Y-60738685D01*
X116441541Y-60738685D02*
X116393922Y-60643447D01*
X116393922Y-60643447D02*
X116346303Y-60452971D01*
X116346303Y-60452971D02*
X116346303Y-60214876D01*
X116346303Y-60214876D02*
X116393922Y-60024400D01*
X116393922Y-60024400D02*
X116441541Y-59929162D01*
X116441541Y-59929162D02*
X116489160Y-59881543D01*
X116489160Y-59881543D02*
X116584398Y-59833924D01*
X116060588Y-57881543D02*
X115965350Y-57833924D01*
X115965350Y-57833924D02*
X115822493Y-57833924D01*
X115822493Y-57833924D02*
X115679636Y-57881543D01*
X115679636Y-57881543D02*
X115584398Y-57976781D01*
X115584398Y-57976781D02*
X115536779Y-58072019D01*
X115536779Y-58072019D02*
X115489160Y-58262495D01*
X115489160Y-58262495D02*
X115489160Y-58405352D01*
X115489160Y-58405352D02*
X115536779Y-58595828D01*
X115536779Y-58595828D02*
X115584398Y-58691066D01*
X115584398Y-58691066D02*
X115679636Y-58786305D01*
X115679636Y-58786305D02*
X115822493Y-58833924D01*
X115822493Y-58833924D02*
X115917731Y-58833924D01*
X115917731Y-58833924D02*
X116060588Y-58786305D01*
X116060588Y-58786305D02*
X116108207Y-58738685D01*
X116108207Y-58738685D02*
X116108207Y-58405352D01*
X116108207Y-58405352D02*
X115917731Y-58405352D01*
X116536779Y-58833924D02*
X116536779Y-57833924D01*
X116536779Y-57833924D02*
X117108207Y-58833924D01*
X117108207Y-58833924D02*
X117108207Y-57833924D01*
X117584398Y-58833924D02*
X117584398Y-57833924D01*
X117584398Y-57833924D02*
X117822493Y-57833924D01*
X117822493Y-57833924D02*
X117965350Y-57881543D01*
X117965350Y-57881543D02*
X118060588Y-57976781D01*
X118060588Y-57976781D02*
X118108207Y-58072019D01*
X118108207Y-58072019D02*
X118155826Y-58262495D01*
X118155826Y-58262495D02*
X118155826Y-58405352D01*
X118155826Y-58405352D02*
X118108207Y-58595828D01*
X118108207Y-58595828D02*
X118060588Y-58691066D01*
X118060588Y-58691066D02*
X117965350Y-58786305D01*
X117965350Y-58786305D02*
X117822493Y-58833924D01*
X117822493Y-58833924D02*
X117584398Y-58833924D01*
X115393922Y-61833924D02*
X115727255Y-62833924D01*
X115727255Y-62833924D02*
X116060588Y-61833924D01*
X116965350Y-62738685D02*
X116917731Y-62786305D01*
X116917731Y-62786305D02*
X116774874Y-62833924D01*
X116774874Y-62833924D02*
X116679636Y-62833924D01*
X116679636Y-62833924D02*
X116536779Y-62786305D01*
X116536779Y-62786305D02*
X116441541Y-62691066D01*
X116441541Y-62691066D02*
X116393922Y-62595828D01*
X116393922Y-62595828D02*
X116346303Y-62405352D01*
X116346303Y-62405352D02*
X116346303Y-62262495D01*
X116346303Y-62262495D02*
X116393922Y-62072019D01*
X116393922Y-62072019D02*
X116441541Y-61976781D01*
X116441541Y-61976781D02*
X116536779Y-61881543D01*
X116536779Y-61881543D02*
X116679636Y-61833924D01*
X116679636Y-61833924D02*
X116774874Y-61833924D01*
X116774874Y-61833924D02*
X116917731Y-61881543D01*
X116917731Y-61881543D02*
X116965350Y-61929162D01*
X117965350Y-62738685D02*
X117917731Y-62786305D01*
X117917731Y-62786305D02*
X117774874Y-62833924D01*
X117774874Y-62833924D02*
X117679636Y-62833924D01*
X117679636Y-62833924D02*
X117536779Y-62786305D01*
X117536779Y-62786305D02*
X117441541Y-62691066D01*
X117441541Y-62691066D02*
X117393922Y-62595828D01*
X117393922Y-62595828D02*
X117346303Y-62405352D01*
X117346303Y-62405352D02*
X117346303Y-62262495D01*
X117346303Y-62262495D02*
X117393922Y-62072019D01*
X117393922Y-62072019D02*
X117441541Y-61976781D01*
X117441541Y-61976781D02*
X117536779Y-61881543D01*
X117536779Y-61881543D02*
X117679636Y-61833924D01*
X117679636Y-61833924D02*
X117774874Y-61833924D01*
X117774874Y-61833924D02*
X117917731Y-61881543D01*
X117917731Y-61881543D02*
X117965350Y-61929162D01*
D14*
X176392230Y-80838898D02*
X175975564Y-80243660D01*
X175677945Y-80838898D02*
X175677945Y-79588898D01*
X175677945Y-79588898D02*
X176154135Y-79588898D01*
X176154135Y-79588898D02*
X176273183Y-79648422D01*
X176273183Y-79648422D02*
X176332706Y-79707946D01*
X176332706Y-79707946D02*
X176392230Y-79826994D01*
X176392230Y-79826994D02*
X176392230Y-80005565D01*
X176392230Y-80005565D02*
X176332706Y-80124613D01*
X176332706Y-80124613D02*
X176273183Y-80184136D01*
X176273183Y-80184136D02*
X176154135Y-80243660D01*
X176154135Y-80243660D02*
X175677945Y-80243660D01*
X176927945Y-80184136D02*
X177344611Y-80184136D01*
X177523183Y-80838898D02*
X176927945Y-80838898D01*
X176927945Y-80838898D02*
X176927945Y-79588898D01*
X176927945Y-79588898D02*
X177523183Y-79588898D01*
X178654135Y-80838898D02*
X178058897Y-80838898D01*
X178058897Y-80838898D02*
X178058897Y-79588898D01*
X179011278Y-80481755D02*
X179606516Y-80481755D01*
X178892230Y-80838898D02*
X179308897Y-79588898D01*
X179308897Y-79588898D02*
X179725563Y-80838898D01*
X180380326Y-80243660D02*
X180380326Y-80838898D01*
X179963659Y-79588898D02*
X180380326Y-80243660D01*
X180380326Y-80243660D02*
X180796992Y-79588898D01*
X181154136Y-79707946D02*
X181213660Y-79648422D01*
X181213660Y-79648422D02*
X181332707Y-79588898D01*
X181332707Y-79588898D02*
X181630326Y-79588898D01*
X181630326Y-79588898D02*
X181749374Y-79648422D01*
X181749374Y-79648422D02*
X181808898Y-79707946D01*
X181808898Y-79707946D02*
X181868421Y-79826994D01*
X181868421Y-79826994D02*
X181868421Y-79946041D01*
X181868421Y-79946041D02*
X181808898Y-80124613D01*
X181808898Y-80124613D02*
X181094612Y-80838898D01*
X181094612Y-80838898D02*
X181868421Y-80838898D01*
X176392230Y-68988898D02*
X175975564Y-68393660D01*
X175677945Y-68988898D02*
X175677945Y-67738898D01*
X175677945Y-67738898D02*
X176154135Y-67738898D01*
X176154135Y-67738898D02*
X176273183Y-67798422D01*
X176273183Y-67798422D02*
X176332706Y-67857946D01*
X176332706Y-67857946D02*
X176392230Y-67976994D01*
X176392230Y-67976994D02*
X176392230Y-68155565D01*
X176392230Y-68155565D02*
X176332706Y-68274613D01*
X176332706Y-68274613D02*
X176273183Y-68334136D01*
X176273183Y-68334136D02*
X176154135Y-68393660D01*
X176154135Y-68393660D02*
X175677945Y-68393660D01*
X176927945Y-68334136D02*
X177344611Y-68334136D01*
X177523183Y-68988898D02*
X176927945Y-68988898D01*
X176927945Y-68988898D02*
X176927945Y-67738898D01*
X176927945Y-67738898D02*
X177523183Y-67738898D01*
X178654135Y-68988898D02*
X178058897Y-68988898D01*
X178058897Y-68988898D02*
X178058897Y-67738898D01*
X179011278Y-68631755D02*
X179606516Y-68631755D01*
X178892230Y-68988898D02*
X179308897Y-67738898D01*
X179308897Y-67738898D02*
X179725563Y-68988898D01*
X180380326Y-68393660D02*
X180380326Y-68988898D01*
X179963659Y-67738898D02*
X180380326Y-68393660D01*
X180380326Y-68393660D02*
X180796992Y-67738898D01*
X181868421Y-68988898D02*
X181154136Y-68988898D01*
X181511279Y-68988898D02*
X181511279Y-67738898D01*
X181511279Y-67738898D02*
X181392231Y-67917470D01*
X181392231Y-67917470D02*
X181273183Y-68036517D01*
X181273183Y-68036517D02*
X181154136Y-68096041D01*
X175856517Y-60088898D02*
X175856517Y-58838898D01*
X175856517Y-58838898D02*
X176332707Y-58838898D01*
X176332707Y-58838898D02*
X176451755Y-58898422D01*
X176451755Y-58898422D02*
X176511278Y-58957946D01*
X176511278Y-58957946D02*
X176570802Y-59076994D01*
X176570802Y-59076994D02*
X176570802Y-59255565D01*
X176570802Y-59255565D02*
X176511278Y-59374613D01*
X176511278Y-59374613D02*
X176451755Y-59434136D01*
X176451755Y-59434136D02*
X176332707Y-59493660D01*
X176332707Y-59493660D02*
X175856517Y-59493660D01*
X177344612Y-58838898D02*
X177582707Y-58838898D01*
X177582707Y-58838898D02*
X177701755Y-58898422D01*
X177701755Y-58898422D02*
X177820802Y-59017470D01*
X177820802Y-59017470D02*
X177880326Y-59255565D01*
X177880326Y-59255565D02*
X177880326Y-59672232D01*
X177880326Y-59672232D02*
X177820802Y-59910327D01*
X177820802Y-59910327D02*
X177701755Y-60029375D01*
X177701755Y-60029375D02*
X177582707Y-60088898D01*
X177582707Y-60088898D02*
X177344612Y-60088898D01*
X177344612Y-60088898D02*
X177225564Y-60029375D01*
X177225564Y-60029375D02*
X177106517Y-59910327D01*
X177106517Y-59910327D02*
X177046993Y-59672232D01*
X177046993Y-59672232D02*
X177046993Y-59255565D01*
X177046993Y-59255565D02*
X177106517Y-59017470D01*
X177106517Y-59017470D02*
X177225564Y-58898422D01*
X177225564Y-58898422D02*
X177344612Y-58838898D01*
X178296993Y-58838898D02*
X178594612Y-60088898D01*
X178594612Y-60088898D02*
X178832707Y-59196041D01*
X178832707Y-59196041D02*
X179070802Y-60088898D01*
X179070802Y-60088898D02*
X179368422Y-58838898D01*
X179844612Y-59434136D02*
X180261278Y-59434136D01*
X180439850Y-60088898D02*
X179844612Y-60088898D01*
X179844612Y-60088898D02*
X179844612Y-58838898D01*
X179844612Y-58838898D02*
X180439850Y-58838898D01*
X181689849Y-60088898D02*
X181273183Y-59493660D01*
X180975564Y-60088898D02*
X180975564Y-58838898D01*
X180975564Y-58838898D02*
X181451754Y-58838898D01*
X181451754Y-58838898D02*
X181570802Y-58898422D01*
X181570802Y-58898422D02*
X181630325Y-58957946D01*
X181630325Y-58957946D02*
X181689849Y-59076994D01*
X181689849Y-59076994D02*
X181689849Y-59255565D01*
X181689849Y-59255565D02*
X181630325Y-59374613D01*
X181630325Y-59374613D02*
X181570802Y-59434136D01*
X181570802Y-59434136D02*
X181451754Y-59493660D01*
X181451754Y-59493660D02*
X180975564Y-59493660D01*
X172850415Y-83452179D02*
X172850415Y-82202179D01*
X172850415Y-82202179D02*
X173564700Y-83452179D01*
X173564700Y-83452179D02*
X173564700Y-82202179D01*
X174874224Y-83333132D02*
X174814700Y-83392656D01*
X174814700Y-83392656D02*
X174636129Y-83452179D01*
X174636129Y-83452179D02*
X174517081Y-83452179D01*
X174517081Y-83452179D02*
X174338510Y-83392656D01*
X174338510Y-83392656D02*
X174219462Y-83273608D01*
X174219462Y-83273608D02*
X174159939Y-83154560D01*
X174159939Y-83154560D02*
X174100415Y-82916465D01*
X174100415Y-82916465D02*
X174100415Y-82737894D01*
X174100415Y-82737894D02*
X174159939Y-82499798D01*
X174159939Y-82499798D02*
X174219462Y-82380751D01*
X174219462Y-82380751D02*
X174338510Y-82261703D01*
X174338510Y-82261703D02*
X174517081Y-82202179D01*
X174517081Y-82202179D02*
X174636129Y-82202179D01*
X174636129Y-82202179D02*
X174814700Y-82261703D01*
X174814700Y-82261703D02*
X174874224Y-82321227D01*
X172136129Y-85873132D02*
X172076605Y-85932656D01*
X172076605Y-85932656D02*
X171898034Y-85992179D01*
X171898034Y-85992179D02*
X171778986Y-85992179D01*
X171778986Y-85992179D02*
X171600415Y-85932656D01*
X171600415Y-85932656D02*
X171481367Y-85813608D01*
X171481367Y-85813608D02*
X171421844Y-85694560D01*
X171421844Y-85694560D02*
X171362320Y-85456465D01*
X171362320Y-85456465D02*
X171362320Y-85277894D01*
X171362320Y-85277894D02*
X171421844Y-85039798D01*
X171421844Y-85039798D02*
X171481367Y-84920751D01*
X171481367Y-84920751D02*
X171600415Y-84801703D01*
X171600415Y-84801703D02*
X171778986Y-84742179D01*
X171778986Y-84742179D02*
X171898034Y-84742179D01*
X171898034Y-84742179D02*
X172076605Y-84801703D01*
X172076605Y-84801703D02*
X172136129Y-84861227D01*
X172909939Y-84742179D02*
X173148034Y-84742179D01*
X173148034Y-84742179D02*
X173267082Y-84801703D01*
X173267082Y-84801703D02*
X173386129Y-84920751D01*
X173386129Y-84920751D02*
X173445653Y-85158846D01*
X173445653Y-85158846D02*
X173445653Y-85575513D01*
X173445653Y-85575513D02*
X173386129Y-85813608D01*
X173386129Y-85813608D02*
X173267082Y-85932656D01*
X173267082Y-85932656D02*
X173148034Y-85992179D01*
X173148034Y-85992179D02*
X172909939Y-85992179D01*
X172909939Y-85992179D02*
X172790891Y-85932656D01*
X172790891Y-85932656D02*
X172671844Y-85813608D01*
X172671844Y-85813608D02*
X172612320Y-85575513D01*
X172612320Y-85575513D02*
X172612320Y-85158846D01*
X172612320Y-85158846D02*
X172671844Y-84920751D01*
X172671844Y-84920751D02*
X172790891Y-84801703D01*
X172790891Y-84801703D02*
X172909939Y-84742179D01*
X173981368Y-85992179D02*
X173981368Y-84742179D01*
X173981368Y-84742179D02*
X174398034Y-85635036D01*
X174398034Y-85635036D02*
X174814701Y-84742179D01*
X174814701Y-84742179D02*
X174814701Y-85992179D01*
X172790891Y-88532179D02*
X172790891Y-87282179D01*
X172790891Y-87282179D02*
X173505176Y-88532179D01*
X173505176Y-88532179D02*
X173505176Y-87282179D01*
X174338510Y-87282179D02*
X174576605Y-87282179D01*
X174576605Y-87282179D02*
X174695653Y-87341703D01*
X174695653Y-87341703D02*
X174814700Y-87460751D01*
X174814700Y-87460751D02*
X174874224Y-87698846D01*
X174874224Y-87698846D02*
X174874224Y-88115513D01*
X174874224Y-88115513D02*
X174814700Y-88353608D01*
X174814700Y-88353608D02*
X174695653Y-88472656D01*
X174695653Y-88472656D02*
X174576605Y-88532179D01*
X174576605Y-88532179D02*
X174338510Y-88532179D01*
X174338510Y-88532179D02*
X174219462Y-88472656D01*
X174219462Y-88472656D02*
X174100415Y-88353608D01*
X174100415Y-88353608D02*
X174040891Y-88115513D01*
X174040891Y-88115513D02*
X174040891Y-87698846D01*
X174040891Y-87698846D02*
X174100415Y-87460751D01*
X174100415Y-87460751D02*
X174219462Y-87341703D01*
X174219462Y-87341703D02*
X174338510Y-87282179D01*
X172136129Y-73883132D02*
X172076605Y-73942656D01*
X172076605Y-73942656D02*
X171898034Y-74002179D01*
X171898034Y-74002179D02*
X171778986Y-74002179D01*
X171778986Y-74002179D02*
X171600415Y-73942656D01*
X171600415Y-73942656D02*
X171481367Y-73823608D01*
X171481367Y-73823608D02*
X171421844Y-73704560D01*
X171421844Y-73704560D02*
X171362320Y-73466465D01*
X171362320Y-73466465D02*
X171362320Y-73287894D01*
X171362320Y-73287894D02*
X171421844Y-73049798D01*
X171421844Y-73049798D02*
X171481367Y-72930751D01*
X171481367Y-72930751D02*
X171600415Y-72811703D01*
X171600415Y-72811703D02*
X171778986Y-72752179D01*
X171778986Y-72752179D02*
X171898034Y-72752179D01*
X171898034Y-72752179D02*
X172076605Y-72811703D01*
X172076605Y-72811703D02*
X172136129Y-72871227D01*
X172909939Y-72752179D02*
X173148034Y-72752179D01*
X173148034Y-72752179D02*
X173267082Y-72811703D01*
X173267082Y-72811703D02*
X173386129Y-72930751D01*
X173386129Y-72930751D02*
X173445653Y-73168846D01*
X173445653Y-73168846D02*
X173445653Y-73585513D01*
X173445653Y-73585513D02*
X173386129Y-73823608D01*
X173386129Y-73823608D02*
X173267082Y-73942656D01*
X173267082Y-73942656D02*
X173148034Y-74002179D01*
X173148034Y-74002179D02*
X172909939Y-74002179D01*
X172909939Y-74002179D02*
X172790891Y-73942656D01*
X172790891Y-73942656D02*
X172671844Y-73823608D01*
X172671844Y-73823608D02*
X172612320Y-73585513D01*
X172612320Y-73585513D02*
X172612320Y-73168846D01*
X172612320Y-73168846D02*
X172671844Y-72930751D01*
X172671844Y-72930751D02*
X172790891Y-72811703D01*
X172790891Y-72811703D02*
X172909939Y-72752179D01*
X173981368Y-74002179D02*
X173981368Y-72752179D01*
X173981368Y-72752179D02*
X174398034Y-73645036D01*
X174398034Y-73645036D02*
X174814701Y-72752179D01*
X174814701Y-72752179D02*
X174814701Y-74002179D01*
X172790891Y-76542179D02*
X172790891Y-75292179D01*
X172790891Y-75292179D02*
X173505176Y-76542179D01*
X173505176Y-76542179D02*
X173505176Y-75292179D01*
X174338510Y-75292179D02*
X174576605Y-75292179D01*
X174576605Y-75292179D02*
X174695653Y-75351703D01*
X174695653Y-75351703D02*
X174814700Y-75470751D01*
X174814700Y-75470751D02*
X174874224Y-75708846D01*
X174874224Y-75708846D02*
X174874224Y-76125513D01*
X174874224Y-76125513D02*
X174814700Y-76363608D01*
X174814700Y-76363608D02*
X174695653Y-76482656D01*
X174695653Y-76482656D02*
X174576605Y-76542179D01*
X174576605Y-76542179D02*
X174338510Y-76542179D01*
X174338510Y-76542179D02*
X174219462Y-76482656D01*
X174219462Y-76482656D02*
X174100415Y-76363608D01*
X174100415Y-76363608D02*
X174040891Y-76125513D01*
X174040891Y-76125513D02*
X174040891Y-75708846D01*
X174040891Y-75708846D02*
X174100415Y-75470751D01*
X174100415Y-75470751D02*
X174219462Y-75351703D01*
X174219462Y-75351703D02*
X174338510Y-75292179D01*
X172850415Y-71462179D02*
X172850415Y-70212179D01*
X172850415Y-70212179D02*
X173564700Y-71462179D01*
X173564700Y-71462179D02*
X173564700Y-70212179D01*
X174874224Y-71343132D02*
X174814700Y-71402656D01*
X174814700Y-71402656D02*
X174636129Y-71462179D01*
X174636129Y-71462179D02*
X174517081Y-71462179D01*
X174517081Y-71462179D02*
X174338510Y-71402656D01*
X174338510Y-71402656D02*
X174219462Y-71283608D01*
X174219462Y-71283608D02*
X174159939Y-71164560D01*
X174159939Y-71164560D02*
X174100415Y-70926465D01*
X174100415Y-70926465D02*
X174100415Y-70747894D01*
X174100415Y-70747894D02*
X174159939Y-70509798D01*
X174159939Y-70509798D02*
X174219462Y-70390751D01*
X174219462Y-70390751D02*
X174338510Y-70271703D01*
X174338510Y-70271703D02*
X174517081Y-70212179D01*
X174517081Y-70212179D02*
X174636129Y-70212179D01*
X174636129Y-70212179D02*
X174814700Y-70271703D01*
X174814700Y-70271703D02*
X174874224Y-70331227D01*
X172255176Y-61446703D02*
X172136129Y-61387179D01*
X172136129Y-61387179D02*
X171957557Y-61387179D01*
X171957557Y-61387179D02*
X171778986Y-61446703D01*
X171778986Y-61446703D02*
X171659938Y-61565751D01*
X171659938Y-61565751D02*
X171600415Y-61684798D01*
X171600415Y-61684798D02*
X171540891Y-61922894D01*
X171540891Y-61922894D02*
X171540891Y-62101465D01*
X171540891Y-62101465D02*
X171600415Y-62339560D01*
X171600415Y-62339560D02*
X171659938Y-62458608D01*
X171659938Y-62458608D02*
X171778986Y-62577656D01*
X171778986Y-62577656D02*
X171957557Y-62637179D01*
X171957557Y-62637179D02*
X172076605Y-62637179D01*
X172076605Y-62637179D02*
X172255176Y-62577656D01*
X172255176Y-62577656D02*
X172314700Y-62518132D01*
X172314700Y-62518132D02*
X172314700Y-62101465D01*
X172314700Y-62101465D02*
X172076605Y-62101465D01*
X172850415Y-62637179D02*
X172850415Y-61387179D01*
X172850415Y-61387179D02*
X173564700Y-62637179D01*
X173564700Y-62637179D02*
X173564700Y-61387179D01*
X174159939Y-62637179D02*
X174159939Y-61387179D01*
X174159939Y-61387179D02*
X174457558Y-61387179D01*
X174457558Y-61387179D02*
X174636129Y-61446703D01*
X174636129Y-61446703D02*
X174755177Y-61565751D01*
X174755177Y-61565751D02*
X174814700Y-61684798D01*
X174814700Y-61684798D02*
X174874224Y-61922894D01*
X174874224Y-61922894D02*
X174874224Y-62101465D01*
X174874224Y-62101465D02*
X174814700Y-62339560D01*
X174814700Y-62339560D02*
X174755177Y-62458608D01*
X174755177Y-62458608D02*
X174636129Y-62577656D01*
X174636129Y-62577656D02*
X174457558Y-62637179D01*
X174457558Y-62637179D02*
X174159939Y-62637179D01*
X171600415Y-64700989D02*
X172552796Y-64700989D01*
X172076605Y-65177179D02*
X172076605Y-64224798D01*
X173743272Y-63927179D02*
X173148034Y-63927179D01*
X173148034Y-63927179D02*
X173088510Y-64522417D01*
X173088510Y-64522417D02*
X173148034Y-64462894D01*
X173148034Y-64462894D02*
X173267081Y-64403370D01*
X173267081Y-64403370D02*
X173564700Y-64403370D01*
X173564700Y-64403370D02*
X173683748Y-64462894D01*
X173683748Y-64462894D02*
X173743272Y-64522417D01*
X173743272Y-64522417D02*
X173802795Y-64641465D01*
X173802795Y-64641465D02*
X173802795Y-64939084D01*
X173802795Y-64939084D02*
X173743272Y-65058132D01*
X173743272Y-65058132D02*
X173683748Y-65117656D01*
X173683748Y-65117656D02*
X173564700Y-65177179D01*
X173564700Y-65177179D02*
X173267081Y-65177179D01*
X173267081Y-65177179D02*
X173148034Y-65117656D01*
X173148034Y-65117656D02*
X173088510Y-65058132D01*
X174159938Y-63927179D02*
X174576605Y-65177179D01*
X174576605Y-65177179D02*
X174993271Y-63927179D01*
D13*
X130980404Y-55775180D02*
X130980404Y-54965657D01*
X130980404Y-54965657D02*
X130932785Y-54870419D01*
X130932785Y-54870419D02*
X130885166Y-54822800D01*
X130885166Y-54822800D02*
X130789928Y-54775180D01*
X130789928Y-54775180D02*
X130599452Y-54775180D01*
X130599452Y-54775180D02*
X130504214Y-54822800D01*
X130504214Y-54822800D02*
X130456595Y-54870419D01*
X130456595Y-54870419D02*
X130408976Y-54965657D01*
X130408976Y-54965657D02*
X130408976Y-55775180D01*
X129980404Y-54822800D02*
X129837547Y-54775180D01*
X129837547Y-54775180D02*
X129599452Y-54775180D01*
X129599452Y-54775180D02*
X129504214Y-54822800D01*
X129504214Y-54822800D02*
X129456595Y-54870419D01*
X129456595Y-54870419D02*
X129408976Y-54965657D01*
X129408976Y-54965657D02*
X129408976Y-55060895D01*
X129408976Y-55060895D02*
X129456595Y-55156133D01*
X129456595Y-55156133D02*
X129504214Y-55203752D01*
X129504214Y-55203752D02*
X129599452Y-55251371D01*
X129599452Y-55251371D02*
X129789928Y-55298990D01*
X129789928Y-55298990D02*
X129885166Y-55346609D01*
X129885166Y-55346609D02*
X129932785Y-55394228D01*
X129932785Y-55394228D02*
X129980404Y-55489466D01*
X129980404Y-55489466D02*
X129980404Y-55584704D01*
X129980404Y-55584704D02*
X129932785Y-55679942D01*
X129932785Y-55679942D02*
X129885166Y-55727561D01*
X129885166Y-55727561D02*
X129789928Y-55775180D01*
X129789928Y-55775180D02*
X129551833Y-55775180D01*
X129551833Y-55775180D02*
X129408976Y-55727561D01*
X128647071Y-55298990D02*
X128504214Y-55251371D01*
X128504214Y-55251371D02*
X128456595Y-55203752D01*
X128456595Y-55203752D02*
X128408976Y-55108514D01*
X128408976Y-55108514D02*
X128408976Y-54965657D01*
X128408976Y-54965657D02*
X128456595Y-54870419D01*
X128456595Y-54870419D02*
X128504214Y-54822800D01*
X128504214Y-54822800D02*
X128599452Y-54775180D01*
X128599452Y-54775180D02*
X128980404Y-54775180D01*
X128980404Y-54775180D02*
X128980404Y-55775180D01*
X128980404Y-55775180D02*
X128647071Y-55775180D01*
X128647071Y-55775180D02*
X128551833Y-55727561D01*
X128551833Y-55727561D02*
X128504214Y-55679942D01*
X128504214Y-55679942D02*
X128456595Y-55584704D01*
X128456595Y-55584704D02*
X128456595Y-55489466D01*
X128456595Y-55489466D02*
X128504214Y-55394228D01*
X128504214Y-55394228D02*
X128551833Y-55346609D01*
X128551833Y-55346609D02*
X128647071Y-55298990D01*
X128647071Y-55298990D02*
X128980404Y-55298990D01*
D15*
%TO.C,U1*%
X141410500Y-48675000D02*
X141410500Y-48675000D01*
X141410500Y-48675000D02*
X170610500Y-48675000D01*
X141410500Y-64125000D02*
X141410500Y-48675000D01*
X141740500Y-49251000D02*
X141740500Y-49251000D01*
X141740500Y-49251000D02*
X147074500Y-49251000D01*
X141740500Y-59919000D02*
X141740500Y-49251000D01*
X141740500Y-59919000D02*
X141740500Y-59919000D01*
X147074500Y-49251000D02*
X147074500Y-59919000D01*
X147074500Y-59919000D02*
X141740500Y-59919000D01*
X170610500Y-48675000D02*
X170610500Y-64125000D01*
X170610500Y-64125000D02*
X141410500Y-64125000D01*
X141210500Y-50775000D02*
X140874500Y-51015000D01*
X140874500Y-50535000D01*
X141210500Y-50775000D01*
G36*
X141210500Y-50775000D02*
G01*
X140874500Y-51015000D01*
X140874500Y-50535000D01*
X141210500Y-50775000D01*
G37*
%TO.C,Q2*%
X146450000Y-94240000D02*
X145800000Y-94240000D01*
X146450000Y-94240000D02*
X147100000Y-94240000D01*
X146450000Y-97360000D02*
X145800000Y-97360000D01*
X146450000Y-97360000D02*
X147100000Y-97360000D01*
X145287500Y-94290000D02*
X145047500Y-93960000D01*
X145527500Y-93960000D01*
X145287500Y-94290000D01*
G36*
X145287500Y-94290000D02*
G01*
X145047500Y-93960000D01*
X145527500Y-93960000D01*
X145287500Y-94290000D01*
G37*
%TO.C,Q1*%
X146450000Y-78140000D02*
X145800000Y-78140000D01*
X146450000Y-78140000D02*
X147100000Y-78140000D01*
X146450000Y-81260000D02*
X145800000Y-81260000D01*
X146450000Y-81260000D02*
X147100000Y-81260000D01*
X145287500Y-78190000D02*
X145047500Y-77860000D01*
X145527500Y-77860000D01*
X145287500Y-78190000D01*
G36*
X145287500Y-78190000D02*
G01*
X145047500Y-77860000D01*
X145527500Y-77860000D01*
X145287500Y-78190000D01*
G37*
%TO.C,K2*%
X152550000Y-97300000D02*
X154850000Y-97300000D01*
X169400000Y-97060000D02*
X150390000Y-97060000D01*
X155400000Y-95350000D02*
X157700000Y-95350000D01*
X165900000Y-93650000D02*
X165900000Y-91350000D01*
X161200000Y-93050000D02*
X154300000Y-93050000D01*
X155200000Y-90850000D02*
X155200000Y-87850000D01*
X157700000Y-90850000D02*
X157700000Y-95350000D01*
X160200000Y-90850000D02*
X155200000Y-90850000D01*
X160200000Y-90850000D02*
X155200000Y-87850000D01*
X150390000Y-90550000D02*
X150390000Y-97060000D01*
X154300000Y-89350000D02*
X154300000Y-93050000D01*
X154300000Y-89350000D02*
X153400000Y-89350000D01*
X161200000Y-89350000D02*
X161200000Y-93050000D01*
X161200000Y-89350000D02*
X162700000Y-89350000D01*
X162700000Y-89350000D02*
X167200000Y-86650000D01*
X155200000Y-87850000D02*
X160200000Y-87850000D01*
X160200000Y-87850000D02*
X160200000Y-90850000D01*
X165900000Y-85050000D02*
X165900000Y-87350000D01*
X157700000Y-83350000D02*
X157700000Y-87850000D01*
X157700000Y-83350000D02*
X155400000Y-83350000D01*
X150390000Y-81640000D02*
X150390000Y-88150000D01*
X150390000Y-81640000D02*
X169410000Y-81640000D01*
X169410000Y-81640000D02*
X169410000Y-97060000D01*
%TO.C,K1*%
X152550000Y-81300000D02*
X154850000Y-81300000D01*
X169400000Y-81060000D02*
X150390000Y-81060000D01*
X155400000Y-79350000D02*
X157700000Y-79350000D01*
X165900000Y-77650000D02*
X165900000Y-75350000D01*
X161200000Y-77050000D02*
X154300000Y-77050000D01*
X155200000Y-74850000D02*
X155200000Y-71850000D01*
X157700000Y-74850000D02*
X157700000Y-79350000D01*
X160200000Y-74850000D02*
X155200000Y-74850000D01*
X160200000Y-74850000D02*
X155200000Y-71850000D01*
X150390000Y-74550000D02*
X150390000Y-81060000D01*
X154300000Y-73350000D02*
X154300000Y-77050000D01*
X154300000Y-73350000D02*
X153400000Y-73350000D01*
X161200000Y-73350000D02*
X161200000Y-77050000D01*
X161200000Y-73350000D02*
X162700000Y-73350000D01*
X162700000Y-73350000D02*
X167200000Y-70650000D01*
X155200000Y-71850000D02*
X160200000Y-71850000D01*
X160200000Y-71850000D02*
X160200000Y-74850000D01*
X165900000Y-69050000D02*
X165900000Y-71350000D01*
X157700000Y-67350000D02*
X157700000Y-71850000D01*
X157700000Y-67350000D02*
X155400000Y-67350000D01*
X150390000Y-65640000D02*
X150390000Y-72150000D01*
X150390000Y-65640000D02*
X169410000Y-65640000D01*
X169410000Y-65640000D02*
X169410000Y-81060000D01*
%TO.C,J7*%
X181200000Y-66265000D02*
X181200000Y-60445000D01*
X180200000Y-66265000D02*
X180200000Y-60445000D01*
X177099000Y-66265000D02*
X177099000Y-60445000D01*
X175380000Y-66265000D02*
X175380000Y-60445000D01*
X182120000Y-66265000D02*
X182120000Y-60445000D01*
X175380000Y-66265000D02*
X182120000Y-66265000D01*
X175380000Y-60445000D02*
X182120000Y-60445000D01*
X181320000Y-66505000D02*
X182360000Y-66505000D01*
X182360000Y-66505000D02*
X182360000Y-65705000D01*
%TO.C,J6*%
X181200000Y-89620000D02*
X181200000Y-81259000D01*
X180200000Y-89620000D02*
X180200000Y-81259000D01*
X177099000Y-89620000D02*
X177099000Y-81259000D01*
X175380000Y-89620000D02*
X175380000Y-81259000D01*
X182120000Y-89620000D02*
X182120000Y-81259000D01*
X175380000Y-89620000D02*
X182120000Y-89620000D01*
X175380000Y-81259000D02*
X182120000Y-81259000D01*
X181320000Y-89860000D02*
X182360000Y-89860000D01*
X182360000Y-89860000D02*
X182360000Y-89060000D01*
%TO.C,J5*%
X181200000Y-77630000D02*
X181200000Y-69269000D01*
X180200000Y-77630000D02*
X180200000Y-69269000D01*
X177099000Y-77630000D02*
X177099000Y-69269000D01*
X175380000Y-77630000D02*
X175380000Y-69269000D01*
X182120000Y-77630000D02*
X182120000Y-69269000D01*
X175380000Y-77630000D02*
X182120000Y-77630000D01*
X175380000Y-69269000D02*
X182120000Y-69269000D01*
X181320000Y-77870000D02*
X182360000Y-77870000D01*
X182360000Y-77870000D02*
X182360000Y-77070000D01*
%TO.C,J4*%
X109690000Y-91900588D02*
X110940000Y-91900588D01*
X109990000Y-91600588D02*
X114710000Y-91600588D01*
X111300000Y-91600588D02*
X111300000Y-90990588D01*
X112600000Y-91600588D02*
X112600000Y-90990588D01*
X114710000Y-91600588D02*
X114710000Y-83480588D01*
X110600000Y-90990588D02*
X114100000Y-90990588D01*
X114100000Y-90990588D02*
X114100000Y-84090588D01*
X109690000Y-90650588D02*
X109690000Y-91900588D01*
X109790000Y-90140588D02*
X109990000Y-90140588D01*
X109790000Y-89840588D02*
X109790000Y-90140588D01*
X109890000Y-89840588D02*
X109890000Y-90140588D01*
X109990000Y-89840588D02*
X109790000Y-89840588D01*
X109990000Y-89040588D02*
X110600000Y-89040588D01*
X110600000Y-89040588D02*
X110600000Y-90990588D01*
X113600000Y-88640588D02*
X113600000Y-88440588D01*
X114100000Y-88640588D02*
X113600000Y-88640588D01*
X114100000Y-88540588D02*
X113600000Y-88540588D01*
X113600000Y-88440588D02*
X114100000Y-88440588D01*
X113600000Y-86640588D02*
X113600000Y-86440588D01*
X114100000Y-86640588D02*
X113600000Y-86640588D01*
X114100000Y-86540588D02*
X113600000Y-86540588D01*
X113600000Y-86440588D02*
X114100000Y-86440588D01*
X110600000Y-86040588D02*
X109990000Y-86040588D01*
X110600000Y-84090588D02*
X110600000Y-86040588D01*
X114100000Y-84090588D02*
X110600000Y-84090588D01*
X109990000Y-83480588D02*
X109990000Y-91600588D01*
X111300000Y-83480588D02*
X111300000Y-84090588D01*
X112600000Y-83480588D02*
X112600000Y-84090588D01*
X114710000Y-83480588D02*
X109990000Y-83480588D01*
%TO.C,J3*%
X109690000Y-82841177D02*
X110940000Y-82841177D01*
X109990000Y-82541177D02*
X114710000Y-82541177D01*
X111300000Y-82541177D02*
X111300000Y-81931177D01*
X112600000Y-82541177D02*
X112600000Y-81931177D01*
X114710000Y-82541177D02*
X114710000Y-74421177D01*
X110600000Y-81931177D02*
X114100000Y-81931177D01*
X114100000Y-81931177D02*
X114100000Y-75031177D01*
X109690000Y-81591177D02*
X109690000Y-82841177D01*
X109790000Y-81081177D02*
X109990000Y-81081177D01*
X109790000Y-80781177D02*
X109790000Y-81081177D01*
X109890000Y-80781177D02*
X109890000Y-81081177D01*
X109990000Y-80781177D02*
X109790000Y-80781177D01*
X109990000Y-79981177D02*
X110600000Y-79981177D01*
X110600000Y-79981177D02*
X110600000Y-81931177D01*
X113600000Y-79581177D02*
X113600000Y-79381177D01*
X114100000Y-79581177D02*
X113600000Y-79581177D01*
X114100000Y-79481177D02*
X113600000Y-79481177D01*
X113600000Y-79381177D02*
X114100000Y-79381177D01*
X113600000Y-77581177D02*
X113600000Y-77381177D01*
X114100000Y-77581177D02*
X113600000Y-77581177D01*
X114100000Y-77481177D02*
X113600000Y-77481177D01*
X113600000Y-77381177D02*
X114100000Y-77381177D01*
X110600000Y-76981177D02*
X109990000Y-76981177D01*
X110600000Y-75031177D02*
X110600000Y-76981177D01*
X114100000Y-75031177D02*
X110600000Y-75031177D01*
X109990000Y-74421177D02*
X109990000Y-82541177D01*
X111300000Y-74421177D02*
X111300000Y-75031177D01*
X112600000Y-74421177D02*
X112600000Y-75031177D01*
X114710000Y-74421177D02*
X109990000Y-74421177D01*
%TO.C,J2*%
X109690000Y-73781766D02*
X110940000Y-73781766D01*
X109990000Y-73481766D02*
X114710000Y-73481766D01*
X111300000Y-73481766D02*
X111300000Y-72871766D01*
X112600000Y-73481766D02*
X112600000Y-72871766D01*
X114710000Y-73481766D02*
X114710000Y-65361766D01*
X110600000Y-72871766D02*
X114100000Y-72871766D01*
X114100000Y-72871766D02*
X114100000Y-65971766D01*
X109690000Y-72531766D02*
X109690000Y-73781766D01*
X109790000Y-72021766D02*
X109990000Y-72021766D01*
X109790000Y-71721766D02*
X109790000Y-72021766D01*
X109890000Y-71721766D02*
X109890000Y-72021766D01*
X109990000Y-71721766D02*
X109790000Y-71721766D01*
X109990000Y-70921766D02*
X110600000Y-70921766D01*
X110600000Y-70921766D02*
X110600000Y-72871766D01*
X113600000Y-70521766D02*
X113600000Y-70321766D01*
X114100000Y-70521766D02*
X113600000Y-70521766D01*
X114100000Y-70421766D02*
X113600000Y-70421766D01*
X113600000Y-70321766D02*
X114100000Y-70321766D01*
X113600000Y-68521766D02*
X113600000Y-68321766D01*
X114100000Y-68521766D02*
X113600000Y-68521766D01*
X114100000Y-68421766D02*
X113600000Y-68421766D01*
X113600000Y-68321766D02*
X114100000Y-68321766D01*
X110600000Y-67921766D02*
X109990000Y-67921766D01*
X110600000Y-65971766D02*
X110600000Y-67921766D01*
X114100000Y-65971766D02*
X110600000Y-65971766D01*
X109990000Y-65361766D02*
X109990000Y-73481766D01*
X111300000Y-65361766D02*
X111300000Y-65971766D01*
X112600000Y-65361766D02*
X112600000Y-65971766D01*
X114710000Y-65361766D02*
X109990000Y-65361766D01*
%TO.C,J1*%
X109690000Y-64722355D02*
X110940000Y-64722355D01*
X109990000Y-64422355D02*
X114710000Y-64422355D01*
X111300000Y-64422355D02*
X111300000Y-63812355D01*
X112600000Y-64422355D02*
X112600000Y-63812355D01*
X114710000Y-64422355D02*
X114710000Y-56302355D01*
X110600000Y-63812355D02*
X114100000Y-63812355D01*
X114100000Y-63812355D02*
X114100000Y-56912355D01*
X109690000Y-63472355D02*
X109690000Y-64722355D01*
X109790000Y-62962355D02*
X109990000Y-62962355D01*
X109790000Y-62662355D02*
X109790000Y-62962355D01*
X109890000Y-62662355D02*
X109890000Y-62962355D01*
X109990000Y-62662355D02*
X109790000Y-62662355D01*
X109990000Y-61862355D02*
X110600000Y-61862355D01*
X110600000Y-61862355D02*
X110600000Y-63812355D01*
X113600000Y-61462355D02*
X113600000Y-61262355D01*
X114100000Y-61462355D02*
X113600000Y-61462355D01*
X114100000Y-61362355D02*
X113600000Y-61362355D01*
X113600000Y-61262355D02*
X114100000Y-61262355D01*
X113600000Y-59462355D02*
X113600000Y-59262355D01*
X114100000Y-59462355D02*
X113600000Y-59462355D01*
X114100000Y-59362355D02*
X113600000Y-59362355D01*
X113600000Y-59262355D02*
X114100000Y-59262355D01*
X110600000Y-58862355D02*
X109990000Y-58862355D01*
X110600000Y-56912355D02*
X110600000Y-58862355D01*
X114100000Y-56912355D02*
X110600000Y-56912355D01*
X109990000Y-56302355D02*
X109990000Y-64422355D01*
X111300000Y-56302355D02*
X111300000Y-56912355D01*
X112600000Y-56302355D02*
X112600000Y-56912355D01*
X114710000Y-56302355D02*
X109990000Y-56302355D01*
%TO.C,D2*%
X148100000Y-85930000D02*
X144800000Y-85930000D01*
X148100000Y-85930000D02*
X148100000Y-91440000D01*
X144800000Y-85930000D02*
X144800000Y-91440000D01*
%TO.C,D1*%
X148100000Y-69930000D02*
X144800000Y-69930000D01*
X148100000Y-69930000D02*
X148100000Y-75440000D01*
X144800000Y-69930000D02*
X144800000Y-75440000D01*
%TO.C,A1*%
X138738500Y-94730000D02*
X138738500Y-92060000D01*
X138738500Y-89520000D02*
X138738500Y-51290000D01*
X138738500Y-51290000D02*
X133658500Y-51290000D01*
X136068500Y-92060000D02*
X138738500Y-92060000D01*
X136068500Y-89520000D02*
X138738500Y-89520000D01*
X136068500Y-89520000D02*
X136068500Y-92060000D01*
X136068500Y-89520000D02*
X136068500Y-53960000D01*
X136068500Y-53960000D02*
X138738500Y-53960000D01*
X133658500Y-59170000D02*
X125778500Y-59170000D01*
X133658500Y-48750000D02*
X133658500Y-59170000D01*
X125778500Y-59170000D02*
X125778500Y-48750000D01*
X125778500Y-48750000D02*
X133658500Y-48750000D01*
X123368500Y-92060000D02*
X123368500Y-53960000D01*
X123368500Y-92060000D02*
X120698500Y-92060000D01*
X123368500Y-53960000D02*
X120698500Y-53960000D01*
X120698500Y-94730000D02*
X138738500Y-94730000D01*
X120698500Y-51290000D02*
X125778500Y-51290000D01*
X120698500Y-51290000D02*
X120698500Y-94730000D01*
%TD*%
%LPC*%
D16*
%TO.C,U1*%
X143010500Y-50775000D03*
D17*
X145550500Y-50775000D03*
X143010500Y-53315000D03*
X145550500Y-53315000D03*
X143010500Y-55855000D03*
X145550500Y-55855000D03*
X143010500Y-58395000D03*
X145550500Y-58395000D03*
%TD*%
D18*
%TO.C,Q2*%
X145512500Y-94850000D03*
X145512500Y-96750000D03*
X147387500Y-95800000D03*
%TD*%
%TO.C,Q1*%
X145512500Y-78750000D03*
X145512500Y-80650000D03*
X147387500Y-79700000D03*
%TD*%
D19*
%TO.C,K2*%
X151700000Y-89350000D03*
X165900000Y-83350000D03*
X165900000Y-95350000D03*
D20*
X153700000Y-95350000D03*
D19*
X153700000Y-83350000D03*
%TD*%
%TO.C,K1*%
X151700000Y-73350000D03*
X165900000Y-67350000D03*
X165900000Y-79350000D03*
D20*
X153700000Y-79350000D03*
D19*
X153700000Y-67350000D03*
%TD*%
D21*
%TO.C,J7*%
X178600000Y-64625000D03*
D22*
X178600000Y-62085000D03*
%TD*%
D21*
%TO.C,J6*%
X178600000Y-87980000D03*
D22*
X178600000Y-85440000D03*
X178600000Y-82900000D03*
%TD*%
D21*
%TO.C,J5*%
X178600000Y-75990000D03*
D22*
X178600000Y-73450000D03*
X178600000Y-70910000D03*
%TD*%
D23*
%TO.C,J4*%
X111800000Y-89540588D03*
D24*
X111800000Y-87540588D03*
X111800000Y-85540588D03*
%TD*%
D23*
%TO.C,J3*%
X111800000Y-80481177D03*
D24*
X111800000Y-78481177D03*
X111800000Y-76481177D03*
%TD*%
D23*
%TO.C,J2*%
X111800000Y-71421766D03*
D24*
X111800000Y-69421766D03*
X111800000Y-67421766D03*
%TD*%
D23*
%TO.C,J1*%
X111800000Y-62362355D03*
D24*
X111800000Y-60362355D03*
X111800000Y-58362355D03*
%TD*%
D25*
%TO.C,H4*%
X176300000Y-51900000D03*
X177002944Y-50202944D03*
X177002944Y-53597056D03*
X178700000Y-49500000D03*
D26*
X178700000Y-51900000D03*
D25*
X178700000Y-54300000D03*
X180397056Y-50202944D03*
X180397056Y-53597056D03*
X181100000Y-51900000D03*
%TD*%
%TO.C,H3*%
X176300000Y-95900000D03*
X177002944Y-94202944D03*
X177002944Y-97597056D03*
X178700000Y-93500000D03*
D26*
X178700000Y-95900000D03*
D25*
X178700000Y-98300000D03*
X180397056Y-94202944D03*
X180397056Y-97597056D03*
X181100000Y-95900000D03*
%TD*%
%TO.C,H2*%
X110300000Y-95900000D03*
X111002944Y-94202944D03*
X111002944Y-97597056D03*
X112700000Y-93500000D03*
D26*
X112700000Y-95900000D03*
D25*
X112700000Y-98300000D03*
X114397056Y-94202944D03*
X114397056Y-97597056D03*
X115100000Y-95900000D03*
%TD*%
%TO.C,H1*%
X110300000Y-51900000D03*
X111002944Y-50202944D03*
X111002944Y-53597056D03*
X112700000Y-49500000D03*
D26*
X112700000Y-51900000D03*
D25*
X112700000Y-54300000D03*
X114397056Y-50202944D03*
X114397056Y-53597056D03*
X115100000Y-51900000D03*
%TD*%
D27*
%TO.C,D2*%
X146450000Y-87440000D03*
X146450000Y-91440000D03*
%TD*%
%TO.C,D1*%
X146450000Y-71440000D03*
X146450000Y-75440000D03*
%TD*%
D28*
%TO.C,A1*%
X137338500Y-90790000D03*
D29*
X137338500Y-88250000D03*
X137338500Y-85710000D03*
X137338500Y-83170000D03*
X137338500Y-80630000D03*
X137338500Y-78090000D03*
X137338500Y-75550000D03*
X137338500Y-73010000D03*
X137338500Y-70470000D03*
X137338500Y-67930000D03*
X137338500Y-65390000D03*
X137338500Y-62850000D03*
X137338500Y-60310000D03*
X137338500Y-57770000D03*
X137338500Y-55230000D03*
X122098500Y-55230000D03*
X122098500Y-57770000D03*
X122098500Y-60310000D03*
X122098500Y-62850000D03*
X122098500Y-65390000D03*
X122098500Y-67930000D03*
X122098500Y-70470000D03*
X122098500Y-73010000D03*
X122098500Y-75550000D03*
X122098500Y-78090000D03*
X122098500Y-80630000D03*
X122098500Y-83170000D03*
X122098500Y-85710000D03*
X122098500Y-88250000D03*
X122098500Y-90790000D03*
%TD*%
%LPD*%
M02*
